SplineFontDB: 3.2
FontName: Visitor_Rus
FullName: Visitor_Rus
FamilyName: Visitor_Rus
Weight: Book
Copyright: Typeface (c) (ru_userbars). 2006. All Rights Reserved
Version: 1.00 May 4, 2006
ItalicAngle: 0
UnderlinePosition: -442
UnderlineWidth: 150
Ascent: 1638
Descent: 410
InvalidEm: 0
sfntRevision: 0x00010000
LayerCount: 2
Layer: 0 1 "Back" 1
Layer: 1 1 "Fore" 0
XUID: [1021 141 1328002068 6355]
StyleMap: 0x0040
FSType: 8
OS2Version: 3
OS2_WeightWidthSlopeOnly: 0
OS2_UseTypoMetrics: 0
CreationTime: 1146703412
ModificationTime: 1614882554
PfmFamily: 17
TTFWeight: 400
TTFWidth: 5
LineGap: 307
VLineGap: 0
Panose: 2 0 0 0 0 0 0 0 0 0
OS2TypoAscent: 1491
OS2TypoAOffset: 0
OS2TypoDescent: -431
OS2TypoDOffset: 0
OS2TypoLinegap: 307
OS2WinAscent: 1854
OS2WinAOffset: 0
OS2WinDescent: 434
OS2WinDOffset: 0
HheadAscent: 1491
HheadAOffset: 0
HheadDescent: -431
HheadDOffset: 0
OS2SubXSize: 1434
OS2SubYSize: 1331
OS2SubXOff: 0
OS2SubYOff: 283
OS2SupXSize: 1434
OS2SupYSize: 1331
OS2SupXOff: 0
OS2SupYOff: 977
OS2StrikeYSize: 102
OS2StrikeYPos: 530
OS2CapHeight: 1000
OS2XHeight: 1000
OS2Vendor: 'HL  '
OS2CodePages: 6000019f.dff70000
OS2UnicodeRanges: a00002af.500078fb.00000000.00000000
DEI: 91125
TtTable: prep
PUSHW_1
 10
CALL
SVTCA[x-axis]
PUSHW_3
 3
 10
 12
CALL
SVTCA[x-axis]
PUSHW_8
 12
 57
 47
 36
 26
 16
 0
 18
CALL
SVTCA[y-axis]
PUSHW_8
 10
 57
 47
 36
 26
 16
 0
 18
CALL
PUSHW_8
 11
 29
 24
 18
 13
 8
 0
 18
CALL
SVTCA[y-axis]
PUSHW_3
 13
 2
 17
CALL
PUSHW_1
 9
DUP
RCVT
RDTG
ROUND[Black]
RTG
WCVTP
PUSHW_1
 0
CALL
SVTCA[y-axis]
PUSHW_3
 1
 2
 2
CALL
SVTCA[x-axis]
PUSHW_3
 3
 2
 2
CALL
SVTCA[x-axis]
PUSHW_8
 3
 57
 47
 36
 26
 16
 0
 8
CALL
PUSHW_8
 4
 29
 24
 18
 13
 8
 0
 8
CALL
SVTCA[y-axis]
PUSHW_8
 1
 57
 47
 36
 26
 16
 0
 8
CALL
PUSHW_8
 2
 29
 24
 18
 13
 8
 0
 8
CALL
SVTCA[y-axis]
PUSHW_3
 5
 2
 7
CALL
PUSHW_1
 0
DUP
RCVT
RDTG
ROUND[Black]
RTG
WCVTP
EndTTInstrs
TtTable: fpgm
PUSHW_1
 0
FDEF
MPPEM
PUSHW_1
 9
LT
IF
PUSHB_2
 1
 1
INSTCTRL
EIF
PUSHW_1
 511
SCANCTRL

StartChar: exclam
Encoding: 33 33 4
Width: 400
GlyphClass: 2
Flags: W
LayerCount: 2
Fore
SplineSet
0 1000 m 1,0,-1
 200 1000 l 1,1,-1
 200 403 l 1,2,-1
 0 403 l 1,3,-1
 0 1000 l 1,0,-1
0 201 m 1,4,-1
 200 201 l 1,5,-1
 200 0 l 1,6,-1
 0 0 l 1,7,-1
 0 201 l 1,4,-1
EndSplineSet
Validated: 1
EndChar

StartChar: quotedbl
Encoding: 34 34 5
Width: 798
GlyphClass: 2
Flags: W
LayerCount: 2
Fore
SplineSet
200 1000 m 1,0,-1
 0 1000 l 1,1,-1
 0 1400 l 1,2,-1
 200 1400 l 1,3,-1
 200 1000 l 1,0,-1
400 1400 m 1,4,-1
 600 1400 l 1,5,-1
 600 1000 l 1,6,-1
 400 1000 l 1,7,-1
 400 1400 l 1,4,-1
EndSplineSet
Validated: 1
EndChar

StartChar: numbersign
Encoding: 35 35 6
Width: 1201
GlyphClass: 2
Flags: W
LayerCount: 2
Fore
SplineSet
200 1000 m 1,0,-1
 400 1000 l 1,1,-1
 400 800 l 1,2,-1
 600 800 l 1,3,-1
 600 1000 l 1,4,-1
 800 1000 l 1,5,-1
 800 800 l 1,6,-1
 1000 800 l 1,7,-1
 1000 600 l 1,8,-1
 800 600 l 1,9,-1
 800 400 l 1,10,-1
 1000 400 l 1,11,-1
 1000 200 l 1,12,-1
 800 200 l 1,13,-1
 800 0 l 1,14,-1
 600 0 l 1,15,-1
 600 200 l 1,16,-1
 400 200 l 1,17,-1
 400 0 l 1,18,-1
 200 0 l 1,19,-1
 200 200 l 1,20,-1
 0 200 l 1,21,-1
 0 400 l 1,22,-1
 200 400 l 1,23,-1
 200 600 l 1,24,-1
 0 600 l 1,25,-1
 0 800 l 1,26,-1
 200 800 l 1,27,-1
 200 1000 l 1,0,-1
400 600 m 1,28,-1
 400 400 l 1,29,-1
 600 400 l 1,30,-1
 600 600 l 1,31,-1
 400 600 l 1,28,-1
EndSplineSet
Validated: 1
EndChar

StartChar: dollar
Encoding: 36 36 7
Width: 1205
GlyphClass: 2
Flags: W
LayerCount: 2
Fore
SplineSet
400 1200 m 1,0,-1
 600 1200 l 1,1,-1
 600 998 l 1,2,-1
 1000 998 l 1,3,-1
 1000 796 l 1,4,-1
 200 796 l 1,5,-1
 200 594 l 1,6,-1
 1000 594 l 1,7,-1
 1000 -11 l 1,8,-1
 600 -11 l 1,9,-1
 600 -200 l 1,10,-1
 400 -200 l 1,11,-1
 400 -11 l 1,12,-1
 0 -11 l 1,13,-1
 0 190 l 1,14,-1
 800 190 l 1,15,-1
 800 392 l 1,16,-1
 0 392 l 1,17,-1
 0 998 l 1,18,-1
 400 998 l 1,19,-1
 400 1200 l 1,0,-1
EndSplineSet
Validated: 1
EndChar

StartChar: percent
Encoding: 37 37 8
Width: 1201
GlyphClass: 2
Flags: W
LayerCount: 2
Fore
SplineSet
400 600 m 1,0,-1
 0 600 l 1,1,-1
 0 1000 l 1,2,-1
 400 1000 l 1,3,-1
 400 600 l 1,0,-1
800 1000 m 1,4,-1
 1000 1000 l 1,5,-1
 1000 800 l 1,6,-1
 800 800 l 1,7,-1
 800 1000 l 1,4,-1
600 800 m 1,8,-1
 800 800 l 1,9,-1
 800 600 l 1,10,-1
 600 600 l 1,11,-1
 600 800 l 1,8,-1
400 600 m 1,12,-1
 600 600 l 1,13,-1
 600 400 l 1,14,-1
 400 400 l 1,15,-1
 400 600 l 1,12,-1
200 400 m 1,16,-1
 400 400 l 1,17,-1
 400 200 l 1,18,-1
 200 200 l 1,19,-1
 200 400 l 1,16,-1
600 400 m 1,20,-1
 1000 400 l 1,21,-1
 1000 0 l 1,22,-1
 600 0 l 1,23,-1
 600 400 l 1,20,-1
200 200 m 1,24,-1
 200 0 l 1,25,-1
 0 0 l 1,26,-1
 0 200 l 1,27,-1
 200 200 l 1,24,-1
EndSplineSet
Validated: 5
EndChar

StartChar: ampersand
Encoding: 38 38 9
Width: 1201
GlyphClass: 2
Flags: W
LayerCount: 2
Fore
SplineSet
400 1200 m 1,0,-1
 600 1200 l 1,1,-1
 600 1000 l 1,2,-1
 1000 1000 l 1,3,-1
 1000 800 l 1,4,-1
 200 800 l 1,5,-1
 200 600 l 1,6,-1
 1000 600 l 1,7,-1
 1000 400 l 1,8,-1
 200 400 l 1,9,-1
 200 200 l 1,10,-1
 1000 200 l 1,11,-1
 1000 0 l 1,12,-1
 600 0 l 1,13,-1
 600 -200 l 1,14,-1
 400 -200 l 1,15,-1
 400 0 l 1,16,-1
 0 0 l 1,17,-1
 0 1000 l 1,18,-1
 400 1000 l 1,19,-1
 400 1200 l 1,0,-1
EndSplineSet
Validated: 1
EndChar

StartChar: quotesingle
Encoding: 39 39 10
Width: 400
GlyphClass: 2
Flags: W
LayerCount: 2
Fore
SplineSet
200 1000 m 1,0,-1
 0 1000 l 1,1,-1
 0 1400 l 1,2,-1
 200 1400 l 1,3,-1
 200 1000 l 1,0,-1
EndSplineSet
Validated: 1
EndChar

StartChar: parenleft
Encoding: 40 40 11
Width: 601
GlyphClass: 2
Flags: W
LayerCount: 2
Fore
SplineSet
200 1000 m 1,0,-1
 400 1000 l 1,1,-1
 400 800 l 1,2,-1
 200 800 l 1,3,-1
 200 1000 l 1,0,-1
200 800 m 1,4,-1
 200 200 l 1,5,-1
 0 200 l 1,6,-1
 0 800 l 1,7,-1
 200 800 l 1,4,-1
200 200 m 1,8,-1
 400 200 l 1,9,-1
 400 0 l 1,10,-1
 200 0 l 1,11,-1
 200 200 l 1,8,-1
EndSplineSet
Validated: 5
EndChar

StartChar: parenright
Encoding: 41 41 12
Width: 601
GlyphClass: 2
Flags: W
LayerCount: 2
Fore
SplineSet
200 800 m 1,0,-1
 0 800 l 1,1,-1
 0 1000 l 1,2,-1
 200 1000 l 1,3,-1
 200 800 l 1,0,-1
200 800 m 1,4,-1
 400 800 l 1,5,-1
 400 200 l 1,6,-1
 200 200 l 1,7,-1
 200 800 l 1,4,-1
200 200 m 1,8,-1
 200 0 l 1,9,-1
 0 0 l 1,10,-1
 0 200 l 1,11,-1
 200 200 l 1,8,-1
EndSplineSet
Validated: 5
EndChar

StartChar: asterisk
Encoding: 42 42 13
Width: 1201
GlyphClass: 2
Flags: W
LayerCount: 2
Fore
SplineSet
200 800 m 1,0,-1
 200 600 l 1,1,-1
 0 600 l 1,2,-1
 0 800 l 1,3,-1
 200 800 l 1,0,-1
400 800 m 1,4,-1
 600 800 l 1,5,-1
 600 600 l 1,6,-1
 800 600 l 1,7,-1
 800 400 l 1,8,-1
 600 400 l 1,9,-1
 600 200 l 1,10,-1
 400 200 l 1,11,-1
 400 400 l 1,12,-1
 200 400 l 1,13,-1
 200 600 l 1,14,-1
 400 600 l 1,15,-1
 400 800 l 1,4,-1
800 800 m 1,16,-1
 1000 800 l 1,17,-1
 1000 600 l 1,18,-1
 800 600 l 1,19,-1
 800 800 l 1,16,-1
200 400 m 1,20,-1
 200 200 l 1,21,-1
 0 200 l 1,22,-1
 0 400 l 1,23,-1
 200 400 l 1,20,-1
800 400 m 1,24,-1
 1000 400 l 1,25,-1
 1000 200 l 1,26,-1
 800 200 l 1,27,-1
 800 400 l 1,24,-1
EndSplineSet
Validated: 5
EndChar

StartChar: plus
Encoding: 43 43 14
Width: 1196
GlyphClass: 2
Flags: W
LayerCount: 2
Fore
SplineSet
400 1000 m 1,0,-1
 600 1000 l 1,1,-1
 600 600 l 1,2,-1
 1000 600 l 1,3,-1
 1000 400 l 1,4,-1
 600 400 l 1,5,-1
 600 0 l 1,6,-1
 400 0 l 1,7,-1
 400 400 l 1,8,-1
 0 400 l 1,9,-1
 0 600 l 1,10,-1
 400 600 l 1,11,-1
 400 1000 l 1,0,-1
EndSplineSet
Validated: 1
EndChar

StartChar: comma
Encoding: 44 44 15
Width: 400
GlyphClass: 2
Flags: W
LayerCount: 2
Fore
SplineSet
200 -200 m 1,0,-1
 0 -200 l 1,1,-1
 0 200 l 1,2,-1
 200 200 l 1,3,-1
 200 -200 l 1,0,-1
EndSplineSet
Validated: 1
EndChar

StartChar: hyphen
Encoding: 45 45 16
AltUni2: 0000ad.ffffffff.0
Width: 1098
GlyphClass: 2
Flags: W
LayerCount: 2
Fore
SplineSet
200 600 m 5,0,-1
 800 600 l 5,1,-1
 800 400 l 5,2,-1
 200 400 l 5,3,-1
 200 600 l 5,0,-1
EndSplineSet
Validated: 1
EndChar

StartChar: period
Encoding: 46 46 17
Width: 402
GlyphClass: 2
Flags: W
LayerCount: 2
Fore
SplineSet
2 0 m 1,0,-1
 2 200 l 1,1,-1
 202 200 l 1,2,-1
 202 0 l 1,3,-1
 2 0 l 1,0,-1
EndSplineSet
Validated: 1
EndChar

StartChar: slash
Encoding: 47 47 18
Width: 1201
GlyphClass: 2
Flags: W
LayerCount: 2
Fore
SplineSet
800 1000 m 1,0,-1
 1000 1000 l 1,1,-1
 1000 800 l 1,2,-1
 800 800 l 1,3,-1
 800 1000 l 1,0,-1
600 800 m 1,4,-1
 800 800 l 1,5,-1
 800 600 l 1,6,-1
 600 600 l 1,7,-1
 600 800 l 1,4,-1
400 600 m 1,8,-1
 600 600 l 1,9,-1
 600 400 l 1,10,-1
 400 400 l 1,11,-1
 400 600 l 1,8,-1
200 400 m 1,12,-1
 400 400 l 1,13,-1
 400 200 l 1,14,-1
 200 200 l 1,15,-1
 200 400 l 1,12,-1
200 200 m 1,16,-1
 200 0 l 1,17,-1
 0 0 l 1,18,-1
 0 200 l 1,19,-1
 200 200 l 1,16,-1
EndSplineSet
Validated: 5
EndChar

StartChar: zero
Encoding: 48 48 19
Width: 1203
GlyphClass: 2
Flags: W
LayerCount: 2
Fore
SplineSet
0 0 m 1,0,-1
 0 1000 l 1,1,-1
 200 1000 l 1,2,-1
 200 0 l 1,3,-1
 0 0 l 1,0,-1
800 0 m 1,4,-1
 800 1000 l 1,5,-1
 1000 1000 l 1,6,-1
 1000 0 l 1,7,-1
 800 0 l 1,4,-1
1000 0 m 1,8,-1
 0 0 l 1,9,-1
 0 200 l 1,10,-1
 1000 200 l 1,11,-1
 1000 0 l 1,8,-1
1000 800 m 1,12,-1
 0 800 l 1,13,-1
 0 1000 l 1,14,-1
 1000 1000 l 1,15,-1
 1000 800 l 1,12,-1
EndSplineSet
Validated: 5
EndChar

StartChar: one
Encoding: 49 49 20
Width: 601
GlyphClass: 2
Flags: W
LayerCount: 2
Fore
SplineSet
0 800 m 1,0,-1
 0 1000 l 1,1,-1
 400 1000 l 1,2,-1
 400 0 l 1,3,-1
 200 0 l 1,4,-1
 200 800 l 1,5,-1
 0 800 l 1,0,-1
EndSplineSet
Validated: 1
EndChar

StartChar: two
Encoding: 50 50 21
Width: 1201
GlyphClass: 2
Flags: W
LayerCount: 2
Fore
SplineSet
0 800 m 1,0,-1
 0 1000 l 1,1,-1
 1000 1000 l 1,2,-1
 1000 400 l 1,3,-1
 200 400 l 1,4,-1
 200 200 l 1,5,-1
 1000 200 l 1,6,-1
 1000 0 l 1,7,-1
 0 0 l 1,8,-1
 0 600 l 1,9,-1
 800 600 l 1,10,-1
 800 800 l 1,11,-1
 0 800 l 1,0,-1
EndSplineSet
Validated: 1
EndChar

StartChar: three
Encoding: 51 51 22
Width: 1201
GlyphClass: 2
Flags: W
LayerCount: 2
Fore
SplineSet
0 800 m 1,0,-1
 0 1000 l 1,1,-1
 1000 1000 l 1,2,-1
 1000 0 l 1,3,-1
 0 0 l 1,4,-1
 0 200 l 1,5,-1
 800 200 l 1,6,-1
 800 400 l 1,7,-1
 400 400 l 1,8,-1
 400 600 l 1,9,-1
 800 600 l 1,10,-1
 800 800 l 1,11,-1
 0 800 l 1,0,-1
EndSplineSet
Validated: 1
EndChar

StartChar: four
Encoding: 52 52 23
Width: 1201
GlyphClass: 2
Flags: W
LayerCount: 2
Fore
SplineSet
200 600 m 1,0,-1
 800 600 l 1,1,-1
 800 1000 l 1,2,-1
 1000 1000 l 1,3,-1
 1000 0 l 1,4,-1
 800 0 l 1,5,-1
 800 400 l 1,6,-1
 0 400 l 1,7,-1
 0 1000 l 1,8,-1
 200 1000 l 1,9,-1
 200 600 l 1,0,-1
EndSplineSet
Validated: 1
EndChar

StartChar: five
Encoding: 53 53 24
Width: 1201
GlyphClass: 2
Flags: W
LayerCount: 2
Fore
SplineSet
200 800 m 1,0,-1
 200 600 l 1,1,-1
 1000 600 l 1,2,-1
 1000 0 l 1,3,-1
 0 0 l 1,4,-1
 0 200 l 1,5,-1
 800 200 l 1,6,-1
 800 400 l 1,7,-1
 0 400 l 1,8,-1
 0 1000 l 1,9,-1
 1000 1000 l 1,10,-1
 1000 800 l 1,11,-1
 200 800 l 1,0,-1
EndSplineSet
Validated: 1
EndChar

StartChar: six
Encoding: 54 54 25
Width: 1201
GlyphClass: 2
Flags: W
LayerCount: 2
Fore
SplineSet
200 800 m 1,0,-1
 200 600 l 1,1,-1
 1000 600 l 1,2,-1
 1000 0 l 1,3,-1
 0 0 l 1,4,-1
 0 1000 l 1,5,-1
 1000 1000 l 1,6,-1
 1000 800 l 1,7,-1
 200 800 l 1,0,-1
200 400 m 1,8,-1
 200 200 l 1,9,-1
 800 200 l 1,10,-1
 800 400 l 1,11,-1
 200 400 l 1,8,-1
EndSplineSet
Validated: 1
EndChar

StartChar: seven
Encoding: 55 55 26
Width: 1201
GlyphClass: 2
Flags: W
LayerCount: 2
Fore
SplineSet
0 800 m 1,0,-1
 0 1000 l 1,1,-1
 1000 1000 l 1,2,-1
 1000 0 l 1,3,-1
 800 0 l 1,4,-1
 800 800 l 1,5,-1
 0 800 l 1,0,-1
EndSplineSet
Validated: 1
EndChar

StartChar: eight
Encoding: 56 56 27
Width: 1201
GlyphClass: 2
Flags: W
LayerCount: 2
Fore
SplineSet
13 1000 m 1,0,-1
 987 1000 l 1,1,-1
 1000 987 l 1,2,-1
 1000 13 l 1,3,-1
 987 0 l 1,4,-1
 13 0 l 1,5,-1
 0 13 l 1,6,-1
 0 987 l 1,7,-1
 13 1000 l 1,0,-1
200 800 m 1,8,-1
 200 600 l 1,9,-1
 800 600 l 1,10,-1
 800 800 l 1,11,-1
 200 800 l 1,8,-1
200 400 m 1,12,-1
 200 200 l 1,13,-1
 800 200 l 1,14,-1
 800 400 l 1,15,-1
 200 400 l 1,12,-1
EndSplineSet
Validated: 1
EndChar

StartChar: nine
Encoding: 57 57 28
Width: 1201
GlyphClass: 2
Flags: W
LayerCount: 2
Fore
SplineSet
200 800 m 1,0,-1
 200 600 l 1,1,-1
 800 600 l 1,2,-1
 800 800 l 1,3,-1
 200 800 l 1,0,-1
0 400 m 1,4,-1
 0 1000 l 1,5,-1
 1000 1000 l 1,6,-1
 1000 0 l 1,7,-1
 800 0 l 1,8,-1
 800 400 l 1,9,-1
 0 400 l 1,4,-1
EndSplineSet
Validated: 1
EndChar

StartChar: colon
Encoding: 58 58 29
Width: 396
GlyphClass: 2
Flags: W
LayerCount: 2
Fore
SplineSet
0 1000 m 1,0,-1
 200 1000 l 1,1,-1
 200 800 l 1,2,-1
 0 800 l 1,3,-1
 0 1000 l 1,0,-1
0 200 m 1,4,-1
 200 200 l 1,5,-1
 200 0 l 1,6,-1
 0 0 l 1,7,-1
 0 200 l 1,4,-1
EndSplineSet
Validated: 1
EndChar

StartChar: semicolon
Encoding: 59 59 30
AltUni2: 00037e.ffffffff.0
Width: 400
GlyphClass: 2
Flags: W
LayerCount: 2
Fore
SplineSet
0 1000 m 1,0,-1
 200 1000 l 1,1,-1
 200 800 l 1,2,-1
 0 800 l 1,3,-1
 0 1000 l 1,0,-1
0 200 m 1,4,-1
 200 200 l 1,5,-1
 200 -200 l 1,6,-1
 0 -200 l 1,7,-1
 0 200 l 1,4,-1
EndSplineSet
Validated: 1
EndChar

StartChar: less
Encoding: 60 60 31
Width: 798
GlyphClass: 2
Flags: W
LayerCount: 2
Fore
SplineSet
400 1000 m 1,0,-1
 600 1000 l 1,1,-1
 600 800 l 1,2,-1
 400 800 l 1,3,-1
 400 1000 l 1,0,-1
200 800 m 1,4,-1
 400 800 l 1,5,-1
 400 600 l 1,6,-1
 200 600 l 1,7,-1
 200 800 l 1,4,-1
200 600 m 1,8,-1
 200 400 l 1,9,-1
 0 400 l 1,10,-1
 0 600 l 1,11,-1
 200 600 l 1,8,-1
200 400 m 1,12,-1
 400 400 l 1,13,-1
 400 200 l 1,14,-1
 200 200 l 1,15,-1
 200 400 l 1,12,-1
400 200 m 1,16,-1
 600 200 l 1,17,-1
 600 0 l 1,18,-1
 400 0 l 1,19,-1
 400 200 l 1,16,-1
EndSplineSet
Validated: 5
EndChar

StartChar: equal
Encoding: 61 61 32
Width: 1196
GlyphClass: 2
Flags: W
LayerCount: 2
Fore
SplineSet
1000 800 m 1,0,-1
 1000 600 l 1,1,-1
 0 600 l 1,2,-1
 0 800 l 1,3,-1
 1000 800 l 1,0,-1
1000 400 m 1,4,-1
 1000 200 l 1,5,-1
 0 200 l 1,6,-1
 0 400 l 1,7,-1
 1000 400 l 1,4,-1
EndSplineSet
Validated: 1
EndChar

StartChar: greater
Encoding: 62 62 33
Width: 794
GlyphClass: 2
Flags: W
LayerCount: 2
Fore
SplineSet
200 800 m 1,0,-1
 0 800 l 1,1,-1
 0 1000 l 1,2,-1
 200 1000 l 1,3,-1
 200 800 l 1,0,-1
200 800 m 1,4,-1
 400 800 l 1,5,-1
 400 600 l 1,6,-1
 200 600 l 1,7,-1
 200 800 l 1,4,-1
400 600 m 1,8,-1
 600 600 l 1,9,-1
 600 400 l 1,10,-1
 400 400 l 1,11,-1
 400 600 l 1,8,-1
200 400 m 1,12,-1
 400 400 l 1,13,-1
 400 200 l 1,14,-1
 200 200 l 1,15,-1
 200 400 l 1,12,-1
200 200 m 1,16,-1
 200 0 l 1,17,-1
 0 0 l 1,18,-1
 0 200 l 1,19,-1
 200 200 l 1,16,-1
EndSplineSet
Validated: 5
EndChar

StartChar: question
Encoding: 63 63 34
Width: 1201
GlyphClass: 2
Flags: W
LayerCount: 2
Fore
SplineSet
0 800 m 1,0,-1
 0 1000 l 1,1,-1
 1000 1000 l 1,2,-1
 1000 400 l 1,3,-1
 400 400 l 1,4,-1
 400 600 l 1,5,-1
 800 600 l 1,6,-1
 800 800 l 1,7,-1
 0 800 l 1,0,-1
400 200 m 1,8,-1
 600 200 l 1,9,-1
 600 0 l 1,10,-1
 400 0 l 1,11,-1
 400 200 l 1,8,-1
EndSplineSet
Validated: 1
EndChar

StartChar: at
Encoding: 64 64 35
Width: 1201
GlyphClass: 2
Flags: W
LayerCount: 2
Fore
SplineSet
200 800 m 1,0,-1
 200 0 l 1,1,-1
 0 0 l 1,2,-1
 0 1000 l 1,3,-1
 1000 1000 l 1,4,-1
 1000 0 l 1,5,-1
 400 0 l 1,6,-1
 400 600 l 1,7,-1
 800 600 l 1,8,-1
 800 800 l 1,9,-1
 200 800 l 1,0,-1
600 400 m 1,10,-1
 600 200 l 1,11,-1
 800 200 l 1,12,-1
 800 400 l 1,13,-1
 600 400 l 1,10,-1
EndSplineSet
Validated: 1
EndChar

StartChar: A
Encoding: 65 65 36
Width: 1202
GlyphClass: 2
Flags: W
LayerCount: 2
Fore
SplineSet
201 797 m 5,0,-1
 201 601 l 5,1,-1
 799 601 l 5,2,-1
 799 797 l 5,3,-1
 201 797 l 5,0,-1
201 392 m 5,4,-1
 201 0 l 5,5,-1
 0 0 l 5,6,-1
 0 1000 l 5,7,-1
 1000 1000 l 5,8,-1
 1000 0 l 5,9,-1
 799 0 l 5,10,-1
 799 392 l 5,11,-1
 201 392 l 5,4,-1
EndSplineSet
Validated: 1
EndChar

StartChar: B
Encoding: 66 66 37
Width: 1201
GlyphClass: 2
Flags: W
LayerCount: 2
Fore
SplineSet
800 800 m 5,0,-1
 200 800 l 5,1,-1
 200 600 l 5,2,-1
 800 600 l 5,3,-1
 800 800 l 5,4,-1
 1000 800 l 5,5,-1
 1000 200 l 5,6,-1
 800 200 l 5,7,-1
 800 400 l 5,8,-1
 200 400 l 5,9,-1
 200 200 l 5,10,-1
 800 200 l 5,11,-1
 800 0 l 5,12,-1
 0 0 l 5,13,-1
 0 1000 l 5,14,-1
 800 1000 l 5,15,-1
 800 800 l 5,0,-1
EndSplineSet
Validated: 5
EndChar

StartChar: C
Encoding: 67 67 38
Width: 1200
GlyphClass: 2
Flags: W
LayerCount: 2
Fore
SplineSet
200 800 m 1,0,-1
 200 200 l 1,1,-1
 1000 200 l 1,2,-1
 1000 0 l 1,3,-1
 0 0 l 1,4,-1
 0 1000 l 1,5,-1
 1000 1000 l 1,6,-1
 1000 800 l 1,7,-1
 200 800 l 1,0,-1
EndSplineSet
Validated: 1
EndChar

StartChar: D
Encoding: 68 68 39
Width: 1202
GlyphClass: 2
Flags: W
LayerCount: 2
Fore
SplineSet
800 800 m 1,0,-1
 200 800 l 1,1,-1
 200 200 l 1,2,-1
 800 200 l 1,3,-1
 800 0 l 1,4,-1
 0 0 l 1,5,-1
 0 1000 l 1,6,-1
 800 1000 l 1,7,-1
 800 800 l 1,0,-1
800 800 m 1,8,-1
 1000 800 l 1,9,-1
 1000 200 l 1,10,-1
 800 200 l 1,11,-1
 800 800 l 1,8,-1
EndSplineSet
Validated: 5
EndChar

StartChar: E
Encoding: 69 69 40
Width: 1198
GlyphClass: 2
Flags: W
LayerCount: 2
Fore
SplineSet
1000 800 m 1,0,-1
 195 800 l 1,1,-1
 195 600 l 1,2,-1
 597 600 l 1,3,-1
 597 400 l 1,4,-1
 195 400 l 1,5,-1
 195 200 l 1,6,-1
 1000 200 l 1,7,-1
 1000 0 l 1,8,-1
 0 0 l 1,9,-1
 0 1000 l 1,10,-1
 1000 1000 l 1,11,-1
 1000 800 l 1,0,-1
EndSplineSet
Validated: 1
EndChar

StartChar: F
Encoding: 70 70 41
Width: 1201
GlyphClass: 2
Flags: W
LayerCount: 2
Fore
SplineSet
200 800 m 1,0,-1
 200 600 l 1,1,-1
 600 600 l 1,2,-1
 600 400 l 1,3,-1
 200 400 l 1,4,-1
 200 0 l 1,5,-1
 0 0 l 1,6,-1
 0 1000 l 1,7,-1
 1000 1000 l 1,8,-1
 1000 800 l 1,9,-1
 200 800 l 1,0,-1
EndSplineSet
Validated: 1
EndChar

StartChar: G
Encoding: 71 71 42
Width: 1201
GlyphClass: 2
Flags: W
LayerCount: 2
Fore
SplineSet
200 800 m 1,0,-1
 200 200 l 1,1,-1
 800 200 l 1,2,-1
 800 400 l 1,3,-1
 400 400 l 1,4,-1
 400 600 l 1,5,-1
 1000 600 l 1,6,-1
 1000 0 l 1,7,-1
 0 0 l 1,8,-1
 0 1000 l 1,9,-1
 1000 1000 l 1,10,-1
 1000 800 l 1,11,-1
 200 800 l 1,0,-1
EndSplineSet
Validated: 1
EndChar

StartChar: H
Encoding: 72 72 43
Width: 1200
GlyphClass: 2
Flags: W
LayerCount: 2
Fore
SplineSet
200 600 m 1,0,-1
 800 600 l 1,1,-1
 800 1000 l 1,2,-1
 1000 1000 l 1,3,-1
 1000 0 l 1,4,-1
 800 0 l 1,5,-1
 800 400 l 1,6,-1
 200 400 l 1,7,-1
 200 0 l 1,8,-1
 0 0 l 1,9,-1
 0 1000 l 1,10,-1
 200 1000 l 1,11,-1
 200 600 l 1,0,-1
EndSplineSet
Validated: 1
EndChar

StartChar: I
Encoding: 73 73 44
Width: 1196
GlyphClass: 2
Flags: W
LayerCount: 2
Fore
SplineSet
0 800 m 1,0,-1
 0 1000 l 1,1,-1
 1000 1000 l 1,2,-1
 1000 800 l 1,3,-1
 600 800 l 1,4,-1
 600 200 l 1,5,-1
 1000 200 l 1,6,-1
 1000 0 l 1,7,-1
 0 0 l 1,8,-1
 0 200 l 1,9,-1
 400 200 l 1,10,-1
 400 800 l 1,11,-1
 0 800 l 1,0,-1
EndSplineSet
Validated: 1
EndChar

StartChar: J
Encoding: 74 74 45
Width: 1201
GlyphClass: 2
Flags: W
LayerCount: 2
Fore
SplineSet
800 1000 m 1,0,-1
 1000 1000 l 1,1,-1
 1000 0 l 1,2,-1
 0 0 l 1,3,-1
 0 400 l 1,4,-1
 200 400 l 1,5,-1
 200 200 l 1,6,-1
 800 200 l 1,7,-1
 800 1000 l 1,0,-1
EndSplineSet
Validated: 1
EndChar

StartChar: K
Encoding: 75 75 46
Width: 1193
GlyphClass: 2
Flags: W
LayerCount: 2
Fore
SplineSet
200 600 m 1,0,-1
 600 600 l 1,1,-1
 600 400 l 1,2,-1
 200 400 l 1,3,-1
 200 0 l 1,4,-1
 0 0 l 1,5,-1
 0 1000 l 1,6,-1
 200 1000 l 1,7,-1
 200 600 l 1,0,-1
800 1000 m 1,8,-1
 1000 1000 l 1,9,-1
 1000 800 l 1,10,-1
 800 800 l 1,11,-1
 800 1000 l 1,8,-1
600 800 m 1,12,-1
 800 800 l 1,13,-1
 800 600 l 1,14,-1
 600 600 l 1,15,-1
 600 800 l 1,12,-1
600 400 m 1,16,-1
 800 400 l 1,17,-1
 800 200 l 1,18,-1
 600 200 l 1,19,-1
 600 400 l 1,16,-1
800 200 m 1,20,-1
 1000 200 l 1,21,-1
 1000 0 l 1,22,-1
 800 0 l 1,23,-1
 800 200 l 1,20,-1
EndSplineSet
Validated: 5
EndChar

StartChar: L
Encoding: 76 76 47
Width: 1201
GlyphClass: 2
Flags: W
LayerCount: 2
Fore
SplineSet
200 200 m 1,0,-1
 1000 200 l 1,1,-1
 1000 0 l 1,2,-1
 0 0 l 1,3,-1
 0 1000 l 1,4,-1
 200 1000 l 1,5,-1
 200 200 l 1,0,-1
EndSplineSet
Validated: 1
EndChar

StartChar: M
Encoding: 77 77 48
Width: 1200
GlyphClass: 2
Flags: W
LayerCount: 2
Fore
SplineSet
200 800 m 1,0,-1
 400 800 l 1,1,-1
 400 600 l 1,2,-1
 200 600 l 1,3,-1
 200 0 l 1,4,-1
 0 0 l 1,5,-1
 0 1000 l 1,6,-1
 200 1000 l 1,7,-1
 200 800 l 1,0,-1
800 1000 m 1,8,-1
 1000 1000 l 1,9,-1
 1000 0 l 1,10,-1
 800 0 l 1,11,-1
 800 600 l 1,12,-1
 600 600 l 1,13,-1
 600 800 l 1,14,-1
 800 800 l 1,15,-1
 800 1000 l 1,8,-1
400 600 m 1,16,-1
 600 600 l 1,17,-1
 600 400 l 1,18,-1
 400 400 l 1,19,-1
 400 600 l 1,16,-1
EndSplineSet
Validated: 5
EndChar

StartChar: N
Encoding: 78 78 49
Width: 1201
GlyphClass: 2
Flags: W
LayerCount: 2
Fore
SplineSet
200 800 m 5,0,-1
 400 800 l 5,1,-1
 400 600 l 5,2,-1
 200 600 l 5,3,-1
 200 0 l 5,4,-1
 0 0 l 5,5,-1
 0 1000 l 5,6,-1
 200 1000 l 5,7,-1
 200 800 l 5,0,-1
800 1000 m 5,8,-1
 1000 1000 l 5,9,-1
 1000 0 l 5,10,-1
 800 0 l 5,11,-1
 800 200 l 5,12,-1
 600 200 l 5,13,-1
 600 400 l 5,14,-1
 800 400 l 5,15,-1
 800 1000 l 5,8,-1
400 600 m 5,16,-1
 600 600 l 5,17,-1
 600 400 l 5,18,-1
 400 400 l 5,19,-1
 400 600 l 5,16,-1
EndSplineSet
Validated: 5
EndChar

StartChar: O
Encoding: 79 79 50
Width: 1203
GlyphClass: 2
Flags: W
LayerCount: 2
Fore
SplineSet
0 0 m 1,0,-1
 0 1000 l 1,1,-1
 200 1000 l 1,2,-1
 200 0 l 1,3,-1
 0 0 l 1,0,-1
800 0 m 1,4,-1
 800 1000 l 1,5,-1
 1000 1000 l 1,6,-1
 1000 0 l 1,7,-1
 800 0 l 1,4,-1
1000 0 m 1,8,-1
 0 0 l 1,9,-1
 0 200 l 1,10,-1
 1000 200 l 1,11,-1
 1000 0 l 1,8,-1
1000 800 m 1,12,-1
 0 800 l 1,13,-1
 0 1000 l 1,14,-1
 1000 1000 l 1,15,-1
 1000 800 l 1,12,-1
EndSplineSet
Validated: 5
EndChar

StartChar: P
Encoding: 80 80 51
Width: 1200
GlyphClass: 2
Flags: W
LayerCount: 2
Fore
SplineSet
200 800 m 1,0,-1
 200 600 l 1,1,-1
 800 600 l 1,2,-1
 800 800 l 1,3,-1
 200 800 l 1,0,-1
200 400 m 1,4,-1
 200 0 l 1,5,-1
 0 0 l 1,6,-1
 0 1000 l 1,7,-1
 1000 1000 l 1,8,-1
 1000 400 l 1,9,-1
 200 400 l 1,4,-1
EndSplineSet
Validated: 1
EndChar

StartChar: Q
Encoding: 81 81 52
Width: 1201
GlyphClass: 2
Flags: W
LayerCount: 2
Fore
SplineSet
13 1000 m 1,0,-1
 987 1000 l 1,1,-1
 1000 987 l 1,2,-1
 1000 13 l 1,3,-1
 987 0 l 1,4,-1
 13 0 l 1,5,-1
 0 13 l 1,6,-1
 0 987 l 1,7,-1
 13 1000 l 1,0,-1
200 800 m 1,8,-1
 200 200 l 1,9,-1
 400 200 l 1,10,-1
 400 387 l 1,11,-1
 413 400 l 1,12,-1
 587 400 l 1,13,-1
 600 387 l 1,14,-1
 600 200 l 1,15,-1
 800 200 l 1,16,-1
 800 800 l 1,17,-1
 200 800 l 1,8,-1
EndSplineSet
Validated: 1
EndChar

StartChar: R
Encoding: 82 82 53
Width: 1201
GlyphClass: 2
Flags: W
LayerCount: 2
Fore
SplineSet
800 800 m 1,0,-1
 200 800 l 1,1,-1
 200 600 l 1,2,-1
 800 600 l 1,3,-1
 800 800 l 1,4,-1
 1000 800 l 1,5,-1
 1000 400 l 1,6,-1
 800 400 l 1,7,-1
 800 200 l 1,8,-1
 600 200 l 1,9,-1
 600 400 l 1,10,-1
 200 400 l 1,11,-1
 200 0 l 1,12,-1
 0 0 l 1,13,-1
 0 1000 l 1,14,-1
 800 1000 l 1,15,-1
 800 800 l 1,0,-1
800 200 m 1,16,-1
 1000 200 l 1,17,-1
 1000 0 l 1,18,-1
 800 0 l 1,19,-1
 800 200 l 1,16,-1
EndSplineSet
Validated: 5
EndChar

StartChar: S
Encoding: 83 83 54
Width: 1201
GlyphClass: 2
Flags: W
LayerCount: 2
Fore
SplineSet
200 800 m 1,0,-1
 200 600 l 1,1,-1
 1000 600 l 1,2,-1
 1000 0 l 1,3,-1
 0 0 l 1,4,-1
 0 200 l 1,5,-1
 800 200 l 1,6,-1
 800 400 l 1,7,-1
 0 400 l 1,8,-1
 0 1000 l 1,9,-1
 1000 1000 l 1,10,-1
 1000 800 l 1,11,-1
 200 800 l 1,0,-1
EndSplineSet
Validated: 1
EndChar

StartChar: T
Encoding: 84 84 55
Width: 1200
GlyphClass: 2
Flags: W
LayerCount: 2
Fore
SplineSet
0 800 m 1,0,-1
 0 1000 l 1,1,-1
 1000 1000 l 1,2,-1
 1000 800 l 1,3,-1
 600 800 l 1,4,-1
 600 0 l 1,5,-1
 400 0 l 1,6,-1
 400 800 l 1,7,-1
 0 800 l 1,0,-1
EndSplineSet
Validated: 1
EndChar

StartChar: U
Encoding: 85 85 56
Width: 1201
GlyphClass: 2
Flags: W
LayerCount: 2
Fore
SplineSet
200 200 m 1,0,-1
 800 200 l 1,1,-1
 800 1000 l 1,2,-1
 1000 1000 l 1,3,-1
 1000 0 l 1,4,-1
 0 0 l 1,5,-1
 0 1000 l 1,6,-1
 200 1000 l 1,7,-1
 200 200 l 1,0,-1
EndSplineSet
Validated: 1
EndChar

StartChar: V
Encoding: 86 86 57
Width: 1205
GlyphClass: 2
Flags: W
LayerCount: 2
Fore
SplineSet
200 400 m 1,0,-1
 0 400 l 1,1,-1
 0 1000 l 1,2,-1
 200 1000 l 1,3,-1
 200 400 l 1,0,-1
800 1000 m 1,4,-1
 1000 1000 l 1,5,-1
 1000 400 l 1,6,-1
 800 400 l 1,7,-1
 800 1000 l 1,4,-1
200 400 m 1,8,-1
 400 400 l 1,9,-1
 400 200 l 1,10,-1
 200 200 l 1,11,-1
 200 400 l 1,8,-1
600 400 m 1,12,-1
 800 400 l 1,13,-1
 800 200 l 1,14,-1
 600 200 l 1,15,-1
 600 400 l 1,12,-1
400 200 m 1,16,-1
 600 200 l 1,17,-1
 600 0 l 1,18,-1
 400 0 l 1,19,-1
 400 200 l 1,16,-1
EndSplineSet
Validated: 5
EndChar

StartChar: W
Encoding: 87 87 58
Width: 1201
GlyphClass: 2
Flags: W
LayerCount: 2
Fore
SplineSet
200 400 m 1,0,-1
 400 400 l 1,1,-1
 400 200 l 1,2,-1
 200 200 l 1,3,-1
 200 0 l 1,4,-1
 0 0 l 1,5,-1
 0 1000 l 1,6,-1
 200 1000 l 1,7,-1
 200 400 l 1,0,-1
800 1000 m 1,8,-1
 1000 1000 l 1,9,-1
 1000 0 l 1,10,-1
 800 0 l 1,11,-1
 800 200 l 1,12,-1
 600 200 l 1,13,-1
 600 400 l 1,14,-1
 800 400 l 1,15,-1
 800 1000 l 1,8,-1
400 600 m 1,16,-1
 600 600 l 1,17,-1
 600 400 l 1,18,-1
 400 400 l 1,19,-1
 400 600 l 1,16,-1
EndSplineSet
Validated: 5
EndChar

StartChar: X
Encoding: 88 88 59
Width: 1200
GlyphClass: 2
Flags: W
LayerCount: 2
Fore
SplineSet
200 800 m 1,0,-1
 0 800 l 1,1,-1
 0 1000 l 1,2,-1
 200 1000 l 1,3,-1
 200 800 l 1,0,-1
800 1000 m 1,4,-1
 1000 1000 l 1,5,-1
 1000 800 l 1,6,-1
 800 800 l 1,7,-1
 800 1000 l 1,4,-1
200 800 m 1,8,-1
 400 800 l 1,9,-1
 400 600 l 1,10,-1
 200 600 l 1,11,-1
 200 800 l 1,8,-1
600 800 m 1,12,-1
 800 800 l 1,13,-1
 800 600 l 1,14,-1
 600 600 l 1,15,-1
 600 800 l 1,12,-1
400 600 m 1,16,-1
 600 600 l 1,17,-1
 600 400 l 1,18,-1
 400 400 l 1,19,-1
 400 600 l 1,16,-1
200 400 m 1,20,-1
 400 400 l 1,21,-1
 400 200 l 1,22,-1
 200 200 l 1,23,-1
 200 400 l 1,20,-1
600 400 m 1,24,-1
 800 400 l 1,25,-1
 800 200 l 1,26,-1
 600 200 l 1,27,-1
 600 400 l 1,24,-1
200 200 m 1,28,-1
 200 0 l 1,29,-1
 0 0 l 1,30,-1
 0 200 l 1,31,-1
 200 200 l 1,28,-1
800 200 m 1,32,-1
 1000 200 l 1,33,-1
 1000 0 l 1,34,-1
 800 0 l 1,35,-1
 800 200 l 1,32,-1
EndSplineSet
Validated: 5
EndChar

StartChar: Y
Encoding: 89 89 60
Width: 1201
GlyphClass: 2
Flags: W
LayerCount: 2
Fore
SplineSet
200 600 m 1,0,-1
 800 600 l 1,1,-1
 800 1000 l 1,2,-1
 1000 1000 l 1,3,-1
 1000 400 l 1,4,-1
 600 400 l 1,5,-1
 600 0 l 1,6,-1
 400 0 l 1,7,-1
 400 400 l 1,8,-1
 0 400 l 1,9,-1
 0 1000 l 1,10,-1
 200 1000 l 1,11,-1
 200 600 l 1,0,-1
EndSplineSet
Validated: 1
EndChar

StartChar: Z
Encoding: 90 90 61
Width: 1201
GlyphClass: 2
Flags: W
LayerCount: 2
Fore
SplineSet
0 800 m 1,0,-1
 0 1000 l 1,1,-1
 1000 1000 l 1,2,-1
 1000 800 l 1,3,-1
 800 800 l 1,4,-1
 800 600 l 1,5,-1
 600 600 l 1,6,-1
 600 800 l 1,7,-1
 0 800 l 1,0,-1
400 600 m 1,8,-1
 600 600 l 1,9,-1
 600 400 l 1,10,-1
 400 400 l 1,11,-1
 400 600 l 1,8,-1
200 400 m 1,12,-1
 400 400 l 1,13,-1
 400 200 l 1,14,-1
 1000 200 l 1,15,-1
 1000 0 l 1,16,-1
 0 0 l 1,17,-1
 0 200 l 1,18,-1
 200 200 l 1,19,-1
 200 400 l 1,12,-1
EndSplineSet
Validated: 5
EndChar

StartChar: bracketleft
Encoding: 91 91 62
Width: 601
GlyphClass: 2
Flags: W
LayerCount: 2
Fore
SplineSet
400 800 m 1,0,-1
 200 800 l 1,1,-1
 200 200 l 1,2,-1
 400 200 l 1,3,-1
 400 0 l 1,4,-1
 0 0 l 1,5,-1
 0 1000 l 1,6,-1
 400 1000 l 1,7,-1
 400 800 l 1,0,-1
EndSplineSet
Validated: 1
EndChar

StartChar: backslash
Encoding: 92 92 63
Width: 1201
GlyphClass: 2
Flags: W
LayerCount: 2
Fore
SplineSet
200 800 m 1,0,-1
 0 800 l 1,1,-1
 0 1000 l 1,2,-1
 200 1000 l 1,3,-1
 200 800 l 1,0,-1
200 800 m 1,4,-1
 400 800 l 1,5,-1
 400 600 l 1,6,-1
 200 600 l 1,7,-1
 200 800 l 1,4,-1
400 600 m 1,8,-1
 600 600 l 1,9,-1
 600 400 l 1,10,-1
 400 400 l 1,11,-1
 400 600 l 1,8,-1
600 400 m 1,12,-1
 800 400 l 1,13,-1
 800 200 l 1,14,-1
 600 200 l 1,15,-1
 600 400 l 1,12,-1
800 200 m 1,16,-1
 1000 200 l 1,17,-1
 1000 0 l 1,18,-1
 800 0 l 1,19,-1
 800 200 l 1,16,-1
EndSplineSet
Validated: 5
EndChar

StartChar: bracketright
Encoding: 93 93 64
Width: 601
GlyphClass: 2
Flags: W
LayerCount: 2
Fore
SplineSet
0 1000 m 1,0,-1
 400 1000 l 1,1,-1
 400 0 l 1,2,-1
 0 0 l 1,3,-1
 0 200 l 1,4,-1
 200 200 l 1,5,-1
 200 800 l 1,6,-1
 0 800 l 1,7,-1
 0 1000 l 1,0,-1
EndSplineSet
Validated: 1
EndChar

StartChar: asciicircum
Encoding: 94 94 65
Width: 798
GlyphClass: 2
Flags: W
LayerCount: 2
Fore
SplineSet
200 1000 m 1,0,-1
 400 1000 l 1,1,-1
 400 800 l 1,2,-1
 200 800 l 1,3,-1
 200 1000 l 1,0,-1
0 800 m 1,4,-1
 200 800 l 1,5,-1
 200 600 l 1,6,-1
 0 600 l 1,7,-1
 0 800 l 1,4,-1
400 800 m 1,8,-1
 600 800 l 1,9,-1
 600 600 l 1,10,-1
 400 600 l 1,11,-1
 400 800 l 1,8,-1
EndSplineSet
Validated: 5
EndChar

StartChar: underscore
Encoding: 95 95 66
Width: 1022
GlyphClass: 2
Flags: W
LayerCount: 2
Fore
SplineSet
-179 0 m 1,0,-1
 -179 200 l 1,1,-1
 821 200 l 1,2,-1
 821 0 l 1,3,-1
 -179 0 l 1,0,-1
EndSplineSet
Validated: 1
EndChar

StartChar: grave
Encoding: 96 96 67
Width: 400
GlyphClass: 2
Flags: W
LayerCount: 2
Fore
SplineSet
200 600 m 1,0,-1
 0 600 l 1,1,-1
 0 1000 l 1,2,-1
 200 1000 l 1,3,-1
 200 600 l 1,0,-1
EndSplineSet
Validated: 1
EndChar

StartChar: a
Encoding: 97 97 68
Width: 1202
GlyphClass: 2
Flags: W
LayerCount: 2
Fore
SplineSet
201 797 m 1,0,-1
 201 601 l 1,1,-1
 799 601 l 1,2,-1
 799 797 l 1,3,-1
 201 797 l 1,0,-1
201 392 m 1,4,-1
 201 0 l 1,5,-1
 0 0 l 1,6,-1
 0 1000 l 1,7,-1
 1000 1000 l 1,8,-1
 1000 0 l 1,9,-1
 799 0 l 1,10,-1
 799 392 l 1,11,-1
 201 392 l 1,4,-1
EndSplineSet
Validated: 1
EndChar

StartChar: b
Encoding: 98 98 69
Width: 1198
GlyphClass: 2
Flags: W
LayerCount: 2
Fore
SplineSet
205 793 m 1,0,-1
 205 600 l 1,1,-1
 795 600 l 1,2,-1
 795 793 l 1,3,-1
 205 793 l 1,0,-1
987 593 m 1,4,-1
 801 593 l 1,5,-1
 801 400 l 1,6,-1
 1000 400 l 1,7,-1
 1000 0 l 1,8,-1
 0 0 l 1,9,-1
 0 1000 l 1,10,-1
 1000 1000 l 1,11,-1
 1000 607 l 1,12,-1
 987 593 l 1,4,-1
205 393 m 1,13,-1
 205 200 l 1,14,-1
 795 200 l 1,15,-1
 795 393 l 1,16,-1
 205 393 l 1,13,-1
EndSplineSet
Validated: 1
EndChar

StartChar: c
Encoding: 99 99 70
Width: 1200
GlyphClass: 2
Flags: W
LayerCount: 2
Fore
SplineSet
200 800 m 1,0,-1
 200 200 l 1,1,-1
 1000 200 l 1,2,-1
 1000 0 l 1,3,-1
 0 0 l 1,4,-1
 0 1000 l 1,5,-1
 1000 1000 l 1,6,-1
 1000 800 l 1,7,-1
 200 800 l 1,0,-1
EndSplineSet
Validated: 1
EndChar

StartChar: d
Encoding: 100 100 71
Width: 1202
GlyphClass: 2
Flags: W
LayerCount: 2
Fore
SplineSet
800 800 m 1,0,-1
 200 800 l 1,1,-1
 200 200 l 1,2,-1
 800 200 l 1,3,-1
 800 0 l 1,4,-1
 0 0 l 1,5,-1
 0 1000 l 1,6,-1
 800 1000 l 1,7,-1
 800 800 l 1,0,-1
800 800 m 1,8,-1
 1000 800 l 1,9,-1
 1000 200 l 1,10,-1
 800 200 l 1,11,-1
 800 800 l 1,8,-1
EndSplineSet
Validated: 5
EndChar

StartChar: e
Encoding: 101 101 72
Width: 1198
GlyphClass: 2
Flags: W
LayerCount: 2
Fore
SplineSet
1000 800 m 1,0,-1
 195 800 l 1,1,-1
 195 600 l 1,2,-1
 597 600 l 1,3,-1
 597 400 l 1,4,-1
 195 400 l 1,5,-1
 195 200 l 1,6,-1
 1000 200 l 1,7,-1
 1000 0 l 1,8,-1
 0 0 l 1,9,-1
 0 1000 l 1,10,-1
 1000 1000 l 1,11,-1
 1000 800 l 1,0,-1
EndSplineSet
Validated: 1
EndChar

StartChar: f
Encoding: 102 102 73
Width: 1201
GlyphClass: 2
Flags: W
LayerCount: 2
Fore
SplineSet
200 800 m 1,0,-1
 200 600 l 1,1,-1
 600 600 l 1,2,-1
 600 400 l 1,3,-1
 200 400 l 1,4,-1
 200 0 l 1,5,-1
 0 0 l 1,6,-1
 0 1000 l 1,7,-1
 1000 1000 l 1,8,-1
 1000 800 l 1,9,-1
 200 800 l 1,0,-1
EndSplineSet
Validated: 1
EndChar

StartChar: g
Encoding: 103 103 74
Width: 1201
GlyphClass: 2
Flags: W
LayerCount: 2
Fore
SplineSet
200 800 m 1,0,-1
 200 200 l 1,1,-1
 800 200 l 1,2,-1
 800 400 l 1,3,-1
 400 400 l 1,4,-1
 400 600 l 1,5,-1
 1000 600 l 1,6,-1
 1000 0 l 1,7,-1
 0 0 l 1,8,-1
 0 1000 l 1,9,-1
 1000 1000 l 1,10,-1
 1000 800 l 1,11,-1
 200 800 l 1,0,-1
EndSplineSet
Validated: 1
EndChar

StartChar: h
Encoding: 104 104 75
Width: 1200
GlyphClass: 2
Flags: W
LayerCount: 2
Fore
SplineSet
200 600 m 1,0,-1
 800 600 l 1,1,-1
 800 1000 l 1,2,-1
 1000 1000 l 1,3,-1
 1000 0 l 1,4,-1
 800 0 l 1,5,-1
 800 400 l 1,6,-1
 200 400 l 1,7,-1
 200 0 l 1,8,-1
 0 0 l 1,9,-1
 0 1000 l 1,10,-1
 200 1000 l 1,11,-1
 200 600 l 1,0,-1
EndSplineSet
Validated: 1
EndChar

StartChar: i
Encoding: 105 105 76
Width: 400
GlyphClass: 2
Flags: W
LayerCount: 2
Fore
SplineSet
0 1000 m 1,0,-1
 200 1000 l 1,1,-1
 200 0 l 1,2,-1
 0 0 l 1,3,-1
 0 1000 l 1,0,-1
EndSplineSet
Validated: 1
EndChar

StartChar: j
Encoding: 106 106 77
Width: 1201
GlyphClass: 2
Flags: W
LayerCount: 2
Fore
SplineSet
800 1000 m 1,0,-1
 1000 1000 l 1,1,-1
 1000 0 l 1,2,-1
 0 0 l 1,3,-1
 0 400 l 1,4,-1
 200 400 l 1,5,-1
 200 200 l 1,6,-1
 800 200 l 1,7,-1
 800 1000 l 1,0,-1
EndSplineSet
Validated: 1
EndChar

StartChar: k
Encoding: 107 107 78
Width: 1193
GlyphClass: 2
Flags: W
LayerCount: 2
Fore
SplineSet
200 600 m 1,0,-1
 600 600 l 1,1,-1
 600 400 l 1,2,-1
 200 400 l 1,3,-1
 200 0 l 1,4,-1
 0 0 l 1,5,-1
 0 1000 l 1,6,-1
 200 1000 l 1,7,-1
 200 600 l 1,0,-1
800 1000 m 1,8,-1
 1000 1000 l 1,9,-1
 1000 800 l 1,10,-1
 800 800 l 1,11,-1
 800 1000 l 1,8,-1
600 800 m 1,12,-1
 800 800 l 1,13,-1
 800 600 l 1,14,-1
 600 600 l 1,15,-1
 600 800 l 1,12,-1
600 400 m 1,16,-1
 800 400 l 1,17,-1
 800 200 l 1,18,-1
 600 200 l 1,19,-1
 600 400 l 1,16,-1
800 200 m 1,20,-1
 1000 200 l 1,21,-1
 1000 0 l 1,22,-1
 800 0 l 1,23,-1
 800 200 l 1,20,-1
EndSplineSet
Validated: 5
EndChar

StartChar: l
Encoding: 108 108 79
Width: 1201
GlyphClass: 2
Flags: W
LayerCount: 2
Fore
SplineSet
200 200 m 1,0,-1
 1000 200 l 1,1,-1
 1000 0 l 1,2,-1
 0 0 l 1,3,-1
 0 1000 l 1,4,-1
 200 1000 l 1,5,-1
 200 200 l 1,0,-1
EndSplineSet
Validated: 1
EndChar

StartChar: m
Encoding: 109 109 80
Width: 1201
GlyphClass: 2
Flags: W
LayerCount: 2
Fore
SplineSet
200 800 m 1,0,-1
 200 0 l 1,1,-1
 0 0 l 1,2,-1
 0 1000 l 1,3,-1
 1000 1000 l 1,4,-1
 1000 0 l 1,5,-1
 800 0 l 1,6,-1
 800 800 l 1,7,-1
 600 800 l 1,8,-1
 600 0 l 1,9,-1
 400 0 l 1,10,-1
 400 800 l 1,11,-1
 200 800 l 1,0,-1
EndSplineSet
Validated: 1
EndChar

StartChar: n
Encoding: 110 110 81
Width: 1200
GlyphClass: 2
Flags: W
LayerCount: 2
Fore
SplineSet
200 800 m 1,0,-1
 200 0 l 1,1,-1
 0 0 l 1,2,-1
 0 1000 l 1,3,-1
 1000 1000 l 1,4,-1
 1000 0 l 1,5,-1
 800 0 l 1,6,-1
 800 800 l 1,7,-1
 200 800 l 1,0,-1
EndSplineSet
Validated: 1
EndChar

StartChar: o
Encoding: 111 111 82
Width: 1203
GlyphClass: 2
Flags: W
LayerCount: 2
Fore
SplineSet
0 0 m 1,0,-1
 0 1000 l 1,1,-1
 200 1000 l 1,2,-1
 200 0 l 1,3,-1
 0 0 l 1,0,-1
800 0 m 1,4,-1
 800 1000 l 1,5,-1
 1000 1000 l 1,6,-1
 1000 0 l 1,7,-1
 800 0 l 1,4,-1
1000 0 m 1,8,-1
 0 0 l 1,9,-1
 0 200 l 1,10,-1
 1000 200 l 1,11,-1
 1000 0 l 1,8,-1
1000 800 m 1,12,-1
 0 800 l 1,13,-1
 0 1000 l 1,14,-1
 1000 1000 l 1,15,-1
 1000 800 l 1,12,-1
EndSplineSet
Validated: 5
EndChar

StartChar: p
Encoding: 112 112 83
Width: 1200
GlyphClass: 2
Flags: W
LayerCount: 2
Fore
SplineSet
200 800 m 1,0,-1
 200 600 l 1,1,-1
 800 600 l 1,2,-1
 800 800 l 1,3,-1
 200 800 l 1,0,-1
200 400 m 1,4,-1
 200 0 l 1,5,-1
 0 0 l 1,6,-1
 0 1000 l 1,7,-1
 1000 1000 l 1,8,-1
 1000 400 l 1,9,-1
 200 400 l 1,4,-1
EndSplineSet
Validated: 1
EndChar

StartChar: q
Encoding: 113 113 84
Width: 1201
GlyphClass: 2
Flags: W
LayerCount: 2
Fore
SplineSet
13 1000 m 1,0,-1
 987 1000 l 1,1,-1
 1000 987 l 1,2,-1
 1000 13 l 1,3,-1
 987 0 l 1,4,-1
 13 0 l 1,5,-1
 0 13 l 1,6,-1
 0 987 l 1,7,-1
 13 1000 l 1,0,-1
200 800 m 1,8,-1
 200 200 l 1,9,-1
 400 200 l 1,10,-1
 400 387 l 1,11,-1
 413 400 l 1,12,-1
 587 400 l 1,13,-1
 600 387 l 1,14,-1
 600 200 l 1,15,-1
 800 200 l 1,16,-1
 800 800 l 1,17,-1
 200 800 l 1,8,-1
EndSplineSet
Validated: 1
EndChar

StartChar: r
Encoding: 114 114 85
Width: 1201
GlyphClass: 2
Flags: W
LayerCount: 2
Fore
SplineSet
200 800 m 1,0,-1
 200 600 l 1,1,-1
 800 600 l 1,2,-1
 800 800 l 1,3,-1
 200 800 l 1,0,-1
200 400 m 1,4,-1
 200 0 l 1,5,-1
 0 0 l 1,6,-1
 0 1000 l 1,7,-1
 1000 1000 l 1,8,-1
 1000 400 l 1,9,-1
 800 400 l 1,10,-1
 800 200 l 1,11,-1
 600 200 l 1,12,-1
 600 400 l 1,13,-1
 200 400 l 1,4,-1
800 200 m 1,14,-1
 1000 200 l 1,15,-1
 1000 0 l 1,16,-1
 800 0 l 1,17,-1
 800 200 l 1,14,-1
EndSplineSet
Validated: 5
EndChar

StartChar: s
Encoding: 115 115 86
Width: 1201
GlyphClass: 2
Flags: W
LayerCount: 2
Fore
SplineSet
200 800 m 1,0,-1
 200 600 l 1,1,-1
 1000 600 l 1,2,-1
 1000 0 l 1,3,-1
 0 0 l 1,4,-1
 0 200 l 1,5,-1
 800 200 l 1,6,-1
 800 400 l 1,7,-1
 0 400 l 1,8,-1
 0 1000 l 1,9,-1
 1000 1000 l 1,10,-1
 1000 800 l 1,11,-1
 200 800 l 1,0,-1
EndSplineSet
Validated: 1
EndChar

StartChar: t
Encoding: 116 116 87
Width: 1200
GlyphClass: 2
Flags: W
LayerCount: 2
Fore
SplineSet
0 800 m 1,0,-1
 0 1000 l 1,1,-1
 1000 1000 l 1,2,-1
 1000 800 l 1,3,-1
 600 800 l 1,4,-1
 600 0 l 1,5,-1
 400 0 l 1,6,-1
 400 800 l 1,7,-1
 0 800 l 1,0,-1
EndSplineSet
Validated: 1
EndChar

StartChar: u
Encoding: 117 117 88
Width: 1201
GlyphClass: 2
Flags: W
LayerCount: 2
Fore
SplineSet
200 200 m 1,0,-1
 800 200 l 1,1,-1
 800 1000 l 1,2,-1
 1000 1000 l 1,3,-1
 1000 0 l 1,4,-1
 0 0 l 1,5,-1
 0 1000 l 1,6,-1
 200 1000 l 1,7,-1
 200 200 l 1,0,-1
EndSplineSet
Validated: 1
EndChar

StartChar: v
Encoding: 118 118 89
Width: 1205
GlyphClass: 2
Flags: W
LayerCount: 2
Fore
SplineSet
200 400 m 1,0,-1
 0 400 l 1,1,-1
 0 1000 l 1,2,-1
 200 1000 l 1,3,-1
 200 400 l 1,0,-1
800 1000 m 1,4,-1
 1000 1000 l 1,5,-1
 1000 400 l 1,6,-1
 800 400 l 1,7,-1
 800 1000 l 1,4,-1
200 400 m 1,8,-1
 400 400 l 1,9,-1
 400 200 l 1,10,-1
 200 200 l 1,11,-1
 200 400 l 1,8,-1
600 400 m 1,12,-1
 800 400 l 1,13,-1
 800 200 l 1,14,-1
 600 200 l 1,15,-1
 600 400 l 1,12,-1
400 200 m 1,16,-1
 600 200 l 1,17,-1
 600 0 l 1,18,-1
 400 0 l 1,19,-1
 400 200 l 1,16,-1
EndSplineSet
Validated: 5
EndChar

StartChar: w
Encoding: 119 119 90
Width: 1201
GlyphClass: 2
Flags: W
LayerCount: 2
Fore
SplineSet
200 200 m 1,0,-1
 400 200 l 1,1,-1
 400 1000 l 1,2,-1
 600 1000 l 1,3,-1
 600 200 l 1,4,-1
 800 200 l 1,5,-1
 800 1000 l 1,6,-1
 1000 1000 l 1,7,-1
 1000 0 l 1,8,-1
 0 0 l 1,9,-1
 0 1000 l 1,10,-1
 200 1000 l 1,11,-1
 200 200 l 1,0,-1
EndSplineSet
Validated: 1
EndChar

StartChar: x
Encoding: 120 120 91
Width: 1200
GlyphClass: 2
Flags: W
LayerCount: 2
Fore
SplineSet
200 800 m 1,0,-1
 0 800 l 1,1,-1
 0 1000 l 1,2,-1
 200 1000 l 1,3,-1
 200 800 l 1,0,-1
800 1000 m 1,4,-1
 1000 1000 l 1,5,-1
 1000 800 l 1,6,-1
 800 800 l 1,7,-1
 800 1000 l 1,4,-1
200 800 m 1,8,-1
 400 800 l 1,9,-1
 400 600 l 1,10,-1
 200 600 l 1,11,-1
 200 800 l 1,8,-1
600 800 m 1,12,-1
 800 800 l 1,13,-1
 800 600 l 1,14,-1
 600 600 l 1,15,-1
 600 800 l 1,12,-1
400 600 m 1,16,-1
 600 600 l 1,17,-1
 600 400 l 1,18,-1
 400 400 l 1,19,-1
 400 600 l 1,16,-1
200 400 m 1,20,-1
 400 400 l 1,21,-1
 400 200 l 1,22,-1
 200 200 l 1,23,-1
 200 400 l 1,20,-1
600 400 m 1,24,-1
 800 400 l 1,25,-1
 800 200 l 1,26,-1
 600 200 l 1,27,-1
 600 400 l 1,24,-1
200 200 m 1,28,-1
 200 0 l 1,29,-1
 0 0 l 1,30,-1
 0 200 l 1,31,-1
 200 200 l 1,28,-1
800 200 m 1,32,-1
 1000 200 l 1,33,-1
 1000 0 l 1,34,-1
 800 0 l 1,35,-1
 800 200 l 1,32,-1
EndSplineSet
Validated: 5
EndChar

StartChar: y
Encoding: 121 121 92
Width: 1196
GlyphClass: 2
Flags: W
LayerCount: 2
Fore
SplineSet
200 800 m 5,0,-1
 0 800 l 5,1,-1
 0 1000 l 5,2,-1
 200 1000 l 5,3,-1
 200 800 l 5,0,-1
800 1000 m 5,4,-1
 1000 1000 l 5,5,-1
 1000 800 l 5,6,-1
 800 800 l 5,7,-1
 800 1000 l 5,4,-1
200 800 m 5,8,-1
 400 800 l 5,9,-1
 400 600 l 5,10,-1
 200 600 l 5,11,-1
 200 800 l 5,8,-1
600 800 m 5,12,-1
 800 800 l 5,13,-1
 800 600 l 5,14,-1
 600 600 l 5,15,-1
 600 800 l 5,12,-1
400 600 m 5,16,-1
 600 600 l 5,17,-1
 600 0 l 5,18,-1
 400 0 l 5,19,-1
 400 600 l 5,16,-1
EndSplineSet
Validated: 5
EndChar

StartChar: z
Encoding: 122 122 93
Width: 1201
GlyphClass: 2
Flags: W
LayerCount: 2
Fore
SplineSet
0 800 m 5,0,-1
 0 1000 l 5,1,-1
 1000 1000 l 5,2,-1
 1000 800 l 5,3,-1
 800 800 l 5,4,-1
 800 600 l 5,5,-1
 600 600 l 5,6,-1
 600 800 l 5,7,-1
 0 800 l 5,0,-1
400 600 m 5,8,-1
 600 600 l 5,9,-1
 600 400 l 5,10,-1
 400 400 l 5,11,-1
 400 600 l 5,8,-1
200 400 m 5,12,-1
 400 400 l 5,13,-1
 400 200 l 5,14,-1
 1000 200 l 5,15,-1
 1000 0 l 5,16,-1
 0 0 l 5,17,-1
 0 200 l 5,18,-1
 200 200 l 5,19,-1
 200 400 l 5,12,-1
EndSplineSet
Validated: 5
EndChar

StartChar: braceleft
Encoding: 123 123 94
Width: 798
GlyphClass: 2
Flags: W
LayerCount: 2
Fore
SplineSet
200 1000 m 1,0,-1
 600 1000 l 1,1,-1
 600 800 l 1,2,-1
 400 800 l 1,3,-1
 400 200 l 1,4,-1
 600 200 l 1,5,-1
 600 0 l 1,6,-1
 200 0 l 1,7,-1
 200 400 l 1,8,-1
 0 400 l 1,9,-1
 0 600 l 1,10,-1
 200 600 l 1,11,-1
 200 1000 l 1,0,-1
EndSplineSet
Validated: 1
EndChar

StartChar: bar
Encoding: 124 124 95
Width: 400
GlyphClass: 2
Flags: W
LayerCount: 2
Fore
SplineSet
0 1000 m 1,0,-1
 200 1000 l 1,1,-1
 200 0 l 1,2,-1
 0 0 l 1,3,-1
 0 1000 l 1,0,-1
EndSplineSet
Validated: 1
EndChar

StartChar: braceright
Encoding: 125 125 96
Width: 798
GlyphClass: 2
Flags: W
LayerCount: 2
Fore
SplineSet
0 1000 m 1,0,-1
 400 1000 l 1,1,-1
 400 600 l 1,2,-1
 600 600 l 1,3,-1
 600 400 l 1,4,-1
 400 400 l 1,5,-1
 400 0 l 1,6,-1
 0 0 l 1,7,-1
 0 200 l 1,8,-1
 200 200 l 1,9,-1
 200 800 l 1,10,-1
 0 800 l 1,11,-1
 0 1000 l 1,0,-1
EndSplineSet
Validated: 1
EndChar

StartChar: asciitilde
Encoding: 126 126 97
Width: 1196
GlyphClass: 2
Flags: W
LayerCount: 2
Fore
SplineSet
600 800 m 1,0,-1
 600 400 l 1,1,-1
 800 400 l 1,2,-1
 800 600 l 1,3,-1
 1000 600 l 1,4,-1
 1000 200 l 1,5,-1
 400 200 l 1,6,-1
 400 600 l 1,7,-1
 200 600 l 1,8,-1
 200 400 l 1,9,-1
 0 400 l 1,10,-1
 0 800 l 1,11,-1
 600 800 l 1,0,-1
EndSplineSet
Validated: 1
EndChar

StartChar: exclamdown
Encoding: 161 161 98
Width: 400
GlyphClass: 2
Flags: W
LayerCount: 2
Fore
SplineSet
200 0 m 1,0,-1
 0 0 l 1,1,-1
 0 597 l 1,2,-1
 200 597 l 1,3,-1
 200 0 l 1,0,-1
200 799 m 1,4,-1
 0 799 l 1,5,-1
 0 1000 l 1,6,-1
 200 1000 l 1,7,-1
 200 799 l 1,4,-1
EndSplineSet
Validated: 1
EndChar

StartChar: questiondown
Encoding: 191 191 99
Width: 1201
GlyphClass: 2
Flags: W
LayerCount: 2
Fore
SplineSet
1000 200 m 1,0,-1
 1000 0 l 1,1,-1
 0 0 l 1,2,-1
 0 600 l 1,3,-1
 600 600 l 1,4,-1
 600 400 l 1,5,-1
 200 400 l 1,6,-1
 200 200 l 1,7,-1
 1000 200 l 1,0,-1
600 800 m 1,8,-1
 400 800 l 1,9,-1
 400 1000 l 1,10,-1
 600 1000 l 1,11,-1
 600 800 l 1,8,-1
EndSplineSet
Validated: 1
EndChar

StartChar: Aacute
Encoding: 193 193 101
Width: 1085
GlyphClass: 2
Flags: W
LayerCount: 2
Fore
SplineSet
767 1394 m 1,0,-1
 546 1113 l 1,1,-1
 398 1113 l 1,2,-1
 531 1394 l 1,3,-1
 767 1394 l 1,0,-1
201 797 m 1,4,-1
 201 601 l 1,5,-1
 799 601 l 1,6,-1
 799 797 l 1,7,-1
 201 797 l 1,4,-1
201 392 m 1,8,-1
 201 0 l 1,9,-1
 0 0 l 1,10,-1
 0 1000 l 1,11,-1
 1000 1000 l 1,12,-1
 1000 0 l 1,13,-1
 799 0 l 1,14,-1
 799 392 l 1,15,-1
 201 392 l 1,8,-1
EndSplineSet
Validated: 1
EndChar

StartChar: Acircumflex
Encoding: 194 194 102
Width: 1085
GlyphClass: 2
Flags: W
LayerCount: 2
Fore
SplineSet
821 1076 m 1,0,-1
 617 1076 l 1,1,-1
 508 1246 l 1,2,-1
 393 1076 l 1,3,-1
 189 1076 l 1,4,-1
 406 1357 l 1,5,-1
 596 1357 l 1,6,-1
 821 1076 l 1,0,-1
201 797 m 1,7,-1
 201 601 l 1,8,-1
 799 601 l 1,9,-1
 799 797 l 1,10,-1
 201 797 l 1,7,-1
201 392 m 1,11,-1
 201 0 l 1,12,-1
 0 0 l 1,13,-1
 0 1000 l 1,14,-1
 1000 1000 l 1,15,-1
 1000 0 l 1,16,-1
 799 0 l 1,17,-1
 799 392 l 1,18,-1
 201 392 l 1,11,-1
EndSplineSet
Validated: 1
EndChar

StartChar: Atilde
Encoding: 195 195 103
Width: 1063
GlyphClass: 2
Flags: W
LayerCount: 2
Fore
SplineSet
825 1298 m 1,0,1
 825 1186 825 1186 767.5 1128.5 c 128,-1,2
 710 1071 710 1071 628 1071 c 0,3,4
 582 1071 582 1071 551 1081.5 c 128,-1,5
 520 1092 520 1092 477 1120 c 0,6,7
 406 1165 406 1165 364 1165 c 0,8,9
 281 1165 281 1165 278 1071 c 1,10,-1
 155 1071 l 1,11,12
 155 1182 155 1182 215 1240 c 128,-1,13
 275 1298 275 1298 358 1298 c 0,14,15
 423 1298 423 1298 498.5 1251 c 128,-1,16
 574 1204 574 1204 622 1204 c 0,17,18
 691 1204 691 1204 702 1298 c 1,19,-1
 825 1298 l 1,0,1
201 797 m 1,20,-1
 201 601 l 1,21,-1
 799 601 l 1,22,-1
 799 797 l 1,23,-1
 201 797 l 1,20,-1
201 392 m 1,24,-1
 201 0 l 1,25,-1
 0 0 l 1,26,-1
 0 1000 l 1,27,-1
 1000 1000 l 1,28,-1
 1000 0 l 1,29,-1
 799 0 l 1,30,-1
 799 392 l 1,31,-1
 201 392 l 1,24,-1
EndSplineSet
Validated: 1
EndChar

StartChar: Adieresis
Encoding: 196 196 104
Width: 1100
GlyphClass: 2
Flags: W
LayerCount: 2
Fore
SplineSet
760 1080 m 1,0,-1
 576 1080 l 1,1,-1
 576 1285 l 1,2,-1
 760 1285 l 1,3,-1
 760 1080 l 1,0,-1
390 1080 m 1,4,-1
 205 1080 l 1,5,-1
 205 1285 l 1,6,-1
 390 1285 l 1,7,-1
 390 1080 l 1,4,-1
201 797 m 1,8,-1
 201 601 l 1,9,-1
 799 601 l 1,10,-1
 799 797 l 1,11,-1
 201 797 l 1,8,-1
201 392 m 1,12,-1
 201 0 l 1,13,-1
 0 0 l 1,14,-1
 0 1000 l 1,15,-1
 1000 1000 l 1,16,-1
 1000 0 l 1,17,-1
 799 0 l 1,18,-1
 799 392 l 1,19,-1
 201 392 l 1,12,-1
EndSplineSet
Validated: 1
EndChar

StartChar: Aring
Encoding: 197 197 105
Width: 1142
GlyphClass: 2
Flags: W
LayerCount: 2
Fore
SplineSet
416 1434 m 1,0,-1
 416 1238 l 1,1,-1
 603 1238 l 1,2,-1
 603 1434 l 1,3,-1
 416 1434 l 1,0,-1
708 1138 m 1,4,-1
 308 1138 l 1,5,-1
 308 1538 l 1,6,-1
 708 1538 l 1,7,-1
 708 1138 l 1,4,-1
708 1138 m 1024,8,-1
201 797 m 1,9,-1
 201 601 l 1,10,-1
 799 601 l 1,11,-1
 799 797 l 1,12,-1
 201 797 l 1,9,-1
201 392 m 1,13,-1
 201 0 l 1,14,-1
 0 0 l 1,15,-1
 0 1000 l 1,16,-1
 1000 1000 l 1,17,-1
 1000 0 l 1,18,-1
 799 0 l 1,19,-1
 799 392 l 1,20,-1
 201 392 l 1,13,-1
EndSplineSet
Validated: 1
EndChar

StartChar: Ccedilla
Encoding: 199 199 106
Width: 1200
GlyphClass: 2
Flags: W
LayerCount: 2
Fore
SplineSet
200 800 m 1,0,-1
 200 200 l 1,1,-1
 1000 200 l 1,2,-1
 1000 0 l 1,3,-1
 566 1 l 1,4,-1
 566 -89 l 1,5,-1
 786 -179 l 1,6,-1
 625 -232 l 1,7,-1
 424 -131 l 1,8,-1
 424 -1 l 1,9,-1
 0 0 l 1,10,-1
 0 1000 l 1,11,-1
 1000 1000 l 1,12,-1
 1000 800 l 1,13,-1
 200 800 l 1,0,-1
EndSplineSet
Validated: 1
EndChar

StartChar: Eacute
Encoding: 201 201 108
Width: 1174
GlyphClass: 2
Flags: W
LayerCount: 2
Fore
SplineSet
741 1374 m 1,0,-1
 520 1093 l 1,1,-1
 372 1093 l 1,2,-1
 505 1374 l 1,3,-1
 741 1374 l 1,0,-1
1000 800 m 1,4,-1
 195 800 l 1,5,-1
 195 600 l 1,6,-1
 597 600 l 1,7,-1
 597 400 l 1,8,-1
 195 400 l 1,9,-1
 195 200 l 1,10,-1
 1000 200 l 1,11,-1
 1000 0 l 1,12,-1
 0 0 l 1,13,-1
 0 1000 l 1,14,-1
 1000 1000 l 1,15,-1
 1000 800 l 1,4,-1
EndSplineSet
Validated: 1
EndChar

StartChar: Ecircumflex
Encoding: 202 202 109
Width: 1147
GlyphClass: 2
Flags: W
LayerCount: 2
Fore
SplineSet
809 1070 m 1,0,-1
 605 1070 l 1,1,-1
 496 1240 l 1,2,-1
 381 1070 l 1,3,-1
 177 1070 l 1,4,-1
 394 1351 l 1,5,-1
 584 1351 l 1,6,-1
 809 1070 l 1,0,-1
1000 800 m 1,7,-1
 195 800 l 1,8,-1
 195 600 l 1,9,-1
 597 600 l 1,10,-1
 597 400 l 1,11,-1
 195 400 l 1,12,-1
 195 200 l 1,13,-1
 1000 200 l 1,14,-1
 1000 0 l 1,15,-1
 0 0 l 1,16,-1
 0 1000 l 1,17,-1
 1000 1000 l 1,18,-1
 1000 800 l 1,7,-1
EndSplineSet
Validated: 1
EndChar

StartChar: Edieresis
Encoding: 203 203 110
Width: 1198
GlyphClass: 2
Flags: W
LayerCount: 2
Fore
SplineSet
220 1107 m 1,0,-1
 220 1307 l 1,1,-1
 420 1307 l 1,2,-1
 420 1107 l 1,3,-1
 220 1107 l 1,0,-1
620 1107 m 1,4,-1
 620 1307 l 1,5,-1
 820 1307 l 1,6,-1
 820 1107 l 1,7,-1
 620 1107 l 1,4,-1
1000 800 m 1,8,-1
 195 800 l 1,9,-1
 195 600 l 1,10,-1
 597 600 l 1,11,-1
 597 400 l 1,12,-1
 195 400 l 1,13,-1
 195 200 l 1,14,-1
 1000 200 l 1,15,-1
 1000 0 l 1,16,-1
 0 0 l 1,17,-1
 0 1000 l 1,18,-1
 1000 1000 l 1,19,-1
 1000 800 l 1,8,-1
EndSplineSet
Validated: 1
EndChar

StartChar: Igrave
Encoding: 204 204 111
Width: 705
GlyphClass: 2
Flags: W
LayerCount: 2
Fore
SplineSet
36 1412 m 1,0,-1
 257 1131 l 1,1,-1
 405 1131 l 1,2,-1
 272 1412 l 1,3,-1
 36 1412 l 1,0,-1
415 0 m 1,4,-1
 220 0 l 1,5,-1
 220 998 l 1,6,-1
 415 998 l 1,7,-1
 415 0 l 1,4,-1
EndSplineSet
Validated: 9
EndChar

StartChar: Iacute
Encoding: 205 205 112
Width: 705
GlyphClass: 2
Flags: W
LayerCount: 2
Fore
SplineSet
599 1412 m 5,0,-1
 378 1131 l 5,1,-1
 230 1131 l 5,2,-1
 363 1412 l 5,3,-1
 599 1412 l 5,0,-1
415 0 m 1,4,-1
 220 0 l 1,5,-1
 220 998 l 1,6,-1
 415 998 l 1,7,-1
 415 0 l 1,4,-1
EndSplineSet
Validated: 1
EndChar

StartChar: Icircumflex
Encoding: 206 206 113
Width: 717
GlyphClass: 2
Flags: W
LayerCount: 2
Fore
SplineSet
415 0 m 1,0,-1
 220 0 l 1,1,-1
 220 998 l 1,2,-1
 415 998 l 1,3,-1
 415 0 l 1,0,-1
633 1094 m 1,4,-1
 429 1094 l 1,5,-1
 320 1264 l 1,6,-1
 205 1094 l 1,7,-1
 1 1094 l 1,8,-1
 218 1375 l 1,9,-1
 408 1375 l 1,10,-1
 633 1094 l 1,4,-1
EndSplineSet
Validated: 1
EndChar

StartChar: Idieresis
Encoding: 207 207 114
Width: 682
GlyphClass: 2
Flags: W
LayerCount: 2
Fore
SplineSet
204 1000 m 1,0,-1
 404 1000 l 1,1,-1
 404 0 l 1,2,-1
 204 0 l 1,3,-1
 204 1000 l 1,0,-1
4 1071 m 1,4,-1
 4 1271 l 1,5,-1
 204 1271 l 1,6,-1
 204 1071 l 1,7,-1
 4 1071 l 1,4,-1
404 1071 m 1,8,-1
 404 1271 l 1,9,-1
 604 1271 l 1,10,-1
 604 1071 l 1,11,-1
 404 1071 l 1,8,-1
EndSplineSet
Validated: 1
EndChar

StartChar: Ntilde
Encoding: 209 209 115
Width: 1169
GlyphClass: 2
Flags: W
LayerCount: 2
Fore
SplineSet
793 1298 m 1,0,1
 793 1186 793 1186 735.5 1128.5 c 128,-1,2
 678 1071 678 1071 596 1071 c 0,3,4
 550 1071 550 1071 519 1081.5 c 128,-1,5
 488 1092 488 1092 445 1120 c 0,6,7
 374 1165 374 1165 332 1165 c 0,8,9
 249 1165 249 1165 246 1071 c 1,10,-1
 123 1071 l 1,11,12
 123 1182 123 1182 183 1240 c 128,-1,13
 243 1298 243 1298 326 1298 c 0,14,15
 391 1298 391 1298 466.5 1251 c 128,-1,16
 542 1204 542 1204 590 1204 c 0,17,18
 659 1204 659 1204 670 1298 c 1,19,-1
 793 1298 l 1,0,1
200 800 m 1,20,-1
 400 800 l 1,21,-1
 400 600 l 1,22,-1
 200 600 l 1,23,-1
 200 0 l 1,24,-1
 0 0 l 1,25,-1
 0 1000 l 1,26,-1
 200 1000 l 1,27,-1
 200 800 l 1,20,-1
800 1000 m 1,28,-1
 1000 1000 l 1,29,-1
 1000 0 l 1,30,-1
 800 0 l 1,31,-1
 800 200 l 1,32,-1
 600 200 l 1,33,-1
 600 400 l 1,34,-1
 800 400 l 1,35,-1
 800 1000 l 1,28,-1
400 600 m 1,36,-1
 600 600 l 1,37,-1
 600 400 l 1,38,-1
 400 400 l 1,39,-1
 400 600 l 1,36,-1
EndSplineSet
Validated: 5
EndChar

StartChar: Ograve
Encoding: 210 210 116
Width: 1203
GlyphClass: 2
Flags: W
LayerCount: 2
Fore
SplineSet
7 -15 m 1,0,-1
 7 985 l 1,1,-1
 207 985 l 1,2,-1
 207 -15 l 1,3,-1
 7 -15 l 1,0,-1
800 0 m 1,4,-1
 800 1000 l 1,5,-1
 1000 1000 l 1,6,-1
 1000 0 l 1,7,-1
 800 0 l 1,4,-1
1000 0 m 1,8,-1
 0 0 l 1,9,-1
 0 200 l 1,10,-1
 1000 200 l 1,11,-1
 1000 0 l 1,8,-1
1000 800 m 1,12,-1
 0 800 l 1,13,-1
 0 1000 l 1,14,-1
 1000 1000 l 1,15,-1
 1000 800 l 1,12,-1
397 1187 m 5,16,-1
 397 1387 l 5,17,-1
 597 1387 l 5,18,-1
 597 1187 l 5,19,-1
 397 1187 l 5,16,-1
EndSplineSet
Validated: 5
EndChar

StartChar: Oacute
Encoding: 211 211 117
Width: 1203
GlyphClass: 2
Flags: W
LayerCount: 2
Fore
SplineSet
7 -15 m 1,0,-1
 7 985 l 1,1,-1
 207 985 l 1,2,-1
 207 -15 l 1,3,-1
 7 -15 l 1,0,-1
800 0 m 1,4,-1
 800 1000 l 1,5,-1
 1000 1000 l 1,6,-1
 1000 0 l 1,7,-1
 800 0 l 1,4,-1
1000 0 m 1,8,-1
 0 0 l 1,9,-1
 0 200 l 1,10,-1
 1000 200 l 1,11,-1
 1000 0 l 1,8,-1
1000 800 m 1,12,-1
 0 800 l 1,13,-1
 0 1000 l 1,14,-1
 1000 1000 l 1,15,-1
 1000 800 l 1,12,-1
397 1187 m 1,16,-1
 397 1387 l 1,17,-1
 597 1387 l 1,18,-1
 597 1187 l 1,19,-1
 397 1187 l 1,16,-1
EndSplineSet
Validated: 5
EndChar

StartChar: Ocircumflex
Encoding: 212 212 118
Width: 1209
GlyphClass: 2
Flags: W
LayerCount: 2
Fore
SplineSet
821 1076 m 1,0,-1
 617 1076 l 1,1,-1
 508 1246 l 1,2,-1
 393 1076 l 1,3,-1
 189 1076 l 1,4,-1
 406 1357 l 1,5,-1
 596 1357 l 1,6,-1
 821 1076 l 1,0,-1
0 0 m 1,7,-1
 0 1000 l 1,8,-1
 200 1000 l 1,9,-1
 200 0 l 1,10,-1
 0 0 l 1,7,-1
800 0 m 1,11,-1
 800 1000 l 1,12,-1
 1000 1000 l 1,13,-1
 1000 0 l 1,14,-1
 800 0 l 1,11,-1
1000 0 m 1,15,-1
 0 0 l 1,16,-1
 0 200 l 1,17,-1
 1000 200 l 1,18,-1
 1000 0 l 1,15,-1
1000 800 m 1,19,-1
 0 800 l 1,20,-1
 0 1000 l 1,21,-1
 1000 1000 l 1,22,-1
 1000 800 l 1,19,-1
EndSplineSet
Validated: 5
EndChar

StartChar: Otilde
Encoding: 213 213 119
Width: 1185
GlyphClass: 2
Flags: W
LayerCount: 2
Fore
SplineSet
825 1298 m 1,0,1
 825 1186 825 1186 767.5 1128.5 c 128,-1,2
 710 1071 710 1071 628 1071 c 0,3,4
 582 1071 582 1071 551 1081.5 c 128,-1,5
 520 1092 520 1092 477 1120 c 0,6,7
 406 1165 406 1165 364 1165 c 0,8,9
 281 1165 281 1165 278 1071 c 1,10,-1
 155 1071 l 1,11,12
 155 1182 155 1182 215 1240 c 128,-1,13
 275 1298 275 1298 358 1298 c 0,14,15
 423 1298 423 1298 498.5 1251 c 128,-1,16
 574 1204 574 1204 622 1204 c 0,17,18
 691 1204 691 1204 702 1298 c 1,19,-1
 825 1298 l 1,0,1
0 0 m 1,20,-1
 0 1000 l 1,21,-1
 200 1000 l 1,22,-1
 200 0 l 1,23,-1
 0 0 l 1,20,-1
800 0 m 1,24,-1
 800 1000 l 1,25,-1
 1000 1000 l 1,26,-1
 1000 0 l 1,27,-1
 800 0 l 1,24,-1
1000 0 m 1,28,-1
 0 0 l 1,29,-1
 0 200 l 1,30,-1
 1000 200 l 1,31,-1
 1000 0 l 1,28,-1
1000 800 m 1,32,-1
 0 800 l 1,33,-1
 0 1000 l 1,34,-1
 1000 1000 l 1,35,-1
 1000 800 l 1,32,-1
EndSplineSet
Validated: 5
EndChar

StartChar: Odieresis
Encoding: 214 214 120
Width: 1212
GlyphClass: 2
Flags: W
LayerCount: 2
Fore
SplineSet
772 1081 m 1,0,-1
 588 1081 l 1,1,-1
 588 1286 l 1,2,-1
 772 1286 l 1,3,-1
 772 1081 l 1,0,-1
402 1081 m 1,4,-1
 217 1081 l 1,5,-1
 217 1286 l 1,6,-1
 402 1286 l 1,7,-1
 402 1081 l 1,4,-1
0 0 m 1,8,-1
 0 1000 l 1,9,-1
 200 1000 l 1,10,-1
 200 0 l 1,11,-1
 0 0 l 1,8,-1
800 0 m 1,12,-1
 800 1000 l 1,13,-1
 1000 1000 l 1,14,-1
 1000 0 l 1,15,-1
 800 0 l 1,12,-1
1000 0 m 1,16,-1
 0 0 l 1,17,-1
 0 200 l 1,18,-1
 1000 200 l 1,19,-1
 1000 0 l 1,16,-1
1000 800 m 1,20,-1
 0 800 l 1,21,-1
 0 1000 l 1,22,-1
 1000 1000 l 1,23,-1
 1000 800 l 1,20,-1
EndSplineSet
Validated: 5
EndChar

StartChar: Uacute
Encoding: 218 218 122
Width: 1173
GlyphClass: 2
Flags: W
LayerCount: 2
Fore
SplineSet
741 1374 m 1,0,-1
 520 1093 l 1,1,-1
 372 1093 l 1,2,-1
 505 1374 l 1,3,-1
 741 1374 l 1,0,-1
200 200 m 1,4,-1
 800 200 l 1,5,-1
 800 1000 l 1,6,-1
 1000 1000 l 1,7,-1
 1000 0 l 1,8,-1
 0 0 l 1,9,-1
 0 1000 l 1,10,-1
 200 1000 l 1,11,-1
 200 200 l 1,4,-1
EndSplineSet
Validated: 1
EndChar

StartChar: Ucircumflex
Encoding: 219 219 123
Width: 1119
GlyphClass: 2
Flags: W
LayerCount: 2
Fore
SplineSet
808 1067 m 1,0,-1
 604 1067 l 1,1,-1
 495 1237 l 1,2,-1
 380 1067 l 1,3,-1
 176 1067 l 1,4,-1
 393 1348 l 1,5,-1
 583 1348 l 1,6,-1
 808 1067 l 1,0,-1
200 200 m 1,7,-1
 800 200 l 1,8,-1
 800 1000 l 1,9,-1
 1000 1000 l 1,10,-1
 1000 0 l 1,11,-1
 0 0 l 1,12,-1
 0 1000 l 1,13,-1
 200 1000 l 1,14,-1
 200 200 l 1,7,-1
EndSplineSet
Validated: 1
EndChar

StartChar: Udieresis
Encoding: 220 220 124
Width: 1144
GlyphClass: 2
Flags: W
LayerCount: 2
Fore
SplineSet
771 1095 m 1,0,-1
 587 1095 l 1,1,-1
 587 1300 l 1,2,-1
 771 1300 l 1,3,-1
 771 1095 l 1,0,-1
401 1095 m 1,4,-1
 216 1095 l 1,5,-1
 216 1300 l 1,6,-1
 401 1300 l 1,7,-1
 401 1095 l 1,4,-1
200 200 m 1,8,-1
 800 200 l 1,9,-1
 800 1000 l 1,10,-1
 1000 1000 l 1,11,-1
 1000 0 l 1,12,-1
 0 0 l 1,13,-1
 0 1000 l 1,14,-1
 200 1000 l 1,15,-1
 200 200 l 1,8,-1
EndSplineSet
Validated: 1
EndChar

StartChar: Yacute
Encoding: 221 221 125
Width: 1201
GlyphClass: 2
Flags: W
LayerCount: 2
Fore
SplineSet
771 1376 m 1,0,-1
 550 1095 l 1,1,-1
 402 1095 l 1,2,-1
 535 1376 l 1,3,-1
 771 1376 l 1,0,-1
200 600 m 1,4,-1
 800 600 l 1,5,-1
 800 1000 l 1,6,-1
 1000 1000 l 1,7,-1
 1000 400 l 1,8,-1
 600 400 l 1,9,-1
 600 0 l 1,10,-1
 400 0 l 1,11,-1
 400 400 l 1,12,-1
 0 400 l 1,13,-1
 0 1000 l 1,14,-1
 200 1000 l 1,15,-1
 200 600 l 1,4,-1
EndSplineSet
Validated: 1
EndChar

StartChar: germandbls
Encoding: 223 223 126
Width: 1393
GlyphClass: 2
Flags: W
LayerCount: 2
Fore
SplineSet
147 0 m 1,0,-1
 147 999 l 2,1,2
 147 1176 147 1176 191 1280 c 128,-1,3
 235 1384 235 1384 342 1437.5 c 128,-1,4
 449 1491 449 1491 573 1491 c 0,5,6
 740 1491 740 1491 842 1407 c 128,-1,7
 944 1323 944 1323 944 1204 c 0,8,9
 944 1106 944 1106 891 1012 c 0,10,11
 876 990 876 990 834.5 913.5 c 128,-1,12
 793 837 793 837 793 797 c 0,13,14
 793 751 793 751 826.5 718.5 c 128,-1,15
 860 686 860 686 975 610 c 0,16,17
 1101 527 1101 527 1141.5 460 c 128,-1,18
 1182 393 1182 393 1182 311 c 0,19,20
 1182 173 1182 173 1078.5 74 c 128,-1,21
 975 -25 975 -25 817 -25 c 0,22,23
 573 -25 573 -25 453 215 c 1,24,-1
 608 289 l 1,25,26
 697 123 697 123 813 123 c 0,27,28
 888 123 888 123 942.5 175 c 128,-1,29
 997 227 997 227 997 297 c 0,30,31
 997 353 997 353 970.5 386 c 128,-1,32
 944 419 944 419 870 470 c 0,33,34
 722 571 722 571 665 637 c 128,-1,35
 608 703 608 703 608 768 c 0,36,37
 608 814 608 814 624.5 854.5 c 128,-1,38
 641 895 641 895 682 969 c 0,39,40
 743 1077 743 1077 756.5 1117 c 128,-1,41
 770 1157 770 1157 770 1186 c 0,42,43
 770 1253 770 1253 712.5 1298 c 128,-1,44
 655 1343 655 1343 569 1343 c 0,45,46
 455 1343 455 1343 391.5 1269.5 c 128,-1,47
 328 1196 328 1196 328 991 c 2,48,-1
 328 0 l 1,49,-1
 147 0 l 1,0,-1
EndSplineSet
Validated: 1
EndChar

StartChar: aacute
Encoding: 225 225 128
Width: 1085
GlyphClass: 2
Flags: W
LayerCount: 2
Fore
SplineSet
767 1394 m 5,0,-1
 546 1113 l 5,1,-1
 398 1113 l 5,2,-1
 531 1394 l 5,3,-1
 767 1394 l 5,0,-1
201 797 m 5,4,-1
 201 601 l 5,5,-1
 799 601 l 5,6,-1
 799 797 l 5,7,-1
 201 797 l 5,4,-1
201 392 m 5,8,-1
 201 0 l 5,9,-1
 0 0 l 5,10,-1
 0 1000 l 5,11,-1
 1000 1000 l 5,12,-1
 1000 0 l 5,13,-1
 799 0 l 5,14,-1
 799 392 l 5,15,-1
 201 392 l 5,8,-1
EndSplineSet
Validated: 1
EndChar

StartChar: acircumflex
Encoding: 226 226 129
Width: 1085
GlyphClass: 2
Flags: W
LayerCount: 2
Fore
SplineSet
821 1076 m 1,0,-1
 617 1076 l 1,1,-1
 508 1246 l 1,2,-1
 393 1076 l 1,3,-1
 189 1076 l 1,4,-1
 406 1357 l 1,5,-1
 596 1357 l 1,6,-1
 821 1076 l 1,0,-1
201 797 m 1,7,-1
 201 601 l 1,8,-1
 799 601 l 1,9,-1
 799 797 l 1,10,-1
 201 797 l 1,7,-1
201 392 m 1,11,-1
 201 0 l 1,12,-1
 0 0 l 1,13,-1
 0 1000 l 1,14,-1
 1000 1000 l 1,15,-1
 1000 0 l 1,16,-1
 799 0 l 1,17,-1
 799 392 l 1,18,-1
 201 392 l 1,11,-1
EndSplineSet
Validated: 1
EndChar

StartChar: atilde
Encoding: 227 227 130
Width: 1063
GlyphClass: 2
Flags: W
LayerCount: 2
Fore
SplineSet
825 1298 m 1,0,1
 825 1186 825 1186 767.5 1128.5 c 128,-1,2
 710 1071 710 1071 628 1071 c 0,3,4
 582 1071 582 1071 551 1081.5 c 128,-1,5
 520 1092 520 1092 477 1120 c 0,6,7
 406 1165 406 1165 364 1165 c 0,8,9
 281 1165 281 1165 278 1071 c 1,10,-1
 155 1071 l 1,11,12
 155 1182 155 1182 215 1240 c 128,-1,13
 275 1298 275 1298 358 1298 c 0,14,15
 423 1298 423 1298 498.5 1251 c 128,-1,16
 574 1204 574 1204 622 1204 c 0,17,18
 691 1204 691 1204 702 1298 c 1,19,-1
 825 1298 l 1,0,1
201 797 m 1,20,-1
 201 601 l 1,21,-1
 799 601 l 1,22,-1
 799 797 l 1,23,-1
 201 797 l 1,20,-1
201 392 m 1,24,-1
 201 0 l 1,25,-1
 0 0 l 1,26,-1
 0 1000 l 1,27,-1
 1000 1000 l 1,28,-1
 1000 0 l 1,29,-1
 799 0 l 1,30,-1
 799 392 l 1,31,-1
 201 392 l 1,24,-1
EndSplineSet
Validated: 1
EndChar

StartChar: adieresis
Encoding: 228 228 131
Width: 1142
GlyphClass: 2
Flags: W
LayerCount: 2
Fore
SplineSet
760 1080 m 1,0,-1
 576 1080 l 1,1,-1
 576 1285 l 1,2,-1
 760 1285 l 1,3,-1
 760 1080 l 1,0,-1
390 1080 m 1,4,-1
 205 1080 l 1,5,-1
 205 1285 l 1,6,-1
 390 1285 l 1,7,-1
 390 1080 l 1,4,-1
201 797 m 1,8,-1
 201 601 l 1,9,-1
 799 601 l 1,10,-1
 799 797 l 1,11,-1
 201 797 l 1,8,-1
201 392 m 1,12,-1
 201 0 l 1,13,-1
 0 0 l 1,14,-1
 0 1000 l 1,15,-1
 1000 1000 l 1,16,-1
 1000 0 l 1,17,-1
 799 0 l 1,18,-1
 799 392 l 1,19,-1
 201 392 l 1,12,-1
EndSplineSet
Validated: 1
EndChar

StartChar: aring
Encoding: 229 229 132
Width: 1142
GlyphClass: 2
Flags: W
LayerCount: 2
Fore
SplineSet
416 1434 m 1,0,-1
 416 1238 l 1,1,-1
 603 1238 l 1,2,-1
 603 1434 l 1,3,-1
 416 1434 l 1,0,-1
708 1138 m 1,4,-1
 308 1138 l 1,5,-1
 308 1538 l 1,6,-1
 708 1538 l 1,7,-1
 708 1138 l 1,4,-1
708 1138 m 1024,8,-1
201 797 m 1,9,-1
 201 601 l 1,10,-1
 799 601 l 1,11,-1
 799 797 l 1,12,-1
 201 797 l 1,9,-1
201 392 m 1,13,-1
 201 0 l 1,14,-1
 0 0 l 1,15,-1
 0 1000 l 1,16,-1
 1000 1000 l 1,17,-1
 1000 0 l 1,18,-1
 799 0 l 1,19,-1
 799 392 l 1,20,-1
 201 392 l 1,13,-1
EndSplineSet
Validated: 1
EndChar

StartChar: ccedilla
Encoding: 231 231 133
Width: 1200
GlyphClass: 2
Flags: W
LayerCount: 2
Fore
SplineSet
200 800 m 1,0,-1
 200 200 l 1,1,-1
 1000 200 l 1,2,-1
 1000 0 l 1,3,-1
 566 1 l 1,4,-1
 566 -89 l 1,5,-1
 786 -179 l 1,6,-1
 625 -232 l 1,7,-1
 424 -131 l 1,8,-1
 424 -1 l 1,9,-1
 0 0 l 1,10,-1
 0 1000 l 1,11,-1
 1000 1000 l 1,12,-1
 1000 800 l 1,13,-1
 200 800 l 1,0,-1
EndSplineSet
Validated: 1
EndChar

StartChar: eacute
Encoding: 233 233 135
Width: 1168
GlyphClass: 2
Flags: W
LayerCount: 2
Fore
SplineSet
741 1374 m 1,0,-1
 520 1093 l 1,1,-1
 372 1093 l 1,2,-1
 505 1374 l 1,3,-1
 741 1374 l 1,0,-1
1000 800 m 5,4,-1
 195 800 l 5,5,-1
 195 600 l 5,6,-1
 597 600 l 5,7,-1
 597 400 l 5,8,-1
 195 400 l 5,9,-1
 195 200 l 5,10,-1
 1000 200 l 5,11,-1
 1000 0 l 5,12,-1
 0 0 l 5,13,-1
 0 1000 l 5,14,-1
 1000 1000 l 5,15,-1
 1000 800 l 5,4,-1
EndSplineSet
Validated: 1
EndChar

StartChar: ecircumflex
Encoding: 234 234 136
Width: 1156
GlyphClass: 2
Flags: W
LayerCount: 2
Fore
SplineSet
809 1070 m 1,0,-1
 605 1070 l 1,1,-1
 496 1240 l 1,2,-1
 381 1070 l 1,3,-1
 177 1070 l 1,4,-1
 394 1351 l 1,5,-1
 584 1351 l 1,6,-1
 809 1070 l 1,0,-1
1000 800 m 1,7,-1
 195 800 l 1,8,-1
 195 600 l 1,9,-1
 597 600 l 1,10,-1
 597 400 l 1,11,-1
 195 400 l 1,12,-1
 195 200 l 1,13,-1
 1000 200 l 1,14,-1
 1000 0 l 1,15,-1
 0 0 l 1,16,-1
 0 1000 l 1,17,-1
 1000 1000 l 1,18,-1
 1000 800 l 1,7,-1
EndSplineSet
Validated: 1
EndChar

StartChar: edieresis
Encoding: 235 235 137
Width: 1198
GlyphClass: 2
Flags: W
LayerCount: 2
Fore
SplineSet
220 1107 m 1,0,-1
 220 1307 l 1,1,-1
 420 1307 l 1,2,-1
 420 1107 l 1,3,-1
 220 1107 l 1,0,-1
620 1107 m 1,4,-1
 620 1307 l 1,5,-1
 820 1307 l 1,6,-1
 820 1107 l 1,7,-1
 620 1107 l 1,4,-1
1000 800 m 1,8,-1
 195 800 l 1,9,-1
 195 600 l 1,10,-1
 597 600 l 1,11,-1
 597 400 l 1,12,-1
 195 400 l 1,13,-1
 195 200 l 1,14,-1
 1000 200 l 1,15,-1
 1000 0 l 1,16,-1
 0 0 l 1,17,-1
 0 1000 l 1,18,-1
 1000 1000 l 1,19,-1
 1000 800 l 1,8,-1
EndSplineSet
Validated: 1
EndChar

StartChar: igrave
Encoding: 236 236 138
Width: 705
GlyphClass: 2
Flags: W
LayerCount: 2
Fore
SplineSet
36 1412 m 1,0,-1
 257 1131 l 1,1,-1
 405 1131 l 1,2,-1
 272 1412 l 1,3,-1
 36 1412 l 1,0,-1
415 0 m 1,4,-1
 220 0 l 1,5,-1
 220 998 l 1,6,-1
 415 998 l 1,7,-1
 415 0 l 1,4,-1
EndSplineSet
Validated: 9
EndChar

StartChar: iacute
Encoding: 237 237 139
Width: 705
GlyphClass: 2
Flags: W
LayerCount: 2
Fore
SplineSet
599 1412 m 1,0,-1
 378 1131 l 1,1,-1
 230 1131 l 1,2,-1
 363 1412 l 1,3,-1
 599 1412 l 1,0,-1
415 0 m 1,4,-1
 220 0 l 1,5,-1
 220 998 l 1,6,-1
 415 998 l 1,7,-1
 415 0 l 1,4,-1
EndSplineSet
Validated: 1
EndChar

StartChar: icircumflex
Encoding: 238 238 140
Width: 705
GlyphClass: 2
Flags: W
LayerCount: 2
Fore
SplineSet
415 0 m 1,0,-1
 220 0 l 1,1,-1
 220 998 l 1,2,-1
 415 998 l 1,3,-1
 415 0 l 1,0,-1
633 1094 m 1,4,-1
 429 1094 l 1,5,-1
 320 1264 l 1,6,-1
 205 1094 l 1,7,-1
 1 1094 l 1,8,-1
 218 1375 l 1,9,-1
 408 1375 l 1,10,-1
 633 1094 l 1,4,-1
EndSplineSet
Validated: 1
EndChar

StartChar: idieresis
Encoding: 239 239 141
Width: 682
GlyphClass: 2
Flags: W
LayerCount: 2
Fore
SplineSet
204 1000 m 1,0,-1
 404 1000 l 1,1,-1
 404 0 l 1,2,-1
 204 0 l 1,3,-1
 204 1000 l 1,0,-1
4 1071 m 1,4,-1
 4 1271 l 1,5,-1
 204 1271 l 1,6,-1
 204 1071 l 1,7,-1
 4 1071 l 1,4,-1
404 1071 m 1,8,-1
 404 1271 l 1,9,-1
 604 1271 l 1,10,-1
 604 1071 l 1,11,-1
 404 1071 l 1,8,-1
EndSplineSet
Validated: 1
EndChar

StartChar: ntilde
Encoding: 241 241 142
Width: 1158
GlyphClass: 2
Flags: W
LayerCount: 2
Fore
SplineSet
793 1298 m 1,0,1
 793 1186 793 1186 735.5 1128.5 c 128,-1,2
 678 1071 678 1071 596 1071 c 0,3,4
 550 1071 550 1071 519 1081.5 c 128,-1,5
 488 1092 488 1092 445 1120 c 0,6,7
 374 1165 374 1165 332 1165 c 0,8,9
 249 1165 249 1165 246 1071 c 1,10,-1
 123 1071 l 1,11,12
 123 1182 123 1182 183 1240 c 128,-1,13
 243 1298 243 1298 326 1298 c 0,14,15
 391 1298 391 1298 466.5 1251 c 128,-1,16
 542 1204 542 1204 590 1204 c 0,17,18
 659 1204 659 1204 670 1298 c 1,19,-1
 793 1298 l 1,0,1
200 800 m 1,20,-1
 400 800 l 1,21,-1
 400 600 l 1,22,-1
 200 600 l 1,23,-1
 200 0 l 1,24,-1
 0 0 l 1,25,-1
 0 1000 l 1,26,-1
 200 1000 l 1,27,-1
 200 800 l 1,20,-1
800 1000 m 1,28,-1
 1000 1000 l 1,29,-1
 1000 0 l 1,30,-1
 800 0 l 1,31,-1
 800 200 l 1,32,-1
 600 200 l 1,33,-1
 600 400 l 1,34,-1
 800 400 l 1,35,-1
 800 1000 l 1,28,-1
400 600 m 1,36,-1
 600 600 l 1,37,-1
 600 400 l 1,38,-1
 400 400 l 1,39,-1
 400 600 l 1,36,-1
EndSplineSet
Validated: 5
EndChar

StartChar: ograve
Encoding: 242 242 143
Width: 1203
GlyphClass: 2
Flags: W
LayerCount: 2
Fore
SplineSet
7 -15 m 5,0,-1
 7 985 l 5,1,-1
 207 985 l 5,2,-1
 207 -15 l 5,3,-1
 7 -15 l 5,0,-1
800 0 m 5,4,-1
 800 1000 l 5,5,-1
 1000 1000 l 5,6,-1
 1000 0 l 5,7,-1
 800 0 l 5,4,-1
1000 0 m 5,8,-1
 0 0 l 5,9,-1
 0 200 l 5,10,-1
 1000 200 l 5,11,-1
 1000 0 l 5,8,-1
1000 800 m 5,12,-1
 0 800 l 5,13,-1
 0 1000 l 5,14,-1
 1000 1000 l 5,15,-1
 1000 800 l 5,12,-1
397 1187 m 1,16,-1
 397 1387 l 1,17,-1
 597 1387 l 1,18,-1
 597 1187 l 1,19,-1
 397 1187 l 1,16,-1
EndSplineSet
Validated: 5
EndChar

StartChar: oacute
Encoding: 243 243 144
Width: 1203
GlyphClass: 2
Flags: W
LayerCount: 2
Fore
SplineSet
7 -15 m 1,0,-1
 7 985 l 1,1,-1
 207 985 l 1,2,-1
 207 -15 l 1,3,-1
 7 -15 l 1,0,-1
800 0 m 1,4,-1
 800 1000 l 1,5,-1
 1000 1000 l 1,6,-1
 1000 0 l 1,7,-1
 800 0 l 1,4,-1
1000 0 m 1,8,-1
 0 0 l 1,9,-1
 0 200 l 1,10,-1
 1000 200 l 1,11,-1
 1000 0 l 1,8,-1
1000 800 m 1,12,-1
 0 800 l 1,13,-1
 0 1000 l 1,14,-1
 1000 1000 l 1,15,-1
 1000 800 l 1,12,-1
397 1187 m 1,16,-1
 397 1387 l 1,17,-1
 597 1387 l 1,18,-1
 597 1187 l 1,19,-1
 397 1187 l 1,16,-1
EndSplineSet
Validated: 5
EndChar

StartChar: ocircumflex
Encoding: 244 244 145
Width: 1185
GlyphClass: 2
Flags: W
LayerCount: 2
Fore
SplineSet
821 1076 m 1,0,-1
 617 1076 l 1,1,-1
 508 1246 l 1,2,-1
 393 1076 l 1,3,-1
 189 1076 l 1,4,-1
 406 1357 l 1,5,-1
 596 1357 l 1,6,-1
 821 1076 l 1,0,-1
0 0 m 1,7,-1
 0 1000 l 1,8,-1
 200 1000 l 1,9,-1
 200 0 l 1,10,-1
 0 0 l 1,7,-1
800 0 m 1,11,-1
 800 1000 l 1,12,-1
 1000 1000 l 1,13,-1
 1000 0 l 1,14,-1
 800 0 l 1,11,-1
1000 0 m 1,15,-1
 0 0 l 1,16,-1
 0 200 l 1,17,-1
 1000 200 l 1,18,-1
 1000 0 l 1,15,-1
1000 800 m 1,19,-1
 0 800 l 1,20,-1
 0 1000 l 1,21,-1
 1000 1000 l 1,22,-1
 1000 800 l 1,19,-1
EndSplineSet
Validated: 5
EndChar

StartChar: otilde
Encoding: 245 245 146
Width: 1185
GlyphClass: 2
Flags: W
LayerCount: 2
Fore
SplineSet
825 1298 m 1,0,1
 825 1186 825 1186 767.5 1128.5 c 128,-1,2
 710 1071 710 1071 628 1071 c 0,3,4
 582 1071 582 1071 551 1081.5 c 128,-1,5
 520 1092 520 1092 477 1120 c 0,6,7
 406 1165 406 1165 364 1165 c 0,8,9
 281 1165 281 1165 278 1071 c 1,10,-1
 155 1071 l 1,11,12
 155 1182 155 1182 215 1240 c 128,-1,13
 275 1298 275 1298 358 1298 c 0,14,15
 423 1298 423 1298 498.5 1251 c 128,-1,16
 574 1204 574 1204 622 1204 c 0,17,18
 691 1204 691 1204 702 1298 c 1,19,-1
 825 1298 l 1,0,1
0 0 m 1,20,-1
 0 1000 l 1,21,-1
 200 1000 l 1,22,-1
 200 0 l 1,23,-1
 0 0 l 1,20,-1
800 0 m 1,24,-1
 800 1000 l 1,25,-1
 1000 1000 l 1,26,-1
 1000 0 l 1,27,-1
 800 0 l 1,24,-1
1000 0 m 1,28,-1
 0 0 l 1,29,-1
 0 200 l 1,30,-1
 1000 200 l 1,31,-1
 1000 0 l 1,28,-1
1000 800 m 1,32,-1
 0 800 l 1,33,-1
 0 1000 l 1,34,-1
 1000 1000 l 1,35,-1
 1000 800 l 1,32,-1
EndSplineSet
Validated: 5
EndChar

StartChar: odieresis
Encoding: 246 246 147
Width: 1206
GlyphClass: 2
Flags: W
LayerCount: 2
Fore
SplineSet
772 1081 m 1,0,-1
 588 1081 l 1,1,-1
 588 1286 l 1,2,-1
 772 1286 l 1,3,-1
 772 1081 l 1,0,-1
402 1081 m 1,4,-1
 217 1081 l 1,5,-1
 217 1286 l 1,6,-1
 402 1286 l 1,7,-1
 402 1081 l 1,4,-1
0 0 m 1,8,-1
 0 1000 l 1,9,-1
 200 1000 l 1,10,-1
 200 0 l 1,11,-1
 0 0 l 1,8,-1
800 0 m 1,12,-1
 800 1000 l 1,13,-1
 1000 1000 l 1,14,-1
 1000 0 l 1,15,-1
 800 0 l 1,12,-1
1000 0 m 1,16,-1
 0 0 l 1,17,-1
 0 200 l 1,18,-1
 1000 200 l 1,19,-1
 1000 0 l 1,16,-1
1000 800 m 1,20,-1
 0 800 l 1,21,-1
 0 1000 l 1,22,-1
 1000 1000 l 1,23,-1
 1000 800 l 1,20,-1
EndSplineSet
Validated: 5
EndChar

StartChar: uacute
Encoding: 250 250 149
Width: 1173
GlyphClass: 2
Flags: W
LayerCount: 2
Fore
SplineSet
741 1374 m 1,0,-1
 520 1093 l 1,1,-1
 372 1093 l 1,2,-1
 505 1374 l 1,3,-1
 741 1374 l 1,0,-1
200 200 m 1,4,-1
 800 200 l 1,5,-1
 800 1000 l 1,6,-1
 1000 1000 l 1,7,-1
 1000 0 l 1,8,-1
 0 0 l 1,9,-1
 0 1000 l 1,10,-1
 200 1000 l 1,11,-1
 200 200 l 1,4,-1
EndSplineSet
Validated: 1
EndChar

StartChar: ucircumflex
Encoding: 251 251 150
Width: 1119
GlyphClass: 2
Flags: W
LayerCount: 2
Fore
SplineSet
808 1067 m 1,0,-1
 604 1067 l 1,1,-1
 495 1237 l 1,2,-1
 380 1067 l 1,3,-1
 176 1067 l 1,4,-1
 393 1348 l 1,5,-1
 583 1348 l 1,6,-1
 808 1067 l 1,0,-1
200 200 m 1,7,-1
 800 200 l 1,8,-1
 800 1000 l 1,9,-1
 1000 1000 l 1,10,-1
 1000 0 l 1,11,-1
 0 0 l 1,12,-1
 0 1000 l 1,13,-1
 200 1000 l 1,14,-1
 200 200 l 1,7,-1
EndSplineSet
Validated: 1
EndChar

StartChar: udieresis
Encoding: 252 252 151
Width: 1144
GlyphClass: 2
Flags: W
LayerCount: 2
Fore
SplineSet
771 1095 m 1,0,-1
 587 1095 l 1,1,-1
 587 1300 l 1,2,-1
 771 1300 l 1,3,-1
 771 1095 l 1,0,-1
401 1095 m 1,4,-1
 216 1095 l 1,5,-1
 216 1300 l 1,6,-1
 401 1300 l 1,7,-1
 401 1095 l 1,4,-1
200 200 m 1,8,-1
 800 200 l 1,9,-1
 800 1000 l 1,10,-1
 1000 1000 l 1,11,-1
 1000 0 l 1,12,-1
 0 0 l 1,13,-1
 0 1000 l 1,14,-1
 200 1000 l 1,15,-1
 200 200 l 1,8,-1
EndSplineSet
Validated: 1
EndChar

StartChar: yacute
Encoding: 253 253 152
Width: 1201
GlyphClass: 2
Flags: W
LayerCount: 2
Fore
SplineSet
771 1376 m 1,0,-1
 550 1095 l 1,1,-1
 402 1095 l 1,2,-1
 535 1376 l 1,3,-1
 771 1376 l 1,0,-1
200 600 m 5,4,-1
 800 600 l 5,5,-1
 800 1000 l 5,6,-1
 1000 1000 l 5,7,-1
 1000 400 l 5,8,-1
 600 400 l 5,9,-1
 600 0 l 5,10,-1
 400 0 l 5,11,-1
 400 400 l 5,12,-1
 0 400 l 5,13,-1
 0 1000 l 5,14,-1
 200 1000 l 5,15,-1
 200 600 l 5,4,-1
EndSplineSet
Validated: 1
EndChar

StartChar: ydieresis
Encoding: 255 255 153
Width: 1140
GlyphClass: 2
Flags: W
LayerCount: 2
Fore
SplineSet
775 1085 m 1,0,-1
 591 1085 l 1,1,-1
 591 1290 l 1,2,-1
 775 1290 l 1,3,-1
 775 1085 l 1,0,-1
405 1085 m 1,4,-1
 220 1085 l 1,5,-1
 220 1290 l 1,6,-1
 405 1290 l 1,7,-1
 405 1085 l 1,4,-1
200 800 m 1,8,-1
 0 800 l 1,9,-1
 0 1000 l 1,10,-1
 200 1000 l 1,11,-1
 200 800 l 1,8,-1
800 1000 m 1,12,-1
 1000 1000 l 1,13,-1
 1000 800 l 1,14,-1
 800 800 l 1,15,-1
 800 1000 l 1,12,-1
200 800 m 1,16,-1
 400 800 l 1,17,-1
 400 600 l 1,18,-1
 200 600 l 1,19,-1
 200 800 l 1,16,-1
600 800 m 1,20,-1
 800 800 l 1,21,-1
 800 600 l 1,22,-1
 600 600 l 1,23,-1
 600 800 l 1,20,-1
400 600 m 1,24,-1
 600 600 l 1,25,-1
 600 0 l 1,26,-1
 400 0 l 1,27,-1
 400 600 l 1,24,-1
EndSplineSet
Validated: 5
EndChar

StartChar: Amacron
Encoding: 256 256 154
Width: 1063
GlyphClass: 2
Flags: W
LayerCount: 2
Fore
SplineSet
264 1340 m 5,0,-1
 716 1340 l 5,1,-1
 716 1140 l 5,2,-1
 264 1140 l 5,3,-1
 264 1340 l 5,0,-1
201 797 m 1,4,-1
 201 601 l 1,5,-1
 799 601 l 1,6,-1
 799 797 l 1,7,-1
 201 797 l 1,4,-1
201 392 m 1,8,-1
 201 0 l 1,9,-1
 0 0 l 1,10,-1
 0 1000 l 1,11,-1
 1000 1000 l 1,12,-1
 1000 0 l 1,13,-1
 799 0 l 1,14,-1
 799 392 l 1,15,-1
 201 392 l 1,8,-1
EndSplineSet
Validated: 1
EndChar

StartChar: amacron
Encoding: 257 257 155
Width: 1063
GlyphClass: 2
Flags: W
LayerCount: 2
Fore
SplineSet
264 1340 m 5,0,-1
 716 1340 l 5,1,-1
 716 1140 l 5,2,-1
 264 1140 l 5,3,-1
 264 1340 l 5,0,-1
201 797 m 1,4,-1
 201 601 l 1,5,-1
 799 601 l 1,6,-1
 799 797 l 1,7,-1
 201 797 l 1,4,-1
201 392 m 1,8,-1
 201 0 l 1,9,-1
 0 0 l 1,10,-1
 0 1000 l 1,11,-1
 1000 1000 l 1,12,-1
 1000 0 l 1,13,-1
 799 0 l 1,14,-1
 799 392 l 1,15,-1
 201 392 l 1,8,-1
EndSplineSet
Validated: 1
EndChar

StartChar: Abreve
Encoding: 258 258 156
Width: 1085
GlyphClass: 2
Flags: W
LayerCount: 2
Fore
SplineSet
821 1357 m 1,0,-1
 617 1357 l 1,1,-1
 508 1187 l 1,2,-1
 393 1357 l 1,3,-1
 189 1357 l 1,4,-1
 406 1076 l 1,5,-1
 596 1076 l 1,6,-1
 821 1357 l 1,0,-1
201 797 m 1,7,-1
 201 601 l 1,8,-1
 799 601 l 1,9,-1
 799 797 l 1,10,-1
 201 797 l 1,7,-1
201 392 m 1,11,-1
 201 0 l 1,12,-1
 0 0 l 1,13,-1
 0 1000 l 1,14,-1
 1000 1000 l 1,15,-1
 1000 0 l 1,16,-1
 799 0 l 1,17,-1
 799 392 l 1,18,-1
 201 392 l 1,11,-1
EndSplineSet
Validated: 9
EndChar

StartChar: abreve
Encoding: 259 259 157
Width: 1085
GlyphClass: 2
Flags: W
LayerCount: 2
Fore
SplineSet
821 1357 m 1,0,-1
 617 1357 l 1,1,-1
 508 1187 l 1,2,-1
 393 1357 l 1,3,-1
 189 1357 l 1,4,-1
 406 1076 l 1,5,-1
 596 1076 l 1,6,-1
 821 1357 l 1,0,-1
201 797 m 1,7,-1
 201 601 l 1,8,-1
 799 601 l 1,9,-1
 799 797 l 1,10,-1
 201 797 l 1,7,-1
201 392 m 1,11,-1
 201 0 l 1,12,-1
 0 0 l 1,13,-1
 0 1000 l 1,14,-1
 1000 1000 l 1,15,-1
 1000 0 l 1,16,-1
 799 0 l 1,17,-1
 799 392 l 1,18,-1
 201 392 l 1,11,-1
EndSplineSet
Validated: 9
EndChar

StartChar: Aogonek
Encoding: 260 260 158
Width: 1202
GlyphClass: 2
Flags: W
LayerCount: 2
Fore
SplineSet
201 797 m 1,0,-1
 201 601 l 1,1,-1
 799 601 l 1,2,-1
 799 797 l 1,3,-1
 201 797 l 1,0,-1
209 392 m 1,4,-1
 209 0 l 1,5,-1
 8 0 l 1,6,-1
 8 1000 l 1,7,-1
 1008 1000 l 1,8,-1
 1008 0 l 1,9,-1
 807 0 l 1,10,-1
 807 392 l 1,11,-1
 209 392 l 1,4,-1
809 -197 m 1,12,-1
 809 3 l 1,13,-1
 1009 3 l 1,14,-1
 1009 -197 l 1,15,-1
 809 -197 l 1,12,-1
1007 -387 m 1,16,-1
 1007 -187 l 1,17,-1
 1207 -187 l 1,18,-1
 1207 -387 l 1,19,-1
 1007 -387 l 1,16,-1
EndSplineSet
Validated: 5
EndChar

StartChar: aogonek
Encoding: 261 261 159
Width: 1202
GlyphClass: 2
Flags: W
LayerCount: 2
Fore
SplineSet
201 797 m 1,0,-1
 201 601 l 1,1,-1
 799 601 l 1,2,-1
 799 797 l 1,3,-1
 201 797 l 1,0,-1
201 392 m 1,4,-1
 201 0 l 1,5,-1
 0 0 l 1,6,-1
 0 1000 l 1,7,-1
 1000 1000 l 1,8,-1
 1000 0 l 1,9,-1
 799 0 l 1,10,-1
 799 392 l 1,11,-1
 201 392 l 1,4,-1
809 -197 m 1,12,-1
 809 3 l 1,13,-1
 1009 3 l 1,14,-1
 1009 -197 l 1,15,-1
 809 -197 l 1,12,-1
999 -387 m 1,16,-1
 999 -187 l 1,17,-1
 1199 -187 l 1,18,-1
 1199 -387 l 1,19,-1
 999 -387 l 1,16,-1
EndSplineSet
Validated: 5
EndChar

StartChar: Cacute
Encoding: 262 262 160
Width: 1200
GlyphClass: 2
Flags: W
LayerCount: 2
Fore
SplineSet
200 800 m 1,0,-1
 200 200 l 1,1,-1
 1000 200 l 1,2,-1
 1000 0 l 1,3,-1
 0 0 l 1,4,-1
 0 1000 l 1,5,-1
 1000 1000 l 1,6,-1
 1000 800 l 1,7,-1
 200 800 l 1,0,-1
398 1203 m 1,8,-1
 398 1403 l 1,9,-1
 598 1403 l 1,10,-1
 598 1203 l 1,11,-1
 398 1203 l 1,8,-1
EndSplineSet
Validated: 1
EndChar

StartChar: cacute
Encoding: 263 263 161
Width: 1200
GlyphClass: 2
Flags: W
LayerCount: 2
Fore
SplineSet
200 800 m 1,0,-1
 200 200 l 1,1,-1
 1000 200 l 1,2,-1
 1000 0 l 1,3,-1
 0 0 l 1,4,-1
 0 1000 l 1,5,-1
 1000 1000 l 1,6,-1
 1000 800 l 1,7,-1
 200 800 l 1,0,-1
398 1203 m 1,8,-1
 398 1403 l 1,9,-1
 598 1403 l 1,10,-1
 598 1203 l 1,11,-1
 398 1203 l 1,8,-1
EndSplineSet
Validated: 1
EndChar

StartChar: Ccircumflex
Encoding: 264 264 162
Width: 1200
GlyphClass: 2
Flags: W
LayerCount: 2
Fore
SplineSet
808 1067 m 1,0,-1
 604 1067 l 1,1,-1
 495 1237 l 1,2,-1
 380 1067 l 1,3,-1
 176 1067 l 1,4,-1
 393 1348 l 1,5,-1
 583 1348 l 1,6,-1
 808 1067 l 1,0,-1
200 800 m 1,7,-1
 200 200 l 1,8,-1
 1000 200 l 1,9,-1
 1000 0 l 1,10,-1
 0 0 l 1,11,-1
 0 1000 l 1,12,-1
 1000 1000 l 1,13,-1
 1000 800 l 1,14,-1
 200 800 l 1,7,-1
EndSplineSet
Validated: 1
EndChar

StartChar: ccircumflex
Encoding: 265 265 163
Width: 1200
GlyphClass: 2
Flags: W
LayerCount: 2
Fore
SplineSet
808 1067 m 1,0,-1
 604 1067 l 1,1,-1
 495 1237 l 1,2,-1
 380 1067 l 1,3,-1
 176 1067 l 1,4,-1
 393 1348 l 1,5,-1
 583 1348 l 1,6,-1
 808 1067 l 1,0,-1
200 800 m 1,7,-1
 200 200 l 1,8,-1
 1000 200 l 1,9,-1
 1000 0 l 1,10,-1
 0 0 l 1,11,-1
 0 1000 l 1,12,-1
 1000 1000 l 1,13,-1
 1000 800 l 1,14,-1
 200 800 l 1,7,-1
EndSplineSet
Validated: 1
EndChar

StartChar: Cdotaccent
Encoding: 266 266 164
Width: 1200
GlyphClass: 2
Flags: W
LayerCount: 2
Fore
SplineSet
200 800 m 1,0,-1
 200 200 l 1,1,-1
 1000 200 l 1,2,-1
 1000 0 l 1,3,-1
 0 0 l 1,4,-1
 0 1000 l 1,5,-1
 1000 1000 l 1,6,-1
 1000 800 l 1,7,-1
 200 800 l 1,0,-1
398 1203 m 1,8,-1
 398 1403 l 1,9,-1
 598 1403 l 1,10,-1
 598 1203 l 1,11,-1
 398 1203 l 1,8,-1
EndSplineSet
Validated: 1
EndChar

StartChar: cdotaccent
Encoding: 267 267 165
Width: 1200
GlyphClass: 2
Flags: W
LayerCount: 2
Fore
SplineSet
200 800 m 1,0,-1
 200 200 l 1,1,-1
 1000 200 l 1,2,-1
 1000 0 l 1,3,-1
 0 0 l 1,4,-1
 0 1000 l 1,5,-1
 1000 1000 l 1,6,-1
 1000 800 l 1,7,-1
 200 800 l 1,0,-1
399 1203 m 1,8,-1
 399 1403 l 1,9,-1
 599 1403 l 1,10,-1
 599 1203 l 1,11,-1
 399 1203 l 1,8,-1
EndSplineSet
Validated: 1
EndChar

StartChar: Ccaron
Encoding: 268 268 166
Width: 1200
GlyphClass: 2
Flags: W
LayerCount: 2
Fore
SplineSet
808 1348 m 1,0,-1
 604 1348 l 1,1,-1
 495 1178 l 1,2,-1
 380 1348 l 1,3,-1
 176 1348 l 1,4,-1
 393 1067 l 1,5,-1
 583 1067 l 1,6,-1
 808 1348 l 1,0,-1
200 800 m 1,7,-1
 200 200 l 1,8,-1
 1000 200 l 1,9,-1
 1000 0 l 1,10,-1
 0 0 l 1,11,-1
 0 1000 l 1,12,-1
 1000 1000 l 1,13,-1
 1000 800 l 1,14,-1
 200 800 l 1,7,-1
EndSplineSet
Validated: 9
EndChar

StartChar: ccaron
Encoding: 269 269 167
Width: 1200
GlyphClass: 2
Flags: W
LayerCount: 2
Fore
SplineSet
808 1348 m 1,0,-1
 604 1348 l 1,1,-1
 495 1178 l 1,2,-1
 380 1348 l 1,3,-1
 176 1348 l 1,4,-1
 393 1067 l 1,5,-1
 583 1067 l 1,6,-1
 808 1348 l 1,0,-1
200 800 m 1,7,-1
 200 200 l 1,8,-1
 1000 200 l 1,9,-1
 1000 0 l 1,10,-1
 0 0 l 1,11,-1
 0 1000 l 1,12,-1
 1000 1000 l 1,13,-1
 1000 800 l 1,14,-1
 200 800 l 1,7,-1
EndSplineSet
Validated: 9
EndChar

StartChar: Dcaron
Encoding: 270 270 168
Width: 1202
GlyphClass: 2
Flags: W
LayerCount: 2
Fore
SplineSet
808 1348 m 1,0,-1
 604 1348 l 1,1,-1
 495 1178 l 1,2,-1
 380 1348 l 1,3,-1
 176 1348 l 1,4,-1
 393 1067 l 1,5,-1
 583 1067 l 1,6,-1
 808 1348 l 1,0,-1
800 800 m 1,7,-1
 200 800 l 1,8,-1
 200 200 l 1,9,-1
 800 200 l 1,10,-1
 800 0 l 1,11,-1
 0 0 l 1,12,-1
 0 1000 l 1,13,-1
 800 1000 l 1,14,-1
 800 800 l 1,7,-1
800 800 m 1,15,-1
 1000 800 l 1,16,-1
 1000 200 l 1,17,-1
 800 200 l 1,18,-1
 800 800 l 1,15,-1
EndSplineSet
Validated: 5
EndChar

StartChar: dcaron
Encoding: 271 271 169
Width: 1202
GlyphClass: 2
Flags: W
LayerCount: 2
Fore
SplineSet
808 1348 m 1,0,-1
 604 1348 l 1,1,-1
 495 1178 l 1,2,-1
 380 1348 l 1,3,-1
 176 1348 l 1,4,-1
 393 1067 l 1,5,-1
 583 1067 l 1,6,-1
 808 1348 l 1,0,-1
800 800 m 1,7,-1
 200 800 l 1,8,-1
 200 200 l 1,9,-1
 800 200 l 1,10,-1
 800 0 l 1,11,-1
 0 0 l 1,12,-1
 0 1000 l 1,13,-1
 800 1000 l 1,14,-1
 800 800 l 1,7,-1
800 800 m 1,15,-1
 1000 800 l 1,16,-1
 1000 200 l 1,17,-1
 800 200 l 1,18,-1
 800 800 l 1,15,-1
EndSplineSet
Validated: 5
EndChar

StartChar: Emacron
Encoding: 274 274 172
Width: 1198
GlyphClass: 2
Flags: W
LayerCount: 2
Fore
SplineSet
264 1340 m 5,0,-1
 716 1340 l 5,1,-1
 716 1140 l 5,2,-1
 264 1140 l 5,3,-1
 264 1340 l 5,0,-1
1000 800 m 1,4,-1
 195 800 l 1,5,-1
 195 600 l 1,6,-1
 597 600 l 1,7,-1
 597 400 l 1,8,-1
 195 400 l 1,9,-1
 195 200 l 1,10,-1
 1000 200 l 1,11,-1
 1000 0 l 1,12,-1
 0 0 l 1,13,-1
 0 1000 l 1,14,-1
 1000 1000 l 1,15,-1
 1000 800 l 1,4,-1
EndSplineSet
Validated: 1
EndChar

StartChar: emacron
Encoding: 275 275 173
Width: 1198
GlyphClass: 2
Flags: W
LayerCount: 2
Fore
SplineSet
264 1340 m 5,0,-1
 716 1340 l 5,1,-1
 716 1140 l 5,2,-1
 264 1140 l 5,3,-1
 264 1340 l 5,0,-1
1000 800 m 1,4,-1
 195 800 l 1,5,-1
 195 600 l 1,6,-1
 597 600 l 1,7,-1
 597 400 l 1,8,-1
 195 400 l 1,9,-1
 195 200 l 1,10,-1
 1000 200 l 1,11,-1
 1000 0 l 1,12,-1
 0 0 l 1,13,-1
 0 1000 l 1,14,-1
 1000 1000 l 1,15,-1
 1000 800 l 1,4,-1
EndSplineSet
Validated: 1
EndChar

StartChar: Edotaccent
Encoding: 278 278 176
Width: 1198
GlyphClass: 2
Flags: W
LayerCount: 2
Fore
SplineSet
410 1107 m 5,0,-1
 410 1307 l 5,1,-1
 610 1307 l 5,2,-1
 610 1107 l 5,3,-1
 410 1107 l 5,0,-1
1000 800 m 1,4,-1
 195 800 l 1,5,-1
 195 600 l 1,6,-1
 597 600 l 1,7,-1
 597 400 l 1,8,-1
 195 400 l 1,9,-1
 195 200 l 1,10,-1
 1000 200 l 1,11,-1
 1000 0 l 1,12,-1
 0 0 l 1,13,-1
 0 1000 l 1,14,-1
 1000 1000 l 1,15,-1
 1000 800 l 1,4,-1
EndSplineSet
EndChar

StartChar: edotaccent
Encoding: 279 279 177
Width: 1198
GlyphClass: 2
Flags: W
LayerCount: 2
Fore
SplineSet
410 1107 m 5,0,-1
 410 1307 l 5,1,-1
 610 1307 l 5,2,-1
 610 1107 l 5,3,-1
 410 1107 l 5,0,-1
1000 800 m 1,4,-1
 195 800 l 1,5,-1
 195 600 l 1,6,-1
 597 600 l 1,7,-1
 597 400 l 1,8,-1
 195 400 l 1,9,-1
 195 200 l 1,10,-1
 1000 200 l 1,11,-1
 1000 0 l 1,12,-1
 0 0 l 1,13,-1
 0 1000 l 1,14,-1
 1000 1000 l 1,15,-1
 1000 800 l 1,4,-1
EndSplineSet
EndChar

StartChar: Eogonek
Encoding: 280 280 178
Width: 1198
GlyphClass: 2
Flags: W
LayerCount: 2
Fore
SplineSet
1000 800 m 1,0,-1
 195 800 l 1,1,-1
 195 600 l 1,2,-1
 597 600 l 1,3,-1
 597 400 l 1,4,-1
 195 400 l 1,5,-1
 195 200 l 1,6,-1
 1000 200 l 1,7,-1
 1000 0 l 1,8,-1
 0 0 l 1,9,-1
 0 1000 l 1,10,-1
 1000 1000 l 1,11,-1
 1000 800 l 1,0,-1
786 -205 m 1,12,-1
 786 -5 l 1,13,-1
 986 -5 l 1,14,-1
 986 -205 l 1,15,-1
 786 -205 l 1,12,-1
1000 -402 m 1,16,-1
 1000 -202 l 1,17,-1
 1200 -202 l 1,18,-1
 1200 -402 l 1,19,-1
 1000 -402 l 1,16,-1
EndSplineSet
Validated: 1
EndChar

StartChar: eogonek
Encoding: 281 281 179
Width: 1198
GlyphClass: 2
Flags: W
LayerCount: 2
Fore
SplineSet
1000 800 m 1,0,-1
 195 800 l 1,1,-1
 195 600 l 1,2,-1
 597 600 l 1,3,-1
 597 400 l 1,4,-1
 195 400 l 1,5,-1
 195 200 l 1,6,-1
 1000 200 l 1,7,-1
 1000 0 l 1,8,-1
 0 0 l 1,9,-1
 0 1000 l 1,10,-1
 1000 1000 l 1,11,-1
 1000 800 l 1,0,-1
794 -197 m 1,12,-1
 794 3 l 1,13,-1
 994 3 l 1,14,-1
 994 -197 l 1,15,-1
 794 -197 l 1,12,-1
1007 -387 m 1,16,-1
 1007 -187 l 1,17,-1
 1207 -187 l 1,18,-1
 1207 -387 l 1,19,-1
 1007 -387 l 1,16,-1
EndSplineSet
Validated: 5
EndChar

StartChar: Ecaron
Encoding: 282 282 180
Width: 1168
GlyphClass: 2
Flags: W
LayerCount: 2
Fore
SplineSet
808 1348 m 1,0,-1
 604 1348 l 1,1,-1
 495 1178 l 1,2,-1
 380 1348 l 1,3,-1
 176 1348 l 1,4,-1
 393 1067 l 1,5,-1
 583 1067 l 1,6,-1
 808 1348 l 1,0,-1
1000 800 m 1,7,-1
 195 800 l 1,8,-1
 195 600 l 1,9,-1
 597 600 l 1,10,-1
 597 400 l 1,11,-1
 195 400 l 1,12,-1
 195 200 l 1,13,-1
 1000 200 l 1,14,-1
 1000 0 l 1,15,-1
 0 0 l 1,16,-1
 0 1000 l 1,17,-1
 1000 1000 l 1,18,-1
 1000 800 l 1,7,-1
EndSplineSet
Validated: 9
EndChar

StartChar: ecaron
Encoding: 283 283 181
Width: 1168
GlyphClass: 2
Flags: W
LayerCount: 2
Fore
SplineSet
808 1348 m 1,0,-1
 604 1348 l 1,1,-1
 495 1178 l 1,2,-1
 380 1348 l 1,3,-1
 176 1348 l 1,4,-1
 393 1067 l 1,5,-1
 583 1067 l 1,6,-1
 808 1348 l 1,0,-1
1000 800 m 1,7,-1
 195 800 l 1,8,-1
 195 600 l 1,9,-1
 597 600 l 1,10,-1
 597 400 l 1,11,-1
 195 400 l 1,12,-1
 195 200 l 1,13,-1
 1000 200 l 1,14,-1
 1000 0 l 1,15,-1
 0 0 l 1,16,-1
 0 1000 l 1,17,-1
 1000 1000 l 1,18,-1
 1000 800 l 1,7,-1
EndSplineSet
Validated: 9
EndChar

StartChar: Gbreve
Encoding: 286 286 184
Width: 1201
GlyphClass: 2
Flags: W
LayerCount: 2
Fore
SplineSet
821 1357 m 1,0,-1
 617 1357 l 1,1,-1
 508 1187 l 1,2,-1
 393 1357 l 1,3,-1
 189 1357 l 1,4,-1
 406 1076 l 1,5,-1
 596 1076 l 1,6,-1
 821 1357 l 1,0,-1
200 800 m 1,7,-1
 200 200 l 1,8,-1
 800 200 l 1,9,-1
 800 400 l 1,10,-1
 400 400 l 1,11,-1
 400 600 l 1,12,-1
 1000 600 l 1,13,-1
 1000 0 l 1,14,-1
 0 0 l 1,15,-1
 0 1000 l 1,16,-1
 1000 1000 l 1,17,-1
 1000 800 l 1,18,-1
 200 800 l 1,7,-1
EndSplineSet
Validated: 9
EndChar

StartChar: gbreve
Encoding: 287 287 185
Width: 1201
GlyphClass: 2
Flags: W
LayerCount: 2
Fore
SplineSet
821 1357 m 1,0,-1
 617 1357 l 1,1,-1
 508 1187 l 1,2,-1
 393 1357 l 1,3,-1
 189 1357 l 1,4,-1
 406 1076 l 1,5,-1
 596 1076 l 1,6,-1
 821 1357 l 1,0,-1
200 800 m 1,7,-1
 200 200 l 1,8,-1
 800 200 l 1,9,-1
 800 400 l 1,10,-1
 400 400 l 1,11,-1
 400 600 l 1,12,-1
 1000 600 l 1,13,-1
 1000 0 l 1,14,-1
 0 0 l 1,15,-1
 0 1000 l 1,16,-1
 1000 1000 l 1,17,-1
 1000 800 l 1,18,-1
 200 800 l 1,7,-1
EndSplineSet
Validated: 9
EndChar

StartChar: Gcommaaccent
Encoding: 290 290 188
Width: 1201
GlyphClass: 2
Flags: W
LayerCount: 2
Fore
SplineSet
433 -312 m 5,0,-1
 433 -112 l 5,1,-1
 633 -112 l 5,2,-1
 633 -312 l 5,3,-1
 433 -312 l 5,0,-1
200 800 m 1,4,-1
 200 200 l 1,5,-1
 800 200 l 1,6,-1
 800 400 l 1,7,-1
 400 400 l 1,8,-1
 400 600 l 1,9,-1
 1000 600 l 1,10,-1
 1000 0 l 1,11,-1
 0 0 l 1,12,-1
 0 1000 l 1,13,-1
 1000 1000 l 1,14,-1
 1000 800 l 1,15,-1
 200 800 l 1,4,-1
EndSplineSet
Validated: 1
EndChar

StartChar: gcommaaccent
Encoding: 291 291 189
Width: 1201
GlyphClass: 2
Flags: W
LayerCount: 2
Fore
SplineSet
433 -312 m 1,0,-1
 433 -112 l 1,1,-1
 633 -112 l 1,2,-1
 633 -312 l 1,3,-1
 433 -312 l 1,0,-1
200 800 m 1,4,-1
 200 200 l 1,5,-1
 800 200 l 1,6,-1
 800 400 l 1,7,-1
 400 400 l 1,8,-1
 400 600 l 1,9,-1
 1000 600 l 1,10,-1
 1000 0 l 1,11,-1
 0 0 l 1,12,-1
 0 1000 l 1,13,-1
 1000 1000 l 1,14,-1
 1000 800 l 1,15,-1
 200 800 l 1,4,-1
EndSplineSet
Validated: 1
EndChar

StartChar: Imacron
Encoding: 298 298 196
Width: 682
GlyphClass: 2
Flags: W
LayerCount: 2
Fore
SplineSet
80 1304 m 1,0,-1
 532 1304 l 1,1,-1
 532 1104 l 1,2,-1
 80 1104 l 1,3,-1
 80 1304 l 1,0,-1
204 1000 m 1,4,-1
 404 1000 l 1,5,-1
 404 0 l 1,6,-1
 204 0 l 1,7,-1
 204 1000 l 1,4,-1
EndSplineSet
Validated: 1
EndChar

StartChar: imacron
Encoding: 299 299 197
Width: 682
GlyphClass: 2
Flags: W
LayerCount: 2
Fore
SplineSet
80 1304 m 1,0,-1
 532 1304 l 1,1,-1
 532 1104 l 1,2,-1
 80 1104 l 1,3,-1
 80 1304 l 1,0,-1
204 1000 m 1,4,-1
 404 1000 l 1,5,-1
 404 0 l 1,6,-1
 204 0 l 1,7,-1
 204 1000 l 1,4,-1
EndSplineSet
Validated: 1
EndChar

StartChar: Idotaccent
Encoding: 304 304 201
Width: 1196
GlyphClass: 2
Flags: W
LayerCount: 2
Fore
SplineSet
398 1203 m 1,0,-1
 398 1403 l 1,1,-1
 598 1403 l 1,2,-1
 598 1203 l 1,3,-1
 398 1203 l 1,0,-1
0 800 m 1,4,-1
 0 1000 l 1,5,-1
 1000 1000 l 1,6,-1
 1000 800 l 1,7,-1
 600 800 l 1,8,-1
 600 200 l 1,9,-1
 1000 200 l 1,10,-1
 1000 0 l 1,11,-1
 0 0 l 1,12,-1
 0 200 l 1,13,-1
 400 200 l 1,14,-1
 400 800 l 1,15,-1
 0 800 l 1,4,-1
EndSplineSet
Validated: 1
EndChar

StartChar: dotlessi
Encoding: 305 305 202
Width: 1196
GlyphClass: 2
Flags: W
LayerCount: 2
Fore
SplineSet
398 1203 m 1,0,-1
 398 1403 l 1,1,-1
 598 1403 l 1,2,-1
 598 1203 l 1,3,-1
 398 1203 l 1,0,-1
0 800 m 1,4,-1
 0 1000 l 1,5,-1
 1000 1000 l 1,6,-1
 1000 800 l 1,7,-1
 600 800 l 1,8,-1
 600 200 l 1,9,-1
 1000 200 l 1,10,-1
 1000 0 l 1,11,-1
 0 0 l 1,12,-1
 0 200 l 1,13,-1
 400 200 l 1,14,-1
 400 800 l 1,15,-1
 0 800 l 1,4,-1
EndSplineSet
Validated: 1
EndChar

StartChar: Kcommaaccent
Encoding: 310 310 207
Width: 1193
GlyphClass: 2
Flags: W
LayerCount: 2
Fore
SplineSet
433 -312 m 5,0,-1
 433 -112 l 5,1,-1
 633 -112 l 5,2,-1
 633 -312 l 5,3,-1
 433 -312 l 5,0,-1
200 600 m 1,4,-1
 600 600 l 1,5,-1
 600 400 l 1,6,-1
 200 400 l 1,7,-1
 200 0 l 1,8,-1
 0 0 l 1,9,-1
 0 1000 l 1,10,-1
 200 1000 l 1,11,-1
 200 600 l 1,4,-1
800 1000 m 1,12,-1
 1000 1000 l 1,13,-1
 1000 800 l 1,14,-1
 800 800 l 1,15,-1
 800 1000 l 1,12,-1
600 800 m 1,16,-1
 800 800 l 1,17,-1
 800 600 l 1,18,-1
 600 600 l 1,19,-1
 600 800 l 1,16,-1
600 400 m 1,20,-1
 800 400 l 1,21,-1
 800 200 l 1,22,-1
 600 200 l 1,23,-1
 600 400 l 1,20,-1
800 200 m 1,24,-1
 1000 200 l 1,25,-1
 1000 0 l 1,26,-1
 800 0 l 1,27,-1
 800 200 l 1,24,-1
EndSplineSet
Validated: 5
EndChar

StartChar: kcommaaccent
Encoding: 311 311 208
Width: 1193
GlyphClass: 2
Flags: W
LayerCount: 2
Fore
SplineSet
433 -312 m 5,0,-1
 433 -112 l 5,1,-1
 633 -112 l 5,2,-1
 633 -312 l 5,3,-1
 433 -312 l 5,0,-1
200 600 m 1,4,-1
 600 600 l 1,5,-1
 600 400 l 1,6,-1
 200 400 l 1,7,-1
 200 0 l 1,8,-1
 0 0 l 1,9,-1
 0 1000 l 1,10,-1
 200 1000 l 1,11,-1
 200 600 l 1,4,-1
800 1000 m 1,12,-1
 1000 1000 l 1,13,-1
 1000 800 l 1,14,-1
 800 800 l 1,15,-1
 800 1000 l 1,12,-1
600 800 m 1,16,-1
 800 800 l 1,17,-1
 800 600 l 1,18,-1
 600 600 l 1,19,-1
 600 800 l 1,16,-1
600 400 m 1,20,-1
 800 400 l 1,21,-1
 800 200 l 1,22,-1
 600 200 l 1,23,-1
 600 400 l 1,20,-1
800 200 m 1,24,-1
 1000 200 l 1,25,-1
 1000 0 l 1,26,-1
 800 0 l 1,27,-1
 800 200 l 1,24,-1
EndSplineSet
Validated: 5
EndChar

StartChar: Lcommaaccent
Encoding: 315 315 212
Width: 1201
GlyphClass: 2
Flags: W
LayerCount: 2
Fore
SplineSet
433 -312 m 5,0,-1
 433 -112 l 5,1,-1
 633 -112 l 5,2,-1
 633 -312 l 5,3,-1
 433 -312 l 5,0,-1
200 200 m 1,4,-1
 1000 200 l 1,5,-1
 1000 0 l 1,6,-1
 0 0 l 1,7,-1
 0 1000 l 1,8,-1
 200 1000 l 1,9,-1
 200 200 l 1,4,-1
EndSplineSet
Validated: 1
EndChar

StartChar: lcommaaccent
Encoding: 316 316 213
Width: 1201
GlyphClass: 2
Flags: W
LayerCount: 2
Fore
SplineSet
433 -312 m 5,0,-1
 433 -112 l 5,1,-1
 633 -112 l 5,2,-1
 633 -312 l 5,3,-1
 433 -312 l 5,0,-1
200 200 m 1,4,-1
 1000 200 l 1,5,-1
 1000 0 l 1,6,-1
 0 0 l 1,7,-1
 0 1000 l 1,8,-1
 200 1000 l 1,9,-1
 200 200 l 1,4,-1
EndSplineSet
Validated: 1
EndChar

StartChar: Lslash
Encoding: 321 321 218
Width: 1201
GlyphClass: 2
Flags: W
LayerCount: 2
Fore
SplineSet
200 200 m 1,0,-1
 1000 200 l 1,1,-1
 1000 0 l 1,2,-1
 0 0 l 1,3,-1
 0 1000 l 1,4,-1
 200 1000 l 1,5,-1
 200 200 l 1,0,-1
201 397 m 1,6,-1
 201 597 l 1,7,-1
 401 597 l 1,8,-1
 401 397 l 1,9,-1
 201 397 l 1,6,-1
406 609 m 1,10,-1
 406 809 l 1,11,-1
 606 809 l 1,12,-1
 606 609 l 1,13,-1
 406 609 l 1,10,-1
-195 198 m 1,14,-1
 -195 398 l 1,15,-1
 5 398 l 1,16,-1
 5 198 l 1,17,-1
 -195 198 l 1,14,-1
EndSplineSet
Validated: 5
EndChar

StartChar: lslash
Encoding: 322 322 219
Width: 1201
GlyphClass: 2
Flags: W
LayerCount: 2
Fore
SplineSet
200 200 m 1,0,-1
 1000 200 l 1,1,-1
 1000 0 l 1,2,-1
 0 0 l 1,3,-1
 0 1000 l 1,4,-1
 200 1000 l 1,5,-1
 200 200 l 1,0,-1
201 412 m 1,6,-1
 201 612 l 1,7,-1
 401 612 l 1,8,-1
 401 412 l 1,9,-1
 201 412 l 1,6,-1
406 602 m 1,10,-1
 406 802 l 1,11,-1
 606 802 l 1,12,-1
 606 602 l 1,13,-1
 406 602 l 1,10,-1
-187 184 m 1,14,-1
 -187 384 l 1,15,-1
 13 384 l 1,16,-1
 13 184 l 1,17,-1
 -187 184 l 1,14,-1
EndSplineSet
Validated: 5
EndChar

StartChar: Ncommaaccent
Encoding: 325 325 222
Width: 1201
GlyphClass: 2
Flags: W
LayerCount: 2
Fore
SplineSet
433 -312 m 5,0,-1
 433 -112 l 5,1,-1
 633 -112 l 5,2,-1
 633 -312 l 5,3,-1
 433 -312 l 5,0,-1
200 800 m 1,4,-1
 400 800 l 1,5,-1
 400 600 l 1,6,-1
 200 600 l 1,7,-1
 200 0 l 1,8,-1
 0 0 l 1,9,-1
 0 1000 l 1,10,-1
 200 1000 l 1,11,-1
 200 800 l 1,4,-1
800 1000 m 1,12,-1
 1000 1000 l 1,13,-1
 1000 0 l 1,14,-1
 800 0 l 1,15,-1
 800 200 l 1,16,-1
 600 200 l 1,17,-1
 600 400 l 1,18,-1
 800 400 l 1,19,-1
 800 1000 l 1,12,-1
400 600 m 1,20,-1
 600 600 l 1,21,-1
 600 400 l 1,22,-1
 400 400 l 1,23,-1
 400 600 l 1,20,-1
EndSplineSet
Validated: 5
EndChar

StartChar: ncommaaccent
Encoding: 326 326 223
Width: 1201
GlyphClass: 2
Flags: W
LayerCount: 2
Fore
SplineSet
433 -312 m 5,0,-1
 433 -112 l 5,1,-1
 633 -112 l 5,2,-1
 633 -312 l 5,3,-1
 433 -312 l 5,0,-1
200 800 m 1,4,-1
 400 800 l 1,5,-1
 400 600 l 1,6,-1
 200 600 l 1,7,-1
 200 0 l 1,8,-1
 0 0 l 1,9,-1
 0 1000 l 1,10,-1
 200 1000 l 1,11,-1
 200 800 l 1,4,-1
800 1000 m 1,12,-1
 1000 1000 l 1,13,-1
 1000 0 l 1,14,-1
 800 0 l 1,15,-1
 800 200 l 1,16,-1
 600 200 l 1,17,-1
 600 400 l 1,18,-1
 800 400 l 1,19,-1
 800 1000 l 1,12,-1
400 600 m 1,20,-1
 600 600 l 1,21,-1
 600 400 l 1,22,-1
 400 400 l 1,23,-1
 400 600 l 1,20,-1
EndSplineSet
Validated: 5
EndChar

StartChar: Ncaron
Encoding: 327 327 224
Width: 1200
GlyphClass: 2
Flags: W
LayerCount: 2
Fore
SplineSet
808 1348 m 1,0,-1
 604 1348 l 1,1,-1
 495 1178 l 1,2,-1
 380 1348 l 1,3,-1
 176 1348 l 1,4,-1
 393 1067 l 1,5,-1
 583 1067 l 1,6,-1
 808 1348 l 1,0,-1
200 800 m 1,7,-1
 200 0 l 1,8,-1
 0 0 l 1,9,-1
 0 1000 l 1,10,-1
 1000 1000 l 1,11,-1
 1000 0 l 1,12,-1
 800 0 l 1,13,-1
 800 800 l 1,14,-1
 200 800 l 1,7,-1
EndSplineSet
Validated: 9
EndChar

StartChar: ncaron
Encoding: 328 328 225
Width: 1200
GlyphClass: 2
Flags: W
LayerCount: 2
Fore
SplineSet
808 1348 m 1,0,-1
 604 1348 l 1,1,-1
 495 1178 l 1,2,-1
 380 1348 l 1,3,-1
 176 1348 l 1,4,-1
 393 1067 l 1,5,-1
 583 1067 l 1,6,-1
 808 1348 l 1,0,-1
200 800 m 1,7,-1
 200 0 l 1,8,-1
 0 0 l 1,9,-1
 0 1000 l 1,10,-1
 1000 1000 l 1,11,-1
 1000 0 l 1,12,-1
 800 0 l 1,13,-1
 800 800 l 1,14,-1
 200 800 l 1,7,-1
EndSplineSet
Validated: 9
EndChar

StartChar: ohungarumlaut
Encoding: 337 337 233
Width: 1206
GlyphClass: 2
Flags: W
LayerCount: 2
Fore
SplineSet
772 1081 m 1,0,-1
 588 1081 l 1,1,-1
 588 1286 l 1,2,-1
 772 1286 l 1,3,-1
 772 1081 l 1,0,-1
402 1081 m 1,4,-1
 217 1081 l 1,5,-1
 217 1286 l 1,6,-1
 402 1286 l 1,7,-1
 402 1081 l 1,4,-1
0 0 m 1,8,-1
 0 1000 l 1,9,-1
 200 1000 l 1,10,-1
 200 0 l 1,11,-1
 0 0 l 1,8,-1
800 0 m 1,12,-1
 800 1000 l 1,13,-1
 1000 1000 l 1,14,-1
 1000 0 l 1,15,-1
 800 0 l 1,12,-1
1000 0 m 1,16,-1
 0 0 l 1,17,-1
 0 200 l 1,18,-1
 1000 200 l 1,19,-1
 1000 0 l 1,16,-1
1000 800 m 1,20,-1
 0 800 l 1,21,-1
 0 1000 l 1,22,-1
 1000 1000 l 1,23,-1
 1000 800 l 1,20,-1
EndSplineSet
Validated: 5
EndChar

StartChar: Rcaron
Encoding: 344 344 238
Width: 1201
GlyphClass: 2
Flags: W
LayerCount: 2
Fore
SplineSet
808 1348 m 1,0,-1
 604 1348 l 1,1,-1
 495 1178 l 1,2,-1
 380 1348 l 1,3,-1
 176 1348 l 1,4,-1
 393 1067 l 1,5,-1
 583 1067 l 1,6,-1
 808 1348 l 1,0,-1
800 800 m 1,7,-1
 200 800 l 1,8,-1
 200 600 l 1,9,-1
 800 600 l 1,10,-1
 800 800 l 1,11,-1
 1000 800 l 1,12,-1
 1000 400 l 1,13,-1
 800 400 l 1,14,-1
 800 200 l 1,15,-1
 600 200 l 1,16,-1
 600 400 l 1,17,-1
 200 400 l 1,18,-1
 200 0 l 1,19,-1
 0 0 l 1,20,-1
 0 1000 l 1,21,-1
 800 1000 l 1,22,-1
 800 800 l 1,7,-1
800 200 m 1,23,-1
 1000 200 l 1,24,-1
 1000 0 l 1,25,-1
 800 0 l 1,26,-1
 800 200 l 1,23,-1
EndSplineSet
Validated: 5
EndChar

StartChar: rcaron
Encoding: 345 345 239
Width: 1201
GlyphClass: 2
Flags: W
LayerCount: 2
Fore
SplineSet
808 1348 m 5,0,-1
 604 1348 l 5,1,-1
 495 1178 l 5,2,-1
 380 1348 l 5,3,-1
 176 1348 l 5,4,-1
 393 1067 l 5,5,-1
 583 1067 l 5,6,-1
 808 1348 l 5,0,-1
800 800 m 1,7,-1
 200 800 l 1,8,-1
 200 600 l 1,9,-1
 800 600 l 1,10,-1
 800 800 l 1,11,-1
 1000 800 l 1,12,-1
 1000 400 l 1,13,-1
 800 400 l 1,14,-1
 800 200 l 1,15,-1
 600 200 l 1,16,-1
 600 400 l 1,17,-1
 200 400 l 1,18,-1
 200 0 l 1,19,-1
 0 0 l 1,20,-1
 0 1000 l 1,21,-1
 800 1000 l 1,22,-1
 800 800 l 1,7,-1
800 200 m 1,23,-1
 1000 200 l 1,24,-1
 1000 0 l 1,25,-1
 800 0 l 1,26,-1
 800 200 l 1,23,-1
EndSplineSet
Validated: 5
EndChar

StartChar: Sacute
Encoding: 346 346 240
Width: 1201
GlyphClass: 2
Flags: W
LayerCount: 2
Fore
SplineSet
200 800 m 1,0,-1
 200 600 l 1,1,-1
 1000 600 l 1,2,-1
 1000 0 l 1,3,-1
 0 0 l 1,4,-1
 0 200 l 1,5,-1
 800 200 l 1,6,-1
 800 400 l 1,7,-1
 0 400 l 1,8,-1
 0 1000 l 1,9,-1
 1000 1000 l 1,10,-1
 1000 800 l 1,11,-1
 200 800 l 1,0,-1
391 1195 m 1,12,-1
 391 1395 l 1,13,-1
 591 1395 l 1,14,-1
 591 1195 l 1,15,-1
 391 1195 l 1,12,-1
604 1400 m 1,16,-1
 604 1600 l 1,17,-1
 804 1600 l 1,18,-1
 804 1400 l 1,19,-1
 604 1400 l 1,16,-1
EndSplineSet
Validated: 1
EndChar

StartChar: sacute
Encoding: 347 347 241
Width: 1201
GlyphClass: 2
Flags: W
LayerCount: 2
Fore
SplineSet
200 800 m 1,0,-1
 200 600 l 1,1,-1
 1000 600 l 1,2,-1
 1000 0 l 1,3,-1
 0 0 l 1,4,-1
 0 200 l 1,5,-1
 800 200 l 1,6,-1
 800 400 l 1,7,-1
 0 400 l 1,8,-1
 0 1000 l 1,9,-1
 1000 1000 l 1,10,-1
 1000 800 l 1,11,-1
 200 800 l 1,0,-1
391 1203 m 1,12,-1
 391 1403 l 1,13,-1
 591 1403 l 1,14,-1
 591 1203 l 1,15,-1
 391 1203 l 1,12,-1
604 1407 m 1,16,-1
 604 1607 l 1,17,-1
 804 1607 l 1,18,-1
 804 1407 l 1,19,-1
 604 1407 l 1,16,-1
EndSplineSet
Validated: 1
EndChar

StartChar: Scedilla
Encoding: 350 350 244
Width: 1201
GlyphClass: 2
Flags: W
LayerCount: 2
Fore
SplineSet
671 -64 m 1,0,-1
 450 -345 l 1,1,-1
 302 -345 l 1,2,-1
 435 -64 l 1,3,-1
 671 -64 l 1,0,-1
200 800 m 1,4,-1
 200 600 l 1,5,-1
 1000 600 l 1,6,-1
 1000 0 l 1,7,-1
 0 0 l 1,8,-1
 0 200 l 1,9,-1
 800 200 l 1,10,-1
 800 400 l 1,11,-1
 0 400 l 1,12,-1
 0 1000 l 1,13,-1
 1000 1000 l 1,14,-1
 1000 800 l 1,15,-1
 200 800 l 1,4,-1
EndSplineSet
Validated: 1
EndChar

StartChar: scedilla
Encoding: 351 351 245
Width: 1201
GlyphClass: 2
Flags: W
LayerCount: 2
Fore
SplineSet
671 -64 m 1,0,-1
 450 -345 l 1,1,-1
 302 -345 l 1,2,-1
 435 -64 l 1,3,-1
 671 -64 l 1,0,-1
200 800 m 1,4,-1
 200 600 l 1,5,-1
 1000 600 l 1,6,-1
 1000 0 l 1,7,-1
 0 0 l 1,8,-1
 0 200 l 1,9,-1
 800 200 l 1,10,-1
 800 400 l 1,11,-1
 0 400 l 1,12,-1
 0 1000 l 1,13,-1
 1000 1000 l 1,14,-1
 1000 800 l 1,15,-1
 200 800 l 1,4,-1
EndSplineSet
Validated: 1
EndChar

StartChar: Scaron
Encoding: 352 352 246
Width: 1201
GlyphClass: 2
Flags: W
LayerCount: 2
Fore
SplineSet
808 1348 m 1,0,-1
 604 1348 l 1,1,-1
 495 1178 l 1,2,-1
 380 1348 l 1,3,-1
 176 1348 l 1,4,-1
 393 1067 l 1,5,-1
 583 1067 l 1,6,-1
 808 1348 l 1,0,-1
200 800 m 1,7,-1
 200 600 l 1,8,-1
 1000 600 l 1,9,-1
 1000 0 l 1,10,-1
 0 0 l 1,11,-1
 0 200 l 1,12,-1
 800 200 l 1,13,-1
 800 400 l 1,14,-1
 0 400 l 1,15,-1
 0 1000 l 1,16,-1
 1000 1000 l 1,17,-1
 1000 800 l 1,18,-1
 200 800 l 1,7,-1
EndSplineSet
Validated: 9
EndChar

StartChar: scaron
Encoding: 353 353 247
Width: 1201
GlyphClass: 2
Flags: W
LayerCount: 2
Fore
SplineSet
808 1348 m 1,0,-1
 604 1348 l 1,1,-1
 495 1178 l 1,2,-1
 380 1348 l 1,3,-1
 176 1348 l 1,4,-1
 393 1067 l 1,5,-1
 583 1067 l 1,6,-1
 808 1348 l 1,0,-1
200 800 m 1,7,-1
 200 600 l 1,8,-1
 1000 600 l 1,9,-1
 1000 0 l 1,10,-1
 0 0 l 1,11,-1
 0 200 l 1,12,-1
 800 200 l 1,13,-1
 800 400 l 1,14,-1
 0 400 l 1,15,-1
 0 1000 l 1,16,-1
 1000 1000 l 1,17,-1
 1000 800 l 1,18,-1
 200 800 l 1,7,-1
EndSplineSet
Validated: 9
EndChar

StartChar: Tcaron
Encoding: 356 356 250
Width: 1200
GlyphClass: 2
Flags: W
LayerCount: 2
Fore
SplineSet
808 1348 m 1,0,-1
 604 1348 l 1,1,-1
 495 1178 l 1,2,-1
 380 1348 l 1,3,-1
 176 1348 l 1,4,-1
 393 1067 l 1,5,-1
 583 1067 l 1,6,-1
 808 1348 l 1,0,-1
0 800 m 1,7,-1
 0 1000 l 1,8,-1
 1000 1000 l 1,9,-1
 1000 800 l 1,10,-1
 600 800 l 1,11,-1
 600 0 l 1,12,-1
 400 0 l 1,13,-1
 400 800 l 1,14,-1
 0 800 l 1,7,-1
EndSplineSet
Validated: 9
EndChar

StartChar: tcaron
Encoding: 357 357 251
Width: 1200
GlyphClass: 2
Flags: W
LayerCount: 2
Fore
SplineSet
808 1348 m 1,0,-1
 604 1348 l 1,1,-1
 495 1178 l 1,2,-1
 380 1348 l 1,3,-1
 176 1348 l 1,4,-1
 393 1067 l 1,5,-1
 583 1067 l 1,6,-1
 808 1348 l 1,0,-1
0 800 m 1,7,-1
 0 1000 l 1,8,-1
 1000 1000 l 1,9,-1
 1000 800 l 1,10,-1
 600 800 l 1,11,-1
 600 0 l 1,12,-1
 400 0 l 1,13,-1
 400 800 l 1,14,-1
 0 800 l 1,7,-1
EndSplineSet
Validated: 9
EndChar

StartChar: Umacron
Encoding: 362 362 256
Width: 1201
GlyphClass: 2
Flags: W
LayerCount: 2
Fore
SplineSet
264 1340 m 5,0,-1
 716 1340 l 5,1,-1
 716 1140 l 5,2,-1
 264 1140 l 5,3,-1
 264 1340 l 5,0,-1
200 200 m 1,4,-1
 800 200 l 1,5,-1
 800 1000 l 1,6,-1
 1000 1000 l 1,7,-1
 1000 0 l 1,8,-1
 0 0 l 1,9,-1
 0 1000 l 1,10,-1
 200 1000 l 1,11,-1
 200 200 l 1,4,-1
EndSplineSet
Validated: 1
EndChar

StartChar: umacron
Encoding: 363 363 257
Width: 1201
GlyphClass: 2
Flags: W
LayerCount: 2
Fore
SplineSet
264 1340 m 5,0,-1
 716 1340 l 5,1,-1
 716 1140 l 5,2,-1
 264 1140 l 5,3,-1
 264 1340 l 5,0,-1
200 200 m 1,4,-1
 800 200 l 1,5,-1
 800 1000 l 1,6,-1
 1000 1000 l 1,7,-1
 1000 0 l 1,8,-1
 0 0 l 1,9,-1
 0 1000 l 1,10,-1
 200 1000 l 1,11,-1
 200 200 l 1,4,-1
EndSplineSet
Validated: 1
EndChar

StartChar: Uring
Encoding: 366 366 260
Width: 1175
GlyphClass: 2
Flags: W
LayerCount: 2
Fore
SplineSet
416 1434 m 1,0,-1
 416 1238 l 1,1,-1
 603 1238 l 1,2,-1
 603 1434 l 1,3,-1
 416 1434 l 1,0,-1
708 1138 m 1,4,-1
 308 1138 l 1,5,-1
 308 1538 l 1,6,-1
 708 1538 l 1,7,-1
 708 1138 l 1,4,-1
708 1138 m 1024,8,-1
200 200 m 1,9,-1
 800 200 l 1,10,-1
 800 1000 l 1,11,-1
 1000 1000 l 1,12,-1
 1000 0 l 1,13,-1
 0 0 l 1,14,-1
 0 1000 l 1,15,-1
 200 1000 l 1,16,-1
 200 200 l 1,9,-1
EndSplineSet
Validated: 1
EndChar

StartChar: uring
Encoding: 367 367 261
Width: 1175
GlyphClass: 2
Flags: W
LayerCount: 2
Fore
SplineSet
416 1434 m 1,0,-1
 416 1238 l 1,1,-1
 603 1238 l 1,2,-1
 603 1434 l 1,3,-1
 416 1434 l 1,0,-1
708 1138 m 1,4,-1
 308 1138 l 1,5,-1
 308 1538 l 1,6,-1
 708 1538 l 1,7,-1
 708 1138 l 1,4,-1
708 1138 m 1024,8,-1
200 200 m 1,9,-1
 800 200 l 1,10,-1
 800 1000 l 1,11,-1
 1000 1000 l 1,12,-1
 1000 0 l 1,13,-1
 0 0 l 1,14,-1
 0 1000 l 1,15,-1
 200 1000 l 1,16,-1
 200 200 l 1,9,-1
EndSplineSet
Validated: 1
EndChar

StartChar: Uhungarumlaut
Encoding: 368 368 262
Width: 1144
GlyphClass: 2
Flags: W
LayerCount: 2
Fore
SplineSet
771 1095 m 1,0,-1
 587 1095 l 1,1,-1
 587 1300 l 1,2,-1
 771 1300 l 1,3,-1
 771 1095 l 1,0,-1
401 1095 m 1,4,-1
 216 1095 l 1,5,-1
 216 1300 l 1,6,-1
 401 1300 l 1,7,-1
 401 1095 l 1,4,-1
200 200 m 1,8,-1
 800 200 l 1,9,-1
 800 1000 l 1,10,-1
 1000 1000 l 1,11,-1
 1000 0 l 1,12,-1
 0 0 l 1,13,-1
 0 1000 l 1,14,-1
 200 1000 l 1,15,-1
 200 200 l 1,8,-1
EndSplineSet
Validated: 1
EndChar

StartChar: uhungarumlaut
Encoding: 369 369 263
Width: 1144
GlyphClass: 2
Flags: W
LayerCount: 2
Fore
SplineSet
771 1095 m 1,0,-1
 587 1095 l 1,1,-1
 587 1300 l 1,2,-1
 771 1300 l 1,3,-1
 771 1095 l 1,0,-1
401 1095 m 1,4,-1
 216 1095 l 1,5,-1
 216 1300 l 1,6,-1
 401 1300 l 1,7,-1
 401 1095 l 1,4,-1
200 200 m 1,8,-1
 800 200 l 1,9,-1
 800 1000 l 1,10,-1
 1000 1000 l 1,11,-1
 1000 0 l 1,12,-1
 0 0 l 1,13,-1
 0 1000 l 1,14,-1
 200 1000 l 1,15,-1
 200 200 l 1,8,-1
EndSplineSet
Validated: 1
EndChar

StartChar: Uogonek
Encoding: 370 370 264
Width: 1144
GlyphClass: 2
Flags: W
LayerCount: 2
Fore
SplineSet
615 -395 m 1,0,-1
 431 -395 l 1,1,-1
 431 10 l 1,2,-1
 615 10 l 1,3,-1
 615 -395 l 1,0,-1
789 -397 m 1,4,-1
 604 -397 l 1,5,-1
 604 -192 l 1,6,-1
 789 -192 l 1,7,-1
 789 -397 l 1,4,-1
200 200 m 1,8,-1
 800 200 l 1,9,-1
 800 1000 l 1,10,-1
 1000 1000 l 1,11,-1
 1000 0 l 1,12,-1
 0 0 l 1,13,-1
 0 1000 l 1,14,-1
 200 1000 l 1,15,-1
 200 200 l 1,8,-1
EndSplineSet
EndChar

StartChar: uogonek
Encoding: 371 371 265
Width: 1144
GlyphClass: 2
Flags: W
LayerCount: 2
Fore
SplineSet
968 -403 m 1,0,-1
 549 -403 l 1,1,-1
 549 -198 l 1,2,-1
 968 -198 l 1,3,-1
 968 -403 l 1,0,-1
752 -199 m 1,4,-1
 545 -199 l 1,5,-1
 545 6 l 1,6,-1
 752 6 l 1,7,-1
 752 -199 l 1,4,-1
952 1024 m 21,8,-1
 752 1024 l 5,9,-1
 748 418 l 1,10,-1
 952 414 l 9,11,-1
 952 1024 l 21,8,-1
752 209 m 1,12,-1
 203 209 l 1,13,-1
 203 414 l 1,14,-1
 752 414 l 1,15,-1
 752 209 l 1,12,-1
960 5 m 1,16,-1
 753 5 l 1,17,-1
 753 210 l 1,18,-1
 960 210 l 1,19,-1
 960 5 l 1,16,-1
204 206 m 1,20,-1
 200 410 l 1,21,-1
 200 1020 l 5,22,-1
 0 1020 l 5,23,-1
 0 210 l 1,24,-1
 204 206 l 1,20,-1
EndSplineSet
EndChar

StartChar: Ydieresis
Encoding: 376 376 270
Width: 1181
GlyphClass: 2
Flags: W
LayerCount: 2
Fore
SplineSet
768 1090 m 1,0,-1
 584 1090 l 1,1,-1
 584 1295 l 1,2,-1
 768 1295 l 1,3,-1
 768 1090 l 1,0,-1
398 1090 m 1,4,-1
 213 1090 l 1,5,-1
 213 1295 l 1,6,-1
 398 1295 l 1,7,-1
 398 1090 l 1,4,-1
200 600 m 1,8,-1
 800 600 l 1,9,-1
 800 1000 l 1,10,-1
 1000 1000 l 1,11,-1
 1000 400 l 1,12,-1
 600 400 l 1,13,-1
 600 0 l 1,14,-1
 400 0 l 1,15,-1
 400 400 l 1,16,-1
 0 400 l 1,17,-1
 0 1000 l 1,18,-1
 200 1000 l 1,19,-1
 200 600 l 1,8,-1
EndSplineSet
Validated: 1
EndChar

StartChar: Zacute
Encoding: 377 377 271
Width: 1201
GlyphClass: 2
Flags: W
LayerCount: 2
Fore
SplineSet
0 800 m 1,0,-1
 0 1000 l 1,1,-1
 1000 1000 l 1,2,-1
 1000 800 l 1,3,-1
 800 800 l 1,4,-1
 800 600 l 1,5,-1
 600 600 l 1,6,-1
 600 800 l 1,7,-1
 0 800 l 1,0,-1
400 600 m 1,8,-1
 600 600 l 1,9,-1
 600 400 l 1,10,-1
 400 400 l 1,11,-1
 400 600 l 1,8,-1
200 400 m 1,12,-1
 400 400 l 1,13,-1
 400 200 l 1,14,-1
 1000 200 l 1,15,-1
 1000 0 l 1,16,-1
 0 0 l 1,17,-1
 0 200 l 1,18,-1
 200 200 l 1,19,-1
 200 400 l 1,12,-1
391 1196 m 1,20,-1
 391 1396 l 1,21,-1
 591 1396 l 1,22,-1
 591 1196 l 1,23,-1
 391 1196 l 1,20,-1
596 1401 m 1,24,-1
 596 1601 l 1,25,-1
 796 1601 l 1,26,-1
 796 1401 l 1,27,-1
 596 1401 l 1,24,-1
EndSplineSet
Validated: 5
EndChar

StartChar: zacute
Encoding: 378 378 272
Width: 1201
GlyphClass: 2
Flags: W
LayerCount: 2
Fore
SplineSet
0 800 m 1,0,-1
 0 1000 l 1,1,-1
 1000 1000 l 1,2,-1
 1000 800 l 1,3,-1
 800 800 l 1,4,-1
 800 600 l 1,5,-1
 600 600 l 1,6,-1
 600 800 l 1,7,-1
 0 800 l 1,0,-1
400 600 m 1,8,-1
 600 600 l 1,9,-1
 600 400 l 1,10,-1
 400 400 l 1,11,-1
 400 600 l 1,8,-1
200 400 m 1,12,-1
 400 400 l 1,13,-1
 400 200 l 1,14,-1
 1000 200 l 1,15,-1
 1000 0 l 1,16,-1
 0 0 l 1,17,-1
 0 200 l 1,18,-1
 200 200 l 1,19,-1
 200 400 l 1,12,-1
391 1196 m 1,20,-1
 391 1396 l 1,21,-1
 591 1396 l 1,22,-1
 591 1196 l 1,23,-1
 391 1196 l 1,20,-1
596 1401 m 1,24,-1
 596 1601 l 1,25,-1
 796 1601 l 1,26,-1
 796 1401 l 1,27,-1
 596 1401 l 1,24,-1
EndSplineSet
Validated: 5
EndChar

StartChar: Zdotaccent
Encoding: 379 379 273
Width: 1201
GlyphClass: 2
Flags: W
LayerCount: 2
Fore
SplineSet
0 800 m 1,0,-1
 0 1000 l 1,1,-1
 1000 1000 l 1,2,-1
 1000 800 l 1,3,-1
 800 800 l 1,4,-1
 800 600 l 1,5,-1
 600 600 l 1,6,-1
 600 800 l 1,7,-1
 0 800 l 1,0,-1
400 600 m 1,8,-1
 600 600 l 1,9,-1
 600 400 l 1,10,-1
 400 400 l 1,11,-1
 400 600 l 1,8,-1
200 400 m 1,12,-1
 400 400 l 1,13,-1
 400 200 l 1,14,-1
 1000 200 l 1,15,-1
 1000 0 l 1,16,-1
 0 0 l 1,17,-1
 0 200 l 1,18,-1
 200 200 l 1,19,-1
 200 400 l 1,12,-1
391 1196 m 1,20,-1
 391 1396 l 1,21,-1
 591 1396 l 1,22,-1
 591 1196 l 1,23,-1
 391 1196 l 1,20,-1
EndSplineSet
Validated: 5
EndChar

StartChar: zdotaccent
Encoding: 380 380 274
Width: 1201
GlyphClass: 2
Flags: W
LayerCount: 2
Fore
SplineSet
0 800 m 1,0,-1
 0 1000 l 1,1,-1
 1000 1000 l 1,2,-1
 1000 800 l 1,3,-1
 800 800 l 1,4,-1
 800 600 l 1,5,-1
 600 600 l 1,6,-1
 600 800 l 1,7,-1
 0 800 l 1,0,-1
400 600 m 1,8,-1
 600 600 l 1,9,-1
 600 400 l 1,10,-1
 400 400 l 1,11,-1
 400 600 l 1,8,-1
200 400 m 1,12,-1
 400 400 l 1,13,-1
 400 200 l 1,14,-1
 1000 200 l 1,15,-1
 1000 0 l 1,16,-1
 0 0 l 1,17,-1
 0 200 l 1,18,-1
 200 200 l 1,19,-1
 200 400 l 1,12,-1
391 1196 m 5,20,-1
 391 1396 l 5,21,-1
 591 1396 l 5,22,-1
 591 1196 l 5,23,-1
 391 1196 l 5,20,-1
EndSplineSet
Validated: 5
EndChar

StartChar: Zcaron
Encoding: 381 381 275
Width: 1201
GlyphClass: 2
Flags: W
LayerCount: 2
Fore
SplineSet
808 1348 m 1,0,-1
 604 1348 l 1,1,-1
 495 1178 l 1,2,-1
 380 1348 l 1,3,-1
 176 1348 l 1,4,-1
 393 1067 l 1,5,-1
 583 1067 l 1,6,-1
 808 1348 l 1,0,-1
0 800 m 1,7,-1
 0 1000 l 1,8,-1
 1000 1000 l 1,9,-1
 1000 800 l 1,10,-1
 800 800 l 1,11,-1
 800 600 l 1,12,-1
 600 600 l 1,13,-1
 600 800 l 1,14,-1
 0 800 l 1,7,-1
400 600 m 1,15,-1
 600 600 l 1,16,-1
 600 400 l 1,17,-1
 400 400 l 1,18,-1
 400 600 l 1,15,-1
200 400 m 1,19,-1
 400 400 l 1,20,-1
 400 200 l 1,21,-1
 1000 200 l 1,22,-1
 1000 0 l 1,23,-1
 0 0 l 1,24,-1
 0 200 l 1,25,-1
 200 200 l 1,26,-1
 200 400 l 1,19,-1
EndSplineSet
Validated: 5
EndChar

StartChar: zcaron
Encoding: 382 382 276
Width: 1201
GlyphClass: 2
Flags: W
LayerCount: 2
Fore
SplineSet
808 1348 m 1,0,-1
 604 1348 l 1,1,-1
 495 1178 l 1,2,-1
 380 1348 l 1,3,-1
 176 1348 l 1,4,-1
 393 1067 l 1,5,-1
 583 1067 l 1,6,-1
 808 1348 l 1,0,-1
0 800 m 1,7,-1
 0 1000 l 1,8,-1
 1000 1000 l 1,9,-1
 1000 800 l 1,10,-1
 800 800 l 1,11,-1
 800 600 l 1,12,-1
 600 600 l 1,13,-1
 600 800 l 1,14,-1
 0 800 l 1,7,-1
400 600 m 1,15,-1
 600 600 l 1,16,-1
 600 400 l 1,17,-1
 400 400 l 1,18,-1
 400 600 l 1,15,-1
200 400 m 1,19,-1
 400 400 l 1,20,-1
 400 200 l 1,21,-1
 1000 200 l 1,22,-1
 1000 0 l 1,23,-1
 0 0 l 1,24,-1
 0 200 l 1,25,-1
 200 200 l 1,26,-1
 200 400 l 1,19,-1
EndSplineSet
Validated: 5
EndChar

StartChar: uni0218
Encoding: 536 536 284
Width: 1201
GlyphClass: 2
Flags: W
LayerCount: 2
Fore
SplineSet
671 -64 m 1,0,-1
 450 -345 l 1,1,-1
 302 -345 l 1,2,-1
 435 -64 l 1,3,-1
 671 -64 l 1,0,-1
200 800 m 1,4,-1
 200 600 l 1,5,-1
 1000 600 l 1,6,-1
 1000 0 l 1,7,-1
 0 0 l 1,8,-1
 0 200 l 1,9,-1
 800 200 l 1,10,-1
 800 400 l 1,11,-1
 0 400 l 1,12,-1
 0 1000 l 1,13,-1
 1000 1000 l 1,14,-1
 1000 800 l 1,15,-1
 200 800 l 1,4,-1
EndSplineSet
Validated: 1
EndChar

StartChar: uni0219
Encoding: 537 537 285
Width: 1201
GlyphClass: 2
Flags: W
LayerCount: 2
Fore
SplineSet
671 -64 m 1,0,-1
 450 -345 l 1,1,-1
 302 -345 l 1,2,-1
 435 -64 l 1,3,-1
 671 -64 l 1,0,-1
200 800 m 1,4,-1
 200 600 l 1,5,-1
 1000 600 l 1,6,-1
 1000 0 l 1,7,-1
 0 0 l 1,8,-1
 0 200 l 1,9,-1
 800 200 l 1,10,-1
 800 400 l 1,11,-1
 0 400 l 1,12,-1
 0 1000 l 1,13,-1
 1000 1000 l 1,14,-1
 1000 800 l 1,15,-1
 200 800 l 1,4,-1
EndSplineSet
Validated: 1
EndChar

StartChar: uni021A
Encoding: 538 538 286
Width: 1200
GlyphClass: 2
Flags: W
LayerCount: 2
Fore
SplineSet
626 -78 m 1,0,-1
 405 -359 l 1,1,-1
 257 -359 l 1,2,-1
 390 -78 l 1,3,-1
 626 -78 l 1,0,-1
0 800 m 1,4,-1
 0 1000 l 1,5,-1
 1000 1000 l 1,6,-1
 1000 800 l 1,7,-1
 600 800 l 1,8,-1
 600 0 l 1,9,-1
 400 0 l 1,10,-1
 400 800 l 1,11,-1
 0 800 l 1,4,-1
EndSplineSet
Validated: 1
EndChar

StartChar: uni021B
Encoding: 539 539 287
Width: 1200
GlyphClass: 2
Flags: W
LayerCount: 2
Fore
SplineSet
626 -78 m 1,0,-1
 405 -359 l 1,1,-1
 257 -359 l 1,2,-1
 390 -78 l 1,3,-1
 626 -78 l 1,0,-1
0 800 m 1,4,-1
 0 1000 l 1,5,-1
 1000 1000 l 1,6,-1
 1000 800 l 1,7,-1
 600 800 l 1,8,-1
 600 0 l 1,9,-1
 400 0 l 1,10,-1
 400 800 l 1,11,-1
 0 800 l 1,4,-1
EndSplineSet
Validated: 1
EndChar

StartChar: tonos
Encoding: 900 900 295
Width: 705
GlyphClass: 2
Flags: W
LayerCount: 2
Fore
SplineSet
599 1412 m 5,0,-1
 378 1131 l 5,1,-1
 230 1131 l 5,2,-1
 363 1412 l 5,3,-1
 599 1412 l 5,0,-1
EndSplineSet
Validated: 1
EndChar

StartChar: Alphatonos
Encoding: 902 902 297
Width: 1085
GlyphClass: 2
Flags: W
LayerCount: 2
Fore
SplineSet
-54 1000 m 5,0,-1
 -275 719 l 5,1,-1
 -423 719 l 5,2,-1
 -290 1000 l 5,3,-1
 -54 1000 l 5,0,-1
201 797 m 1,4,-1
 201 601 l 1,5,-1
 799 601 l 1,6,-1
 799 797 l 1,7,-1
 201 797 l 1,4,-1
201 392 m 1,8,-1
 201 0 l 1,9,-1
 0 0 l 1,10,-1
 0 1000 l 1,11,-1
 1000 1000 l 1,12,-1
 1000 0 l 1,13,-1
 799 0 l 1,14,-1
 799 392 l 1,15,-1
 201 392 l 1,8,-1
EndSplineSet
Validated: 1
EndChar

StartChar: Epsilontonos
Encoding: 904 904 299
Width: 1168
GlyphClass: 2
Flags: W
LayerCount: 2
Fore
SplineSet
-54 1000 m 5,0,-1
 -275 719 l 5,1,-1
 -423 719 l 5,2,-1
 -290 1000 l 5,3,-1
 -54 1000 l 5,0,-1
1000 800 m 1,4,-1
 195 800 l 1,5,-1
 195 600 l 1,6,-1
 597 600 l 1,7,-1
 597 400 l 1,8,-1
 195 400 l 1,9,-1
 195 200 l 1,10,-1
 1000 200 l 1,11,-1
 1000 0 l 1,12,-1
 0 0 l 1,13,-1
 0 1000 l 1,14,-1
 1000 1000 l 1,15,-1
 1000 800 l 1,4,-1
EndSplineSet
Validated: 1
EndChar

StartChar: Etatonos
Encoding: 905 905 300
Width: 1200
GlyphClass: 2
Flags: W
LayerCount: 2
Fore
SplineSet
-54 1000 m 5,0,-1
 -275 719 l 5,1,-1
 -423 719 l 5,2,-1
 -290 1000 l 5,3,-1
 -54 1000 l 5,0,-1
200 600 m 1,4,-1
 800 600 l 1,5,-1
 800 1000 l 1,6,-1
 1000 1000 l 1,7,-1
 1000 0 l 1,8,-1
 800 0 l 1,9,-1
 800 400 l 1,10,-1
 200 400 l 1,11,-1
 200 0 l 1,12,-1
 0 0 l 1,13,-1
 0 1000 l 1,14,-1
 200 1000 l 1,15,-1
 200 600 l 1,4,-1
EndSplineSet
Validated: 1
EndChar

StartChar: Iotatonos
Encoding: 906 906 301
Width: 400
GlyphClass: 2
Flags: W
LayerCount: 2
Fore
SplineSet
-54 1000 m 5,0,-1
 -275 719 l 5,1,-1
 -423 719 l 5,2,-1
 -290 1000 l 5,3,-1
 -54 1000 l 5,0,-1
0 1000 m 1,4,-1
 200 1000 l 1,5,-1
 200 0 l 1,6,-1
 0 0 l 1,7,-1
 0 1000 l 1,4,-1
EndSplineSet
Validated: 1
EndChar

StartChar: Omicrontonos
Encoding: 908 908 302
Width: 1203
GlyphClass: 2
Flags: W
LayerCount: 2
Fore
SplineSet
-54 1000 m 5,0,-1
 -275 719 l 5,1,-1
 -423 719 l 5,2,-1
 -290 1000 l 5,3,-1
 -54 1000 l 5,0,-1
0 0 m 5,4,-1
 0 1000 l 5,5,-1
 200 1000 l 5,6,-1
 200 0 l 5,7,-1
 0 0 l 5,4,-1
800 0 m 5,8,-1
 800 1000 l 5,9,-1
 1000 1000 l 5,10,-1
 1000 0 l 5,11,-1
 800 0 l 5,8,-1
1000 0 m 5,12,-1
 0 0 l 5,13,-1
 0 200 l 5,14,-1
 1000 200 l 5,15,-1
 1000 0 l 5,12,-1
1000 800 m 5,16,-1
 0 800 l 5,17,-1
 0 1000 l 5,18,-1
 1000 1000 l 5,19,-1
 1000 800 l 5,16,-1
EndSplineSet
Validated: 5
EndChar

StartChar: Upsilontonos
Encoding: 910 910 303
Width: 1201
GlyphClass: 2
Flags: W
LayerCount: 2
Fore
SplineSet
200 600 m 1,0,-1
 800 600 l 1,1,-1
 800 1000 l 1,2,-1
 1000 1000 l 1,3,-1
 1000 400 l 1,4,-1
 600 400 l 1,5,-1
 600 0 l 1,6,-1
 400 0 l 1,7,-1
 400 400 l 1,8,-1
 0 400 l 1,9,-1
 0 1000 l 1,10,-1
 200 1000 l 1,11,-1
 200 600 l 1,0,-1
EndSplineSet
Validated: 1
EndChar

StartChar: Omegatonos
Encoding: 911 911 304
Width: 1203
GlyphClass: 2
Flags: W
LayerCount: 2
Fore
SplineSet
1060 0 m 5,0,-1
 634 0 l 5,1,-1
 634 208 l 5,2,-1
 1058 210 l 5,3,-1
 1060 0 l 5,0,-1
426 0 m 5,4,-1
 0 0 l 5,5,-1
 0 198 l 5,6,-1
 424 200 l 5,7,-1
 426 0 l 5,4,-1
636 391 m 5,8,-1
 856 391 l 5,9,-1
 856 0 l 5,10,-1
 636 0 l 5,11,-1
 636 391 l 5,8,-1
206 391 m 5,12,-1
 426 391 l 5,13,-1
 426 0 l 5,14,-1
 206 0 l 5,15,-1
 206 391 l 5,12,-1
0 395 m 5,16,-1
 0 864 l 5,17,-1
 209 866 l 5,18,-1
 206 391 l 5,19,-1
 0 395 l 5,16,-1
856 391 m 5,20,-1
 861 866 l 5,21,-1
 1050 866 l 5,22,-1
 1052 395 l 5,23,-1
 856 391 l 5,20,-1
861 866 m 5,24,-1
 209 866 l 5,25,-1
 207 1051 l 5,26,-1
 857 1051 l 5,27,-1
 861 866 l 5,24,-1
-54 1000 m 1,28,-1
 -275 719 l 1,29,-1
 -423 719 l 1,30,-1
 -290 1000 l 1,31,-1
 -54 1000 l 1,28,-1
-2 381 m 1025,32,-1
EndSplineSet
Validated: 5
EndChar

StartChar: iotadieresistonos
Encoding: 912 912 305
Width: 1201
GlyphClass: 2
Flags: W
LayerCount: 2
Fore
SplineSet
766 1512 m 1,0,-1
 545 1231 l 1,1,-1
 397 1231 l 1,2,-1
 530 1512 l 1,3,-1
 766 1512 l 1,0,-1
110 1100 m 1,4,-1
 110 1300 l 1,5,-1
 310 1300 l 1,6,-1
 310 1100 l 1,7,-1
 110 1100 l 1,4,-1
700 1100 m 1,8,-1
 700 1300 l 1,9,-1
 900 1300 l 1,10,-1
 900 1100 l 1,11,-1
 700 1100 l 1,8,-1
610 200 m 1,12,-1
 860 200 l 1,13,-1
 860 0 l 1,14,-1
 410 0 l 1,15,-1
 410 1000 l 1,16,-1
 610 1000 l 1,17,-1
 610 200 l 1,12,-1
EndSplineSet
EndChar

StartChar: Alpha
Encoding: 913 913 306
Width: 1202
GlyphClass: 2
Flags: W
LayerCount: 2
Fore
SplineSet
201 797 m 5,0,-1
 201 601 l 5,1,-1
 799 601 l 5,2,-1
 799 797 l 5,3,-1
 201 797 l 5,0,-1
201 392 m 5,4,-1
 201 0 l 5,5,-1
 0 0 l 5,6,-1
 0 1000 l 5,7,-1
 1000 1000 l 5,8,-1
 1000 0 l 5,9,-1
 799 0 l 5,10,-1
 799 392 l 5,11,-1
 201 392 l 5,4,-1
EndSplineSet
Validated: 1
EndChar

StartChar: Beta
Encoding: 914 914 307
Width: 1201
GlyphClass: 2
Flags: W
LayerCount: 2
Fore
SplineSet
800 800 m 5,0,-1
 200 800 l 5,1,-1
 200 600 l 5,2,-1
 800 600 l 5,3,-1
 800 800 l 5,4,-1
 1000 800 l 5,5,-1
 1000 200 l 5,6,-1
 800 200 l 5,7,-1
 800 400 l 5,8,-1
 200 400 l 5,9,-1
 200 200 l 5,10,-1
 800 200 l 5,11,-1
 800 0 l 5,12,-1
 0 0 l 5,13,-1
 0 1000 l 5,14,-1
 800 1000 l 5,15,-1
 800 800 l 5,0,-1
EndSplineSet
Validated: 5
EndChar

StartChar: Gamma
Encoding: 915 915 308
Width: 1195
GlyphClass: 2
Flags: W
LayerCount: 2
Fore
SplineSet
987 800 m 5,0,-1
 205 800 l 5,1,-1
 205 13 l 5,2,-1
 192 0 l 5,3,-1
 0 0 l 5,4,-1
 0 1000 l 5,5,-1
 1000 1000 l 5,6,-1
 1000 813 l 5,7,-1
 987 800 l 5,0,-1
EndSplineSet
Validated: 1
EndChar

StartChar: uni0394
Encoding: 916 916 309
Width: 1200
GlyphClass: 2
Flags: W
LayerCount: 2
Fore
SplineSet
200 200 m 1,0,-1
 800 200 l 1,1,-1
 800 0 l 1,2,-1
 200 0 l 1,3,-1
 200 200 l 1,0,-1
400 800 m 1025,4,-1
600 800 m 1025,5,-1
400 1000 m 1,6,-1
 600 1000 l 1,7,-1
 600 800 l 1,8,-1
 400 800 l 1,9,-1
 400 1000 l 1,6,-1
200 800 m 1,10,-1
 400 800 l 1,11,-1
 400 600 l 1,12,-1
 200 600 l 1,13,-1
 200 800 l 1,10,-1
600 800 m 1,14,-1
 800 800 l 1,15,-1
 800 600 l 1,16,-1
 600 600 l 1,17,-1
 600 800 l 1,14,-1
200 600 m 1,18,-1
 200 0 l 1,19,-1
 0 0 l 1,20,-1
 0 600 l 1,21,-1
 200 600 l 1,18,-1
800 600 m 1,22,-1
 1000 600 l 1,23,-1
 1000 0 l 1,24,-1
 800 0 l 1,25,-1
 800 600 l 1,22,-1
EndSplineSet
Validated: 5
EndChar

StartChar: Epsilon
Encoding: 917 917 310
Width: 1200
GlyphClass: 2
Flags: W
LayerCount: 2
Fore
SplineSet
1000 800 m 5,0,-1
 195 800 l 5,1,-1
 195 600 l 5,2,-1
 1002 600 l 5,3,-1
 1002 400 l 5,4,-1
 195 400 l 5,5,-1
 195 200 l 5,6,-1
 1000 200 l 5,7,-1
 1000 0 l 5,8,-1
 0 0 l 5,9,-1
 0 1000 l 5,10,-1
 1000 1000 l 5,11,-1
 1000 800 l 5,0,-1
EndSplineSet
Validated: 1
EndChar

StartChar: Zeta
Encoding: 918 918 311
Width: 1201
GlyphClass: 2
Flags: W
LayerCount: 2
Fore
SplineSet
0 800 m 5,0,-1
 0 1000 l 5,1,-1
 1000 1000 l 5,2,-1
 1000 800 l 5,3,-1
 800 800 l 5,4,-1
 800 600 l 5,5,-1
 600 600 l 5,6,-1
 600 800 l 5,7,-1
 0 800 l 5,0,-1
400 600 m 5,8,-1
 600 600 l 5,9,-1
 600 400 l 5,10,-1
 400 400 l 5,11,-1
 400 600 l 5,8,-1
200 400 m 5,12,-1
 400 400 l 5,13,-1
 400 200 l 5,14,-1
 1000 200 l 5,15,-1
 1000 0 l 5,16,-1
 0 0 l 5,17,-1
 0 200 l 5,18,-1
 200 200 l 5,19,-1
 200 400 l 5,12,-1
EndSplineSet
Validated: 5
EndChar

StartChar: Eta
Encoding: 919 919 312
Width: 1200
GlyphClass: 2
Flags: W
LayerCount: 2
Fore
SplineSet
200 600 m 5,0,-1
 800 600 l 5,1,-1
 800 1000 l 5,2,-1
 1000 1000 l 5,3,-1
 1000 0 l 5,4,-1
 800 0 l 5,5,-1
 800 400 l 5,6,-1
 200 400 l 5,7,-1
 200 0 l 5,8,-1
 0 0 l 5,9,-1
 0 1000 l 5,10,-1
 200 1000 l 5,11,-1
 200 600 l 5,0,-1
EndSplineSet
Validated: 1
EndChar

StartChar: Theta
Encoding: 920 920 313
Width: 1203
GlyphClass: 2
Flags: W
LayerCount: 2
Fore
SplineSet
178 656 m 1,0,-1
 834 656 l 1,1,-1
 834 560 l 1,2,-1
 178 560 l 1,3,-1
 178 656 l 1,0,-1
-10 200 m 1,4,-1
 -6 1016 l 1,5,-1
 194 1016 l 1,6,-1
 190 200 l 1,7,-1
 -10 200 l 1,4,-1
800 208 m 1,8,-1
 800 1000 l 1,9,-1
 1000 1000 l 1,10,-1
 1000 208 l 1,11,-1
 800 208 l 1,8,-1
822 0 m 1,12,-1
 190 0 l 1,13,-1
 190 200 l 1,14,-1
 822 200 l 1,15,-1
 822 0 l 1,12,-1
814 1012 m 1,16,-1
 202 1012 l 1,17,-1
 198 1212 l 1,18,-1
 810 1212 l 1,19,-1
 814 1012 l 1,16,-1
EndSplineSet
Validated: 5
EndChar

StartChar: Iota
Encoding: 921 921 314
Width: 400
GlyphClass: 2
Flags: W
LayerCount: 2
Fore
SplineSet
1 1071 m 1,0,-1
 201 1071 l 1,1,-1
 200 0 l 1,2,-1
 0 0 l 1,3,-1
 1 1071 l 1,0,-1
1 1071 m 1,4,-1
 1 1271 l 1,5,-1
 201 1271 l 1,6,-1
 201 1071 l 1,7,-1
 1 1071 l 1,4,-1
EndSplineSet
Validated: 5
EndChar

StartChar: Kappa
Encoding: 922 922 315
Width: 1193
GlyphClass: 2
Flags: W
LayerCount: 2
Fore
SplineSet
200 600 m 5,0,-1
 600 600 l 5,1,-1
 600 400 l 5,2,-1
 200 400 l 5,3,-1
 200 0 l 5,4,-1
 0 0 l 5,5,-1
 0 1000 l 5,6,-1
 200 1000 l 5,7,-1
 200 600 l 5,0,-1
800 1000 m 5,8,-1
 1000 1000 l 5,9,-1
 1000 800 l 5,10,-1
 800 800 l 5,11,-1
 800 1000 l 5,8,-1
600 800 m 5,12,-1
 800 800 l 5,13,-1
 800 600 l 5,14,-1
 600 600 l 5,15,-1
 600 800 l 5,12,-1
600 400 m 5,16,-1
 800 400 l 5,17,-1
 800 200 l 5,18,-1
 600 200 l 5,19,-1
 600 400 l 5,16,-1
800 200 m 5,20,-1
 1000 200 l 5,21,-1
 1000 0 l 5,22,-1
 800 0 l 5,23,-1
 800 200 l 5,20,-1
EndSplineSet
Validated: 5
EndChar

StartChar: Lambda
Encoding: 923 923 316
Width: 1200
GlyphClass: 2
Flags: W
LayerCount: 2
Fore
SplineSet
-6 192 m 5,0,-1
 194 192 l 5,1,-1
 194 -8 l 5,2,-1
 -6 -8 l 5,3,-1
 -6 192 l 5,0,-1
792 196 m 5,4,-1
 992 196 l 5,5,-1
 992 -4 l 5,6,-1
 792 -4 l 5,7,-1
 792 196 l 5,4,-1
-6 392 m 5,8,-1
 194 392 l 5,9,-1
 194 192 l 5,10,-1
 -6 192 l 5,11,-1
 -6 392 l 5,8,-1
196 600 m 5,12,-1
 396 600 l 5,13,-1
 396 400 l 5,14,-1
 196 400 l 5,15,-1
 196 600 l 5,12,-1
792 392 m 5,16,-1
 992 392 l 5,17,-1
 992 192 l 5,18,-1
 792 192 l 5,19,-1
 792 392 l 5,16,-1
600 600 m 5,20,-1
 800 600 l 5,21,-1
 800 400 l 5,22,-1
 600 400 l 5,23,-1
 600 600 l 5,20,-1
400 1000 m 5,24,-1
 600 1000 l 5,25,-1
 600 800 l 5,26,-1
 400 800 l 5,27,-1
 400 1000 l 5,24,-1
200 800 m 5,28,-1
 400 800 l 5,29,-1
 400 600 l 5,30,-1
 200 600 l 5,31,-1
 200 800 l 5,28,-1
600 800 m 5,32,-1
 800 800 l 5,33,-1
 800 600 l 5,34,-1
 600 600 l 5,35,-1
 600 800 l 5,32,-1
200 0 m 5,36,-1
 0 0 l 1029,37,-1
1000 0 m 5,38,-1
 800 0 l 1029,39,-1
EndSplineSet
Validated: 2059
EndChar

StartChar: Mu
Encoding: 924 924 317
Width: 1200
GlyphClass: 2
Flags: W
LayerCount: 2
Fore
SplineSet
200 800 m 5,0,-1
 400 800 l 5,1,-1
 400 600 l 5,2,-1
 200 600 l 5,3,-1
 200 0 l 5,4,-1
 0 0 l 5,5,-1
 0 1000 l 5,6,-1
 200 1000 l 5,7,-1
 200 800 l 5,0,-1
800 1000 m 5,8,-1
 1000 1000 l 5,9,-1
 1000 0 l 5,10,-1
 800 0 l 5,11,-1
 800 600 l 5,12,-1
 600 600 l 5,13,-1
 600 800 l 5,14,-1
 800 800 l 5,15,-1
 800 1000 l 5,8,-1
400 600 m 5,16,-1
 600 600 l 5,17,-1
 600 400 l 5,18,-1
 400 400 l 5,19,-1
 400 600 l 5,16,-1
EndSplineSet
Validated: 5
EndChar

StartChar: Nu
Encoding: 925 925 318
Width: 1201
GlyphClass: 2
Flags: W
LayerCount: 2
Fore
SplineSet
200 800 m 5,0,-1
 400 800 l 5,1,-1
 400 600 l 5,2,-1
 200 600 l 5,3,-1
 200 0 l 5,4,-1
 0 0 l 5,5,-1
 0 1000 l 5,6,-1
 200 1000 l 5,7,-1
 200 800 l 5,0,-1
800 1000 m 5,8,-1
 1000 1000 l 5,9,-1
 1000 0 l 5,10,-1
 800 0 l 5,11,-1
 800 200 l 5,12,-1
 600 200 l 5,13,-1
 600 400 l 5,14,-1
 800 400 l 5,15,-1
 800 1000 l 5,8,-1
400 600 m 5,16,-1
 600 600 l 5,17,-1
 600 400 l 5,18,-1
 400 400 l 5,19,-1
 400 600 l 5,16,-1
EndSplineSet
Validated: 5
EndChar

StartChar: Xi
Encoding: 926 926 319
Width: 1200
GlyphClass: 2
Flags: W
LayerCount: 2
Fore
SplineSet
210 200 m 1,0,-1
 1006 200 l 1,1,-1
 1006 4 l 1,2,-1
 210 4 l 1,3,-1
 210 200 l 1,0,-1
214 600 m 1,4,-1
 1010 600 l 1,5,-1
 1010 404 l 1,6,-1
 214 404 l 1,7,-1
 214 600 l 1,4,-1
214 992 m 1,8,-1
 1010 992 l 1,9,-1
 1010 796 l 1,10,-1
 214 796 l 1,11,-1
 214 992 l 1,8,-1
EndSplineSet
Validated: 1
EndChar

StartChar: Omicron
Encoding: 927 927 320
Width: 1203
GlyphClass: 2
Flags: W
LayerCount: 2
Fore
SplineSet
0 0 m 1,0,-1
 0 1000 l 1,1,-1
 200 1000 l 1,2,-1
 200 0 l 1,3,-1
 0 0 l 1,0,-1
800 0 m 1,4,-1
 800 1000 l 1,5,-1
 1000 1000 l 1,6,-1
 1000 0 l 1,7,-1
 800 0 l 1,4,-1
1000 0 m 1,8,-1
 0 0 l 1,9,-1
 0 200 l 1,10,-1
 1000 200 l 1,11,-1
 1000 0 l 1,8,-1
1000 800 m 1,12,-1
 0 800 l 1,13,-1
 0 1000 l 1,14,-1
 1000 1000 l 1,15,-1
 1000 800 l 1,12,-1
EndSplineSet
Validated: 5
EndChar

StartChar: Pi
Encoding: 928 928 321
Width: 1200
GlyphClass: 2
Flags: W
LayerCount: 2
Fore
SplineSet
200 800 m 5,0,-1
 200 0 l 5,1,-1
 0 0 l 5,2,-1
 0 1000 l 5,3,-1
 1000 1000 l 5,4,-1
 1000 0 l 5,5,-1
 800 0 l 5,6,-1
 800 800 l 5,7,-1
 200 800 l 5,0,-1
EndSplineSet
Validated: 1
EndChar

StartChar: Rho
Encoding: 929 929 322
Width: 1200
GlyphClass: 2
Flags: W
LayerCount: 2
Fore
SplineSet
200 800 m 5,0,-1
 200 600 l 5,1,-1
 800 600 l 5,2,-1
 800 800 l 5,3,-1
 200 800 l 5,0,-1
200 400 m 5,4,-1
 200 0 l 5,5,-1
 0 0 l 5,6,-1
 0 1000 l 5,7,-1
 1000 1000 l 5,8,-1
 1000 400 l 5,9,-1
 200 400 l 5,4,-1
EndSplineSet
Validated: 1
EndChar

StartChar: Sigma
Encoding: 931 931 323
Width: 1200
GlyphClass: 2
Flags: W
LayerCount: 2
Fore
SplineSet
824 800 m 1,0,-1
 0 800 l 1,1,-1
 0 1000 l 1,2,-1
 824 1000 l 1,3,-1
 824 800 l 1,0,-1
800 1000 m 1,4,-1
 1000 1000 l 1,5,-1
 1000 800 l 1,6,-1
 800 800 l 1,7,-1
 800 1000 l 1,4,-1
200 800 m 1,8,-1
 400 800 l 1,9,-1
 400 600 l 1,10,-1
 200 600 l 1,11,-1
 200 800 l 1,8,-1
400 600 m 1,12,-1
 600 600 l 1,13,-1
 600 400 l 1,14,-1
 400 400 l 1,15,-1
 400 600 l 1,12,-1
200 400 m 1,16,-1
 400 400 l 1,17,-1
 400 200 l 1,18,-1
 200 200 l 1,19,-1
 200 400 l 1,16,-1
800 200 m 1,20,-1
 800 0 l 1,21,-1
 0 0 l 1,22,-1
 0 200 l 1,23,-1
 800 200 l 1,20,-1
800 200 m 1,24,-1
 1000 200 l 1,25,-1
 1000 0 l 1,26,-1
 800 0 l 1,27,-1
 800 200 l 1,24,-1
EndSplineSet
Validated: 5
EndChar

StartChar: Tau
Encoding: 932 932 324
Width: 1200
GlyphClass: 2
Flags: W
LayerCount: 2
Fore
SplineSet
0 800 m 5,0,-1
 0 1000 l 5,1,-1
 1000 1000 l 5,2,-1
 1000 800 l 5,3,-1
 600 800 l 5,4,-1
 600 0 l 5,5,-1
 400 0 l 5,6,-1
 400 800 l 5,7,-1
 0 800 l 5,0,-1
EndSplineSet
Validated: 1
EndChar

StartChar: Upsilon
Encoding: 933 933 325
Width: 1196
GlyphClass: 2
Flags: W
LayerCount: 2
Fore
SplineSet
200 800 m 5,0,-1
 0 800 l 5,1,-1
 0 1000 l 5,2,-1
 200 1000 l 5,3,-1
 200 800 l 5,0,-1
800 1000 m 5,4,-1
 1000 1000 l 5,5,-1
 1000 800 l 5,6,-1
 800 800 l 5,7,-1
 800 1000 l 5,4,-1
200 800 m 5,8,-1
 400 800 l 5,9,-1
 400 600 l 5,10,-1
 200 600 l 5,11,-1
 200 800 l 5,8,-1
600 800 m 5,12,-1
 800 800 l 5,13,-1
 800 600 l 5,14,-1
 600 600 l 5,15,-1
 600 800 l 5,12,-1
400 600 m 5,16,-1
 600 600 l 5,17,-1
 600 0 l 5,18,-1
 400 0 l 5,19,-1
 400 600 l 5,16,-1
EndSplineSet
Validated: 5
EndChar

StartChar: Phi
Encoding: 934 934 326
Width: 1601
GlyphClass: 2
Flags: W
LayerCount: 2
Fore
SplineSet
606 1192 m 5,0,-1
 802 1192 l 5,1,-1
 802 1000 l 5,2,-1
 606 1000 l 5,3,-1
 606 1192 l 5,0,-1
0 1000 m 5,4,-1
 1400 1000 l 5,5,-1
 1400 400 l 5,6,-1
 800 400 l 5,7,-1
 800 0 l 5,8,-1
 600 0 l 5,9,-1
 600 400 l 5,10,-1
 0 400 l 5,11,-1
 0 1000 l 5,4,-1
200 800 m 5,12,-1
 200 600 l 5,13,-1
 600 600 l 5,14,-1
 600 800 l 5,15,-1
 200 800 l 5,12,-1
800 800 m 5,16,-1
 800 600 l 5,17,-1
 1200 600 l 5,18,-1
 1200 800 l 5,19,-1
 800 800 l 5,16,-1
EndSplineSet
Validated: 5
EndChar

StartChar: Chi
Encoding: 935 935 327
Width: 1200
GlyphClass: 2
Flags: W
LayerCount: 2
Fore
SplineSet
200 800 m 5,0,-1
 0 800 l 5,1,-1
 0 1000 l 5,2,-1
 200 1000 l 5,3,-1
 200 800 l 5,0,-1
800 1000 m 5,4,-1
 1000 1000 l 5,5,-1
 1000 800 l 5,6,-1
 800 800 l 5,7,-1
 800 1000 l 5,4,-1
200 800 m 5,8,-1
 400 800 l 5,9,-1
 400 600 l 5,10,-1
 200 600 l 5,11,-1
 200 800 l 5,8,-1
600 800 m 5,12,-1
 800 800 l 5,13,-1
 800 600 l 5,14,-1
 600 600 l 5,15,-1
 600 800 l 5,12,-1
400 600 m 5,16,-1
 600 600 l 5,17,-1
 600 400 l 5,18,-1
 400 400 l 5,19,-1
 400 600 l 5,16,-1
200 400 m 5,20,-1
 400 400 l 5,21,-1
 400 200 l 5,22,-1
 200 200 l 5,23,-1
 200 400 l 5,20,-1
600 400 m 5,24,-1
 800 400 l 5,25,-1
 800 200 l 5,26,-1
 600 200 l 5,27,-1
 600 400 l 5,24,-1
200 200 m 5,28,-1
 200 0 l 5,29,-1
 0 0 l 5,30,-1
 0 200 l 5,31,-1
 200 200 l 5,28,-1
800 200 m 5,32,-1
 1000 200 l 5,33,-1
 1000 0 l 5,34,-1
 800 0 l 5,35,-1
 800 200 l 5,32,-1
EndSplineSet
Validated: 5
EndChar

StartChar: Psi
Encoding: 936 936 328
Width: 1196
GlyphClass: 2
Flags: W
LayerCount: 2
Fore
SplineSet
200 674 m 1,0,-1
 0 674 l 1,1,-1
 0 1068 l 1,2,-1
 200 1068 l 1,3,-1
 200 674 l 1,0,-1
800 1068 m 1,4,-1
 1000 1068 l 1,5,-1
 1000 674 l 1,6,-1
 800 674 l 1,7,-1
 800 1068 l 1,4,-1
196 674 m 1,8,-1
 400 674 l 1,9,-1
 400 474 l 1,10,-1
 196 474 l 1,11,-1
 196 674 l 1,8,-1
600 674 m 1,12,-1
 806 674 l 5,13,-1
 806 474 l 5,14,-1
 600 474 l 1,15,-1
 600 674 l 1,12,-1
400 1070 m 1,16,-1
 600 1070 l 1,17,-1
 600 0 l 1,18,-1
 400 0 l 1,19,-1
 400 1070 l 1,16,-1
EndSplineSet
Validated: 5
EndChar

StartChar: uni03A9
Encoding: 937 937 329
Width: 1203
GlyphClass: 2
Flags: W
LayerCount: 2
Fore
SplineSet
1060 0 m 5,0,-1
 634 0 l 5,1,-1
 634 208 l 5,2,-1
 1058 210 l 5,3,-1
 1060 0 l 5,0,-1
426 0 m 5,4,-1
 0 0 l 5,5,-1
 0 198 l 5,6,-1
 424 200 l 5,7,-1
 426 0 l 5,4,-1
636 391 m 5,8,-1
 856 391 l 5,9,-1
 856 0 l 5,10,-1
 636 0 l 5,11,-1
 636 391 l 5,8,-1
206 391 m 5,12,-1
 426 391 l 5,13,-1
 426 0 l 5,14,-1
 206 0 l 5,15,-1
 206 391 l 5,12,-1
0 395 m 5,16,-1
 0 864 l 5,17,-1
 209 866 l 5,18,-1
 206 391 l 5,19,-1
 0 395 l 5,16,-1
856 391 m 5,20,-1
 861 866 l 5,21,-1
 1050 866 l 5,22,-1
 1052 395 l 5,23,-1
 856 391 l 5,20,-1
861 866 m 5,24,-1
 209 866 l 5,25,-1
 207 1051 l 5,26,-1
 857 1051 l 5,27,-1
 861 866 l 5,24,-1
EndSplineSet
Validated: 5
EndChar

StartChar: Iotadieresis
Encoding: 938 938 330
Width: 682
GlyphClass: 2
Flags: W
LayerCount: 2
Fore
SplineSet
204 1000 m 1,0,-1
 404 1000 l 1,1,-1
 404 0 l 1,2,-1
 204 0 l 1,3,-1
 204 1000 l 1,0,-1
4 1071 m 1,4,-1
 4 1271 l 1,5,-1
 204 1271 l 1,6,-1
 204 1071 l 1,7,-1
 4 1071 l 1,4,-1
404 1071 m 1,8,-1
 404 1271 l 1,9,-1
 604 1271 l 1,10,-1
 604 1071 l 1,11,-1
 404 1071 l 1,8,-1
EndSplineSet
EndChar

StartChar: Upsilondieresis
Encoding: 939 939 331
Width: 1196
GlyphClass: 2
Flags: W
LayerCount: 2
Fore
SplineSet
200 1100 m 1,0,-1
 200 1300 l 1,1,-1
 400 1300 l 1,2,-1
 400 1100 l 1,3,-1
 200 1100 l 1,0,-1
600 1100 m 1,4,-1
 600 1300 l 1,5,-1
 800 1300 l 1,6,-1
 800 1100 l 1,7,-1
 600 1100 l 1,4,-1
200 800 m 1,8,-1
 0 800 l 1,9,-1
 0 1000 l 1,10,-1
 200 1000 l 1,11,-1
 200 800 l 1,8,-1
800 1000 m 1,12,-1
 1000 1000 l 1,13,-1
 1000 800 l 1,14,-1
 800 800 l 1,15,-1
 800 1000 l 1,12,-1
200 800 m 1,16,-1
 400 800 l 1,17,-1
 400 600 l 1,18,-1
 200 600 l 1,19,-1
 200 800 l 1,16,-1
600 800 m 1,20,-1
 800 800 l 1,21,-1
 800 600 l 1,22,-1
 600 600 l 1,23,-1
 600 800 l 1,20,-1
400 600 m 1,24,-1
 600 600 l 1,25,-1
 600 0 l 1,26,-1
 400 0 l 1,27,-1
 400 600 l 1,24,-1
EndSplineSet
EndChar

StartChar: alphatonos
Encoding: 940 940 332
Width: 1085
GlyphClass: 2
Flags: W
LayerCount: 2
Fore
SplineSet
-54 1000 m 5,0,-1
 -275 719 l 5,1,-1
 -423 719 l 5,2,-1
 -290 1000 l 5,3,-1
 -54 1000 l 5,0,-1
201 797 m 1,4,-1
 201 601 l 1,5,-1
 799 601 l 1,6,-1
 799 797 l 1,7,-1
 201 797 l 1,4,-1
201 392 m 1,8,-1
 201 0 l 1,9,-1
 0 0 l 1,10,-1
 0 1000 l 1,11,-1
 1000 1000 l 1,12,-1
 1000 0 l 1,13,-1
 799 0 l 1,14,-1
 799 392 l 1,15,-1
 201 392 l 1,8,-1
EndSplineSet
Validated: 1
EndChar

StartChar: epsilontonos
Encoding: 941 941 333
Width: 1168
GlyphClass: 2
Flags: W
LayerCount: 2
Fore
SplineSet
-54 1000 m 5,0,-1
 -275 719 l 5,1,-1
 -423 719 l 5,2,-1
 -290 1000 l 5,3,-1
 -54 1000 l 5,0,-1
1000 800 m 1,4,-1
 195 800 l 1,5,-1
 195 600 l 1,6,-1
 597 600 l 1,7,-1
 597 400 l 1,8,-1
 195 400 l 1,9,-1
 195 200 l 1,10,-1
 1000 200 l 1,11,-1
 1000 0 l 1,12,-1
 0 0 l 1,13,-1
 0 1000 l 1,14,-1
 1000 1000 l 1,15,-1
 1000 800 l 1,4,-1
EndSplineSet
Validated: 1
EndChar

StartChar: upsilondieresistonos
Encoding: 944 944 336
Width: 1201
GlyphClass: 2
Flags: W
LayerCount: 2
Fore
SplineSet
766 1512 m 5,0,-1
 545 1231 l 5,1,-1
 397 1231 l 5,2,-1
 530 1512 l 5,3,-1
 766 1512 l 5,0,-1
110 1100 m 5,4,-1
 110 1300 l 5,5,-1
 310 1300 l 5,6,-1
 310 1100 l 5,7,-1
 110 1100 l 5,4,-1
700 1100 m 5,8,-1
 700 1300 l 5,9,-1
 900 1300 l 5,10,-1
 900 1100 l 5,11,-1
 700 1100 l 5,8,-1
200 200 m 1,12,-1
 800 200 l 1,13,-1
 800 1000 l 1,14,-1
 1000 1000 l 1,15,-1
 1000 0 l 1,16,-1
 0 0 l 1,17,-1
 0 1000 l 1,18,-1
 200 1000 l 1,19,-1
 200 200 l 1,12,-1
EndSplineSet
EndChar

StartChar: alpha
Encoding: 945 945 337
Width: 1202
GlyphClass: 2
Flags: W
LayerCount: 2
Fore
SplineSet
201 797 m 5,0,-1
 201 601 l 5,1,-1
 799 601 l 5,2,-1
 799 797 l 5,3,-1
 201 797 l 5,0,-1
201 392 m 5,4,-1
 201 0 l 5,5,-1
 0 0 l 5,6,-1
 0 1000 l 5,7,-1
 1000 1000 l 5,8,-1
 1000 0 l 5,9,-1
 799 0 l 5,10,-1
 799 392 l 5,11,-1
 201 392 l 5,4,-1
EndSplineSet
Validated: 1
EndChar

StartChar: delta
Encoding: 948 948 340
Width: 1200
GlyphClass: 2
Flags: W
LayerCount: 2
Fore
SplineSet
200 200 m 1,0,-1
 800 200 l 1,1,-1
 800 0 l 1,2,-1
 200 0 l 1,3,-1
 200 200 l 1,0,-1
400 800 m 1025,4,-1
600 800 m 1025,5,-1
400 1000 m 1,6,-1
 600 1000 l 1,7,-1
 600 800 l 1,8,-1
 400 800 l 1,9,-1
 400 1000 l 1,6,-1
200 800 m 1,10,-1
 400 800 l 1,11,-1
 400 600 l 1,12,-1
 200 600 l 1,13,-1
 200 800 l 1,10,-1
600 800 m 1,14,-1
 800 800 l 1,15,-1
 800 600 l 1,16,-1
 600 600 l 1,17,-1
 600 800 l 1,14,-1
200 600 m 1,18,-1
 200 0 l 1,19,-1
 0 0 l 1,20,-1
 0 600 l 1,21,-1
 200 600 l 1,18,-1
800 600 m 1,22,-1
 1000 600 l 1,23,-1
 1000 0 l 1,24,-1
 800 0 l 1,25,-1
 800 600 l 1,22,-1
EndSplineSet
Validated: 5
EndChar

StartChar: epsilon
Encoding: 949 949 341
Width: 1200
GlyphClass: 2
Flags: W
LayerCount: 2
Fore
SplineSet
1000 800 m 5,0,-1
 195 800 l 5,1,-1
 195 600 l 5,2,-1
 1002 600 l 5,3,-1
 1002 400 l 5,4,-1
 195 400 l 5,5,-1
 195 200 l 5,6,-1
 1000 200 l 5,7,-1
 1000 0 l 5,8,-1
 0 0 l 5,9,-1
 0 1000 l 5,10,-1
 1000 1000 l 5,11,-1
 1000 800 l 5,0,-1
EndSplineSet
Validated: 1
EndChar

StartChar: zeta
Encoding: 950 950 342
Width: 1201
GlyphClass: 2
Flags: W
LayerCount: 2
Fore
SplineSet
0 800 m 5,0,-1
 0 1000 l 5,1,-1
 1000 1000 l 5,2,-1
 1000 800 l 5,3,-1
 800 800 l 5,4,-1
 800 600 l 5,5,-1
 600 600 l 5,6,-1
 600 800 l 5,7,-1
 0 800 l 5,0,-1
400 600 m 5,8,-1
 600 600 l 5,9,-1
 600 400 l 5,10,-1
 400 400 l 5,11,-1
 400 600 l 5,8,-1
200 400 m 5,12,-1
 400 400 l 5,13,-1
 400 200 l 5,14,-1
 1000 200 l 5,15,-1
 1000 0 l 5,16,-1
 0 0 l 5,17,-1
 0 200 l 5,18,-1
 200 200 l 5,19,-1
 200 400 l 5,12,-1
EndSplineSet
Validated: 5
EndChar

StartChar: sigma
Encoding: 963 963 354
Width: 1200
GlyphClass: 2
Flags: W
LayerCount: 2
Fore
SplineSet
824 800 m 1,0,-1
 0 800 l 1,1,-1
 0 1000 l 1,2,-1
 824 1000 l 1,3,-1
 824 800 l 1,0,-1
800 1000 m 1,4,-1
 1000 1000 l 1,5,-1
 1000 800 l 1,6,-1
 800 800 l 1,7,-1
 800 1000 l 1,4,-1
200 800 m 1,8,-1
 400 800 l 1,9,-1
 400 600 l 1,10,-1
 200 600 l 1,11,-1
 200 800 l 1,8,-1
400 600 m 1,12,-1
 600 600 l 1,13,-1
 600 400 l 1,14,-1
 400 400 l 1,15,-1
 400 600 l 1,12,-1
200 400 m 1,16,-1
 400 400 l 1,17,-1
 400 200 l 1,18,-1
 200 200 l 1,19,-1
 200 400 l 1,16,-1
800 200 m 1,20,-1
 800 0 l 1,21,-1
 0 0 l 1,22,-1
 0 200 l 1,23,-1
 800 200 l 1,20,-1
800 200 m 1,24,-1
 1000 200 l 1,25,-1
 1000 0 l 1,26,-1
 800 0 l 1,27,-1
 800 200 l 1,24,-1
EndSplineSet
Validated: 5
EndChar

StartChar: tau
Encoding: 964 964 355
Width: 1200
GlyphClass: 2
Flags: W
LayerCount: 2
Fore
SplineSet
0 800 m 5,0,-1
 0 1000 l 5,1,-1
 1000 1000 l 5,2,-1
 1000 800 l 5,3,-1
 600 800 l 5,4,-1
 600 0 l 5,5,-1
 400 0 l 5,6,-1
 400 800 l 5,7,-1
 0 800 l 5,0,-1
EndSplineSet
Validated: 1
EndChar

StartChar: phi
Encoding: 966 966 356
Width: 1601
GlyphClass: 2
Flags: W
LayerCount: 2
Fore
SplineSet
606 1192 m 5,0,-1
 802 1192 l 5,1,-1
 802 1000 l 5,2,-1
 606 1000 l 5,3,-1
 606 1192 l 5,0,-1
0 1000 m 5,4,-1
 1400 1000 l 5,5,-1
 1400 400 l 5,6,-1
 800 400 l 5,7,-1
 800 0 l 5,8,-1
 600 0 l 5,9,-1
 600 400 l 5,10,-1
 0 400 l 5,11,-1
 0 1000 l 5,4,-1
200 800 m 5,12,-1
 200 600 l 5,13,-1
 600 600 l 5,14,-1
 600 800 l 5,15,-1
 200 800 l 5,12,-1
800 800 m 5,16,-1
 800 600 l 5,17,-1
 1200 600 l 5,18,-1
 1200 800 l 5,19,-1
 800 800 l 5,16,-1
EndSplineSet
Validated: 5
EndChar

StartChar: psi
Encoding: 968 968 357
Width: 1196
GlyphClass: 2
Flags: W
LayerCount: 2
Fore
SplineSet
200 674 m 1,0,-1
 0 674 l 1,1,-1
 0 1068 l 1,2,-1
 200 1068 l 1,3,-1
 200 674 l 1,0,-1
800 1068 m 1,4,-1
 1000 1068 l 1,5,-1
 1000 674 l 1,6,-1
 800 674 l 1,7,-1
 800 1068 l 1,4,-1
196 674 m 1,8,-1
 400 674 l 1,9,-1
 400 474 l 1,10,-1
 196 474 l 1,11,-1
 196 674 l 1,8,-1
600 674 m 1,12,-1
 806 674 l 5,13,-1
 806 474 l 5,14,-1
 600 474 l 1,15,-1
 600 674 l 1,12,-1
400 1070 m 1,16,-1
 600 1070 l 1,17,-1
 600 0 l 1,18,-1
 400 0 l 1,19,-1
 400 1070 l 1,16,-1
EndSplineSet
Validated: 5
EndChar

StartChar: omega
Encoding: 969 969 358
Width: 1203
GlyphClass: 2
Flags: W
LayerCount: 2
Fore
SplineSet
1060 0 m 5,0,-1
 634 0 l 5,1,-1
 634 208 l 5,2,-1
 1058 210 l 5,3,-1
 1060 0 l 5,0,-1
426 0 m 5,4,-1
 0 0 l 5,5,-1
 0 198 l 5,6,-1
 424 200 l 5,7,-1
 426 0 l 5,4,-1
636 391 m 5,8,-1
 856 391 l 5,9,-1
 856 0 l 5,10,-1
 636 0 l 5,11,-1
 636 391 l 5,8,-1
206 391 m 5,12,-1
 426 391 l 5,13,-1
 426 0 l 5,14,-1
 206 0 l 5,15,-1
 206 391 l 5,12,-1
0 395 m 5,16,-1
 0 864 l 5,17,-1
 209 866 l 5,18,-1
 206 391 l 5,19,-1
 0 395 l 5,16,-1
856 391 m 5,20,-1
 861 866 l 5,21,-1
 1050 866 l 5,22,-1
 1052 395 l 5,23,-1
 856 391 l 5,20,-1
861 866 m 5,24,-1
 209 866 l 5,25,-1
 207 1051 l 5,26,-1
 857 1051 l 5,27,-1
 861 866 l 5,24,-1
EndSplineSet
Validated: 5
EndChar

StartChar: uni0401
Encoding: 1025 1025 363
Width: 1200
GlyphClass: 2
Flags: W
LayerCount: 2
Fore
SplineSet
1000 800 m 1,0,-1
 195 800 l 1,1,-1
 195 600 l 1,2,-1
 597 600 l 1,3,-1
 597 400 l 1,4,-1
 195 400 l 1,5,-1
 195 200 l 1,6,-1
 1000 200 l 1,7,-1
 1000 0 l 1,8,-1
 0 0 l 1,9,-1
 0 1000 l 1,10,-1
 1000 1000 l 1,11,-1
 1000 800 l 1,0,-1
200 1100 m 1,12,-1
 200 1300 l 1,13,-1
 400 1300 l 1,14,-1
 400 1100 l 1,15,-1
 200 1100 l 1,12,-1
600 1100 m 1,16,-1
 600 1300 l 1,17,-1
 800 1300 l 1,18,-1
 800 1100 l 1,19,-1
 600 1100 l 1,16,-1
EndSplineSet
Validated: 1
EndChar

StartChar: section
Encoding: 1028 1028 364
Width: 1200
GlyphClass: 2
Flags: W
LayerCount: 2
Fore
SplineSet
1000 800 m 5,0,-1
 195 800 l 5,1,-1
 195 600 l 5,2,-1
 1002 600 l 5,3,-1
 1002 400 l 5,4,-1
 195 400 l 5,5,-1
 195 200 l 5,6,-1
 1000 200 l 5,7,-1
 1000 0 l 5,8,-1
 0 0 l 5,9,-1
 0 1000 l 5,10,-1
 1000 1000 l 5,11,-1
 1000 800 l 5,0,-1
EndSplineSet
Validated: 1
EndChar

StartChar: afii10055
Encoding: 1030 1030 365
Width: 400
GlyphClass: 2
Flags: W
LayerCount: 2
Fore
SplineSet
0 1000 m 5,0,-1
 200 1000 l 5,1,-1
 200 0 l 5,2,-1
 0 0 l 5,3,-1
 0 1000 l 5,0,-1
1 1071 m 1,4,-1
 1 1271 l 1,5,-1
 201 1271 l 1,6,-1
 201 1071 l 1,7,-1
 1 1071 l 1,4,-1
EndSplineSet
Validated: 1
EndChar

StartChar: afii10056
Encoding: 1031 1031 366
Width: 682
GlyphClass: 2
Flags: W
LayerCount: 2
Fore
SplineSet
204 1000 m 1,0,-1
 404 1000 l 1,1,-1
 404 0 l 1,2,-1
 204 0 l 1,3,-1
 204 1000 l 1,0,-1
4 1071 m 1,4,-1
 4 1271 l 1,5,-1
 204 1271 l 1,6,-1
 204 1071 l 1,7,-1
 4 1071 l 1,4,-1
404 1071 m 1,8,-1
 404 1271 l 1,9,-1
 604 1271 l 1,10,-1
 604 1071 l 1,11,-1
 404 1071 l 1,8,-1
EndSplineSet
Validated: 1
EndChar

StartChar: afii10017
Encoding: 1040 1040 367
Width: 1202
GlyphClass: 2
Flags: W
LayerCount: 2
Fore
SplineSet
201 797 m 1,0,-1
 201 601 l 1,1,-1
 799 601 l 1,2,-1
 799 797 l 1,3,-1
 201 797 l 1,0,-1
201 392 m 1,4,-1
 201 0 l 1,5,-1
 0 0 l 1,6,-1
 0 1000 l 1,7,-1
 1000 1000 l 1,8,-1
 1000 0 l 1,9,-1
 799 0 l 1,10,-1
 799 392 l 1,11,-1
 201 392 l 1,4,-1
EndSplineSet
Validated: 1
EndChar

StartChar: afii10018
Encoding: 1041 1041 368
Width: 1198
GlyphClass: 2
Flags: W
LayerCount: 2
Fore
SplineSet
467 793 m 1,0,-1
 207 793 l 1,1,-1
 207 600 l 1,2,-1
 1000 600 l 1,3,-1
 1000 0 l 1,4,-1
 0 0 l 1,5,-1
 0 1000 l 1,6,-1
 1000 1000 l 1,7,-1
 1000 800 l 1,8,-1
 467 793 l 1,0,-1
207 393 m 1,9,-1
 207 200 l 1,10,-1
 800 200 l 1,11,-1
 800 393 l 1,12,-1
 207 393 l 1,9,-1
EndSplineSet
Validated: 1
EndChar

StartChar: afii10019
Encoding: 1042 1042 369
Width: 1198
GlyphClass: 2
Flags: W
LayerCount: 2
Fore
SplineSet
205 793 m 1,0,-1
 205 600 l 1,1,-1
 795 600 l 1,2,-1
 795 793 l 1,3,-1
 205 793 l 1,0,-1
987 593 m 1,4,-1
 801 593 l 1,5,-1
 801 400 l 1,6,-1
 1000 400 l 1,7,-1
 1000 0 l 1,8,-1
 0 0 l 1,9,-1
 0 1000 l 1,10,-1
 1000 1000 l 1,11,-1
 1000 607 l 1,12,-1
 987 593 l 1,4,-1
205 393 m 1,13,-1
 205 200 l 1,14,-1
 795 200 l 1,15,-1
 795 393 l 1,16,-1
 205 393 l 1,13,-1
EndSplineSet
Validated: 1
EndChar

StartChar: afii10020
Encoding: 1043 1043 370
Width: 1195
GlyphClass: 2
Flags: W
LayerCount: 2
Fore
SplineSet
987 800 m 1,0,-1
 205 800 l 1,1,-1
 205 13 l 1,2,-1
 192 0 l 1,3,-1
 0 0 l 1,4,-1
 0 1000 l 1,5,-1
 1000 1000 l 1,6,-1
 1000 813 l 1,7,-1
 987 800 l 1,0,-1
EndSplineSet
Validated: 1
EndChar

StartChar: afii10021
Encoding: 1044 1044 371
Width: 1402
GlyphClass: 2
Flags: W
LayerCount: 2
Fore
SplineSet
200 1000 m 1,0,-1
 1000 1000 l 1,1,-1
 1000 200 l 1,2,-1
 1200 200 l 1,3,-1
 1200 0 l 1,4,-1
 0 0 l 1,5,-1
 0 200 l 1,6,-1
 200 200 l 1,7,-1
 200 1000 l 1,0,-1
400 800 m 1,8,-1
 400 200 l 1,9,-1
 800 200 l 1,10,-1
 800 800 l 1,11,-1
 400 800 l 1,8,-1
EndSplineSet
Validated: 1
EndChar

StartChar: afii10022
Encoding: 1045 1045 372
Width: 1198
GlyphClass: 2
Flags: W
LayerCount: 2
Fore
SplineSet
1000 800 m 1,0,-1
 195 800 l 1,1,-1
 195 600 l 1,2,-1
 597 600 l 1,3,-1
 597 400 l 1,4,-1
 195 400 l 1,5,-1
 195 200 l 1,6,-1
 1000 200 l 1,7,-1
 1000 0 l 1,8,-1
 0 0 l 1,9,-1
 0 1000 l 1,10,-1
 1000 1000 l 1,11,-1
 1000 800 l 1,0,-1
EndSplineSet
Validated: 1
EndChar

StartChar: afii10024
Encoding: 1046 1046 373
Width: 1198
GlyphClass: 2
Flags: W
LayerCount: 2
Fore
SplineSet
0 1000 m 1,0,-1
 200 1000 l 1,1,-1
 200 600 l 1,2,-1
 400 600 l 1,3,-1
 400 1000 l 1,4,-1
 600 1000 l 1,5,-1
 600 600 l 1,6,-1
 800 600 l 1,7,-1
 800 1000 l 1,8,-1
 1000 1000 l 1,9,-1
 1000 0 l 1,10,-1
 800 0 l 1,11,-1
 800 400 l 1,12,-1
 600 400 l 1,13,-1
 600 0 l 1,14,-1
 400 0 l 1,15,-1
 400 400 l 1,16,-1
 200 400 l 1,17,-1
 200 0 l 1,18,-1
 0 0 l 1,19,-1
 0 1000 l 1,0,-1
EndSplineSet
Validated: 1
EndChar

StartChar: afii10025
Encoding: 1047 1047 374
Width: 1198
GlyphClass: 2
Flags: W
LayerCount: 2
Fore
SplineSet
0 805 m 1,0,-1
 0 1000 l 1,1,-1
 1000 1000 l 1,2,-1
 1000 0 l 1,3,-1
 0 0 l 1,4,-1
 0 201 l 1,5,-1
 800 201 l 1,6,-1
 800 403 l 1,7,-1
 400 403 l 1,8,-1
 400 604 l 1,9,-1
 800 604 l 1,10,-1
 800 805 l 1,11,-1
 0 805 l 1,0,-1
EndSplineSet
Validated: 1
EndChar

StartChar: afii10026
Encoding: 1048 1048 375
Width: 1198
GlyphClass: 2
Flags: W
LayerCount: 2
Fore
SplineSet
195 403 m 1,0,-1
 396 403 l 1,1,-1
 396 201 l 1,2,-1
 195 201 l 1,3,-1
 195 0 l 1,4,-1
 0 0 l 1,5,-1
 0 1000 l 1,6,-1
 195 1000 l 1,7,-1
 195 403 l 1,0,-1
799 1000 m 1,8,-1
 1000 1000 l 1,9,-1
 1000 0 l 1,10,-1
 799 0 l 1,11,-1
 799 604 l 1,12,-1
 597 604 l 1,13,-1
 597 805 l 1,14,-1
 799 805 l 1,15,-1
 799 1000 l 1,8,-1
396 604 m 1,16,-1
 597 604 l 1,17,-1
 597 403 l 1,18,-1
 396 403 l 1,19,-1
 396 604 l 1,16,-1
EndSplineSet
Validated: 5
EndChar

StartChar: afii10027
Encoding: 1049 1049 376
Width: 1200
GlyphClass: 2
Flags: W
LayerCount: 2
Fore
SplineSet
195 403 m 1,0,-1
 396 403 l 1,1,-1
 396 201 l 1,2,-1
 195 201 l 1,3,-1
 195 0 l 1,4,-1
 0 0 l 1,5,-1
 0 1000 l 1,6,-1
 195 1000 l 1,7,-1
 195 403 l 1,0,-1
799 1000 m 1,8,-1
 1000 1000 l 1,9,-1
 1000 0 l 1,10,-1
 799 0 l 1,11,-1
 799 604 l 1,12,-1
 597 604 l 1,13,-1
 597 805 l 1,14,-1
 799 805 l 1,15,-1
 799 1000 l 1,8,-1
396 604 m 1,16,-1
 597 604 l 1,17,-1
 597 403 l 1,18,-1
 396 403 l 1,19,-1
 396 604 l 1,16,-1
401 999 m 1,20,-1
 401 1197 l 1,21,-1
 603 1197 l 1,22,-1
 603 999 l 1,23,-1
 401 999 l 1,20,-1
EndSplineSet
Validated: 5
EndChar

StartChar: afii10028
Encoding: 1050 1050 377
Width: 1193
GlyphClass: 2
Flags: W
LayerCount: 2
Fore
SplineSet
200 600 m 5,0,-1
 600 600 l 5,1,-1
 600 400 l 5,2,-1
 200 400 l 5,3,-1
 200 0 l 5,4,-1
 0 0 l 5,5,-1
 0 1000 l 5,6,-1
 200 1000 l 5,7,-1
 200 600 l 5,0,-1
800 1000 m 5,8,-1
 1000 1000 l 5,9,-1
 1000 800 l 5,10,-1
 800 800 l 5,11,-1
 800 1000 l 5,8,-1
600 800 m 5,12,-1
 800 800 l 5,13,-1
 800 600 l 5,14,-1
 600 600 l 5,15,-1
 600 800 l 5,12,-1
600 400 m 5,16,-1
 800 400 l 5,17,-1
 800 200 l 5,18,-1
 600 200 l 5,19,-1
 600 400 l 5,16,-1
800 200 m 5,20,-1
 1000 200 l 5,21,-1
 1000 0 l 5,22,-1
 800 0 l 5,23,-1
 800 200 l 5,20,-1
EndSplineSet
Validated: 5
EndChar

StartChar: afii10029
Encoding: 1051 1051 378
Width: 1200
GlyphClass: 2
Flags: W
LayerCount: 2
Fore
SplineSet
400 1000 m 5,0,-1
 600 1000 l 5,1,-1
 600 800 l 5,2,-1
 400 800 l 5,3,-1
 400 1000 l 5,0,-1
200 800 m 5,4,-1
 400 800 l 5,5,-1
 400 600 l 5,6,-1
 200 600 l 5,7,-1
 200 800 l 5,4,-1
600 800 m 5,8,-1
 800 800 l 5,9,-1
 800 600 l 5,10,-1
 600 600 l 5,11,-1
 600 800 l 5,8,-1
200 600 m 5,12,-1
 200 0 l 5,13,-1
 0 0 l 5,14,-1
 0 600 l 5,15,-1
 200 600 l 5,12,-1
800 600 m 5,16,-1
 1000 600 l 5,17,-1
 1000 0 l 5,18,-1
 800 0 l 5,19,-1
 800 600 l 5,16,-1
EndSplineSet
Validated: 5
EndChar

StartChar: afii10030
Encoding: 1052 1052 379
Width: 1200
GlyphClass: 2
Flags: W
LayerCount: 2
Fore
SplineSet
200 800 m 5,0,-1
 400 800 l 5,1,-1
 400 600 l 5,2,-1
 200 600 l 5,3,-1
 200 0 l 5,4,-1
 0 0 l 5,5,-1
 0 1000 l 5,6,-1
 200 1000 l 5,7,-1
 200 800 l 5,0,-1
800 1000 m 5,8,-1
 1000 1000 l 5,9,-1
 1000 0 l 5,10,-1
 800 0 l 5,11,-1
 800 600 l 5,12,-1
 600 600 l 5,13,-1
 600 800 l 5,14,-1
 800 800 l 5,15,-1
 800 1000 l 5,8,-1
400 600 m 5,16,-1
 600 600 l 5,17,-1
 600 400 l 5,18,-1
 400 400 l 5,19,-1
 400 600 l 5,16,-1
EndSplineSet
Validated: 5
EndChar

StartChar: afii10031
Encoding: 1053 1053 380
Width: 1200
GlyphClass: 2
Flags: W
LayerCount: 2
Fore
SplineSet
200 600 m 5,0,-1
 800 600 l 5,1,-1
 800 1000 l 5,2,-1
 1000 1000 l 5,3,-1
 1000 0 l 5,4,-1
 800 0 l 5,5,-1
 800 400 l 5,6,-1
 200 400 l 5,7,-1
 200 0 l 5,8,-1
 0 0 l 5,9,-1
 0 1000 l 5,10,-1
 200 1000 l 5,11,-1
 200 600 l 5,0,-1
EndSplineSet
Validated: 1
EndChar

StartChar: afii10032
Encoding: 1054 1054 381
Width: 1203
GlyphClass: 2
Flags: W
LayerCount: 2
Fore
SplineSet
0 0 m 5,0,-1
 0 1000 l 5,1,-1
 200 1000 l 5,2,-1
 200 0 l 5,3,-1
 0 0 l 5,0,-1
800 0 m 5,4,-1
 800 1000 l 5,5,-1
 1000 1000 l 5,6,-1
 1000 0 l 5,7,-1
 800 0 l 5,4,-1
1000 0 m 5,8,-1
 0 0 l 5,9,-1
 0 200 l 5,10,-1
 1000 200 l 5,11,-1
 1000 0 l 5,8,-1
1000 800 m 5,12,-1
 0 800 l 5,13,-1
 0 1000 l 5,14,-1
 1000 1000 l 5,15,-1
 1000 800 l 5,12,-1
EndSplineSet
Validated: 5
EndChar

StartChar: afii10033
Encoding: 1055 1055 382
Width: 1200
GlyphClass: 2
Flags: W
LayerCount: 2
Fore
SplineSet
200 800 m 5,0,-1
 200 0 l 5,1,-1
 0 0 l 5,2,-1
 0 1000 l 5,3,-1
 1000 1000 l 5,4,-1
 1000 0 l 5,5,-1
 800 0 l 5,6,-1
 800 800 l 5,7,-1
 200 800 l 5,0,-1
EndSplineSet
Validated: 1
EndChar

StartChar: afii10034
Encoding: 1056 1056 383
Width: 1200
GlyphClass: 2
Flags: W
LayerCount: 2
Fore
SplineSet
200 800 m 1,0,-1
 200 600 l 1,1,-1
 800 600 l 1,2,-1
 800 800 l 1,3,-1
 200 800 l 1,0,-1
200 400 m 1,4,-1
 200 0 l 1,5,-1
 0 0 l 1,6,-1
 0 1000 l 1,7,-1
 1000 1000 l 1,8,-1
 1000 400 l 1,9,-1
 200 400 l 1,4,-1
EndSplineSet
Validated: 1
EndChar

StartChar: afii10035
Encoding: 1057 1057 384
Width: 1200
GlyphClass: 2
Flags: W
LayerCount: 2
Fore
SplineSet
200 800 m 1,0,-1
 200 200 l 1,1,-1
 1000 200 l 1,2,-1
 1000 0 l 1,3,-1
 0 0 l 1,4,-1
 0 1000 l 1,5,-1
 1000 1000 l 1,6,-1
 1000 800 l 1,7,-1
 200 800 l 1,0,-1
EndSplineSet
Validated: 1
EndChar

StartChar: afii10036
Encoding: 1058 1058 385
Width: 1200
GlyphClass: 2
Flags: W
LayerCount: 2
Fore
SplineSet
0 800 m 1,0,-1
 0 1000 l 1,1,-1
 1000 1000 l 1,2,-1
 1000 800 l 1,3,-1
 600 800 l 1,4,-1
 600 0 l 1,5,-1
 400 0 l 1,6,-1
 400 800 l 1,7,-1
 0 800 l 1,0,-1
EndSplineSet
Validated: 1
EndChar

StartChar: afii10037
Encoding: 1059 1059 386
Width: 1203
GlyphClass: 2
Flags: W
LayerCount: 2
Fore
SplineSet
200 600 m 1,0,-1
 800 600 l 1,1,-1
 800 1000 l 1,2,-1
 1000 1000 l 1,3,-1
 1000 0 l 1,4,-1
 0 0 l 1,5,-1
 0 200 l 1,6,-1
 800 200 l 1,7,-1
 800 400 l 1,8,-1
 0 400 l 1,9,-1
 0 1000 l 1,10,-1
 200 1000 l 1,11,-1
 200 600 l 1,0,-1
EndSplineSet
Validated: 1
EndChar

StartChar: afii10038
Encoding: 1060 1060 387
Width: 1601
GlyphClass: 2
Flags: W
LayerCount: 2
Fore
SplineSet
0 1000 m 1,0,-1
 1400 1000 l 1,1,-1
 1400 400 l 1,2,-1
 800 400 l 1,3,-1
 800 0 l 1,4,-1
 600 0 l 1,5,-1
 600 400 l 1,6,-1
 0 400 l 1,7,-1
 0 1000 l 1,0,-1
200 800 m 1,8,-1
 200 600 l 1,9,-1
 600 600 l 1,10,-1
 600 800 l 1,11,-1
 200 800 l 1,8,-1
800 800 m 1,12,-1
 800 600 l 1,13,-1
 1200 600 l 1,14,-1
 1200 800 l 1,15,-1
 800 800 l 1,12,-1
EndSplineSet
Validated: 1
EndChar

StartChar: afii10039
Encoding: 1061 1061 388
Width: 1200
GlyphClass: 2
Flags: W
LayerCount: 2
Fore
SplineSet
200 800 m 5,0,-1
 0 800 l 5,1,-1
 0 1000 l 5,2,-1
 200 1000 l 5,3,-1
 200 800 l 5,0,-1
800 1000 m 5,4,-1
 1000 1000 l 5,5,-1
 1000 800 l 5,6,-1
 800 800 l 5,7,-1
 800 1000 l 5,4,-1
200 800 m 5,8,-1
 400 800 l 5,9,-1
 400 600 l 5,10,-1
 200 600 l 5,11,-1
 200 800 l 5,8,-1
600 800 m 5,12,-1
 800 800 l 5,13,-1
 800 600 l 5,14,-1
 600 600 l 5,15,-1
 600 800 l 5,12,-1
400 600 m 5,16,-1
 600 600 l 5,17,-1
 600 400 l 5,18,-1
 400 400 l 5,19,-1
 400 600 l 5,16,-1
200 400 m 5,20,-1
 400 400 l 5,21,-1
 400 200 l 5,22,-1
 200 200 l 5,23,-1
 200 400 l 5,20,-1
600 400 m 5,24,-1
 800 400 l 5,25,-1
 800 200 l 5,26,-1
 600 200 l 5,27,-1
 600 400 l 5,24,-1
200 200 m 5,28,-1
 200 0 l 5,29,-1
 0 0 l 5,30,-1
 0 200 l 5,31,-1
 200 200 l 5,28,-1
800 200 m 5,32,-1
 1000 200 l 5,33,-1
 1000 0 l 5,34,-1
 800 0 l 5,35,-1
 800 200 l 5,32,-1
EndSplineSet
Validated: 5
EndChar

StartChar: afii10040
Encoding: 1062 1062 389
Width: 1200
GlyphClass: 2
Flags: W
LayerCount: 2
Fore
SplineSet
200 200 m 1,0,-1
 800 200 l 1,1,-1
 800 1000 l 1,2,-1
 1000 1000 l 1,3,-1
 1000 0 l 1,4,-1
 0 0 l 1,5,-1
 0 1000 l 1,6,-1
 200 1000 l 1,7,-1
 200 200 l 1,0,-1
800 -200 m 1,8,-1
 800 0 l 1,9,-1
 1000 0 l 1,10,-1
 1000 -200 l 1,11,-1
 800 -200 l 1,8,-1
EndSplineSet
Validated: 5
EndChar

StartChar: afii10041
Encoding: 1063 1063 390
Width: 1200
GlyphClass: 2
Flags: W
LayerCount: 2
Fore
SplineSet
200 600 m 1,0,-1
 800 600 l 1,1,-1
 800 1000 l 1,2,-1
 1000 1000 l 1,3,-1
 1000 0 l 1,4,-1
 800 0 l 1,5,-1
 800 400 l 1,6,-1
 0 400 l 1,7,-1
 0 1000 l 1,8,-1
 200 1000 l 1,9,-1
 200 600 l 1,0,-1
EndSplineSet
Validated: 1
EndChar

StartChar: afii10042
Encoding: 1064 1064 391
Width: 1197
GlyphClass: 2
Flags: W
LayerCount: 2
Fore
SplineSet
200 200 m 1,0,-1
 400 200 l 1,1,-1
 400 1000 l 1,2,-1
 600 1000 l 1,3,-1
 600 200 l 1,4,-1
 800 200 l 1,5,-1
 800 1000 l 1,6,-1
 1000 1000 l 1,7,-1
 1000 0 l 1,8,-1
 0 0 l 1,9,-1
 0 1000 l 1,10,-1
 200 1000 l 1,11,-1
 200 200 l 1,0,-1
EndSplineSet
Validated: 1
EndChar

StartChar: afii10043
Encoding: 1065 1065 392
Width: 1200
GlyphClass: 2
Flags: W
LayerCount: 2
Fore
SplineSet
200 200 m 1,0,-1
 400 200 l 1,1,-1
 400 1000 l 1,2,-1
 600 1000 l 1,3,-1
 600 200 l 1,4,-1
 800 200 l 1,5,-1
 800 1000 l 1,6,-1
 1000 1000 l 1,7,-1
 1000 0 l 1,8,-1
 0 0 l 1,9,-1
 0 1000 l 1,10,-1
 200 1000 l 1,11,-1
 200 200 l 1,0,-1
800 -200 m 1,12,-1
 800 0 l 1,13,-1
 1000 0 l 1,14,-1
 1000 -200 l 1,15,-1
 800 -200 l 1,12,-1
EndSplineSet
Validated: 5
EndChar

StartChar: afii10044
Encoding: 1066 1066 393
Width: 1421
GlyphClass: 2
Flags: W
LayerCount: 2
Fore
SplineSet
421 600 m 1,0,-1
 1221 600 l 1,1,-1
 1221 0 l 1,2,-1
 221 0 l 1,3,-1
 221 1000 l 1,4,-1
 421 1000 l 1,5,-1
 421 600 l 1,0,-1
421 400 m 1,6,-1
 421 200 l 1,7,-1
 1021 200 l 1,8,-1
 1021 400 l 1,9,-1
 421 400 l 1,6,-1
21 800 m 1,10,-1
 21 1000 l 1,11,-1
 221 1000 l 1,12,-1
 221 800 l 1,13,-1
 21 800 l 1,10,-1
EndSplineSet
Validated: 5
EndChar

StartChar: afii10045
Encoding: 1067 1067 394
Width: 1599
GlyphClass: 2
Flags: W
LayerCount: 2
Fore
SplineSet
200 600 m 1,0,-1
 1000 600 l 1,1,-1
 1000 0 l 1,2,-1
 0 0 l 1,3,-1
 0 1000 l 1,4,-1
 200 1000 l 1,5,-1
 200 600 l 1,0,-1
1200 1000 m 1,6,-1
 1400 1000 l 1,7,-1
 1400 0 l 1,8,-1
 1200 0 l 1,9,-1
 1200 1000 l 1,6,-1
200 400 m 1,10,-1
 200 200 l 1,11,-1
 800 200 l 1,12,-1
 800 400 l 1,13,-1
 200 400 l 1,10,-1
EndSplineSet
Validated: 1
EndChar

StartChar: afii10046
Encoding: 1068 1068 395
Width: 1200
GlyphClass: 2
Flags: W
LayerCount: 2
Fore
SplineSet
200 600 m 1,0,-1
 1000 600 l 1,1,-1
 1000 0 l 1,2,-1
 0 0 l 1,3,-1
 0 1000 l 1,4,-1
 200 1000 l 1,5,-1
 200 600 l 1,0,-1
200 400 m 1,6,-1
 200 200 l 1,7,-1
 800 200 l 1,8,-1
 800 400 l 1,9,-1
 200 400 l 1,6,-1
EndSplineSet
Validated: 1
EndChar

StartChar: afii10047
Encoding: 1069 1069 396
Width: 1200
GlyphClass: 2
Flags: W
LayerCount: 2
Fore
SplineSet
0 800 m 1,0,-1
 0 1000 l 1,1,-1
 1000 1000 l 1,2,-1
 1000 0 l 1,3,-1
 0 0 l 1,4,-1
 0 200 l 1,5,-1
 800 200 l 1,6,-1
 800 400 l 1,7,-1
 0 400 l 1,8,-1
 0 600 l 1,9,-1
 800 600 l 1,10,-1
 800 800 l 1,11,-1
 0 800 l 1,0,-1
EndSplineSet
Validated: 1
EndChar

StartChar: afii10048
Encoding: 1070 1070 397
Width: 1599
GlyphClass: 2
Flags: W
LayerCount: 2
Fore
SplineSet
200 600 m 1,0,-1
 400 600 l 1,1,-1
 400 1000 l 1,2,-1
 1400 1000 l 1,3,-1
 1400 0 l 1,4,-1
 400 0 l 1,5,-1
 400 400 l 1,6,-1
 200 400 l 1,7,-1
 200 0 l 1,8,-1
 0 0 l 1,9,-1
 0 1000 l 1,10,-1
 200 1000 l 1,11,-1
 200 600 l 1,0,-1
600 800 m 1,12,-1
 600 200 l 1,13,-1
 1200 200 l 1,14,-1
 1200 800 l 1,15,-1
 600 800 l 1,12,-1
EndSplineSet
Validated: 1
EndChar

StartChar: afii10049
Encoding: 1071 1071 398
Width: 1200
GlyphClass: 2
Flags: W
LayerCount: 2
Fore
SplineSet
200 1000 m 1,0,-1
 1000 1000 l 1,1,-1
 1000 0 l 1,2,-1
 800 0 l 1,3,-1
 800 400 l 1,4,-1
 400 400 l 1,5,-1
 400 200 l 1,6,-1
 200 200 l 1,7,-1
 200 400 l 1,8,-1
 0 400 l 1,9,-1
 0 800 l 1,10,-1
 200 800 l 1,11,-1
 200 600 l 1,12,-1
 800 600 l 1,13,-1
 800 800 l 1,14,-1
 200 800 l 1,15,-1
 200 1000 l 1,0,-1
194 204 m 1,16,-1
 194 0 l 1,17,-1
 0 0 l 1,18,-1
 0 204 l 1,19,-1
 194 204 l 1,16,-1
EndSplineSet
Validated: 5
EndChar

StartChar: afii10065
Encoding: 1072 1072 399
Width: 1202
GlyphClass: 2
Flags: W
LayerCount: 2
Fore
SplineSet
201 797 m 1,0,-1
 201 601 l 1,1,-1
 799 601 l 1,2,-1
 799 797 l 1,3,-1
 201 797 l 1,0,-1
201 392 m 1,4,-1
 201 0 l 1,5,-1
 0 0 l 1,6,-1
 0 1000 l 1,7,-1
 1000 1000 l 1,8,-1
 1000 0 l 1,9,-1
 799 0 l 1,10,-1
 799 392 l 1,11,-1
 201 392 l 1,4,-1
EndSplineSet
Validated: 1
EndChar

StartChar: afii10066
Encoding: 1073 1073 400
Width: 1198
GlyphClass: 2
Flags: W
LayerCount: 2
Fore
SplineSet
467 793 m 1,0,-1
 207 793 l 1,1,-1
 207 600 l 1,2,-1
 1000 600 l 1,3,-1
 1000 0 l 1,4,-1
 0 0 l 1,5,-1
 0 1000 l 1,6,-1
 1000 1000 l 1,7,-1
 1000 800 l 1,8,-1
 467 793 l 1,0,-1
207 393 m 1,9,-1
 207 200 l 1,10,-1
 800 200 l 1,11,-1
 800 393 l 1,12,-1
 207 393 l 1,9,-1
EndSplineSet
Validated: 1
EndChar

StartChar: afii10067
Encoding: 1074 1074 401
Width: 1198
GlyphClass: 2
Flags: W
LayerCount: 2
Fore
SplineSet
205 793 m 1,0,-1
 205 600 l 1,1,-1
 795 600 l 1,2,-1
 795 793 l 1,3,-1
 205 793 l 1,0,-1
987 593 m 1,4,-1
 801 593 l 1,5,-1
 801 400 l 1,6,-1
 1000 400 l 1,7,-1
 1000 0 l 1,8,-1
 0 0 l 1,9,-1
 0 1000 l 1,10,-1
 1000 1000 l 1,11,-1
 1000 607 l 1,12,-1
 987 593 l 1,4,-1
205 393 m 1,13,-1
 205 200 l 1,14,-1
 795 200 l 1,15,-1
 795 393 l 1,16,-1
 205 393 l 1,13,-1
EndSplineSet
Validated: 1
EndChar

StartChar: afii10068
Encoding: 1075 1075 402
Width: 1195
GlyphClass: 2
Flags: W
LayerCount: 2
Fore
SplineSet
987 800 m 5,0,-1
 205 800 l 5,1,-1
 205 13 l 5,2,-1
 192 0 l 5,3,-1
 0 0 l 5,4,-1
 0 1000 l 5,5,-1
 1000 1000 l 5,6,-1
 1000 813 l 5,7,-1
 987 800 l 5,0,-1
EndSplineSet
Validated: 1
EndChar

StartChar: afii10069
Encoding: 1076 1076 403
Width: 1202
GlyphClass: 2
Flags: W
LayerCount: 2
Fore
SplineSet
800 800 m 1,0,-1
 200 800 l 1,1,-1
 200 200 l 1,2,-1
 800 200 l 1,3,-1
 800 0 l 1,4,-1
 0 0 l 1,5,-1
 0 1000 l 1,6,-1
 800 1000 l 1,7,-1
 800 800 l 1,0,-1
800 800 m 1,8,-1
 1000 800 l 1,9,-1
 1000 200 l 1,10,-1
 800 200 l 1,11,-1
 800 800 l 1,8,-1
EndSplineSet
Validated: 5
EndChar

StartChar: afii10070
Encoding: 1077 1077 404
Width: 1198
GlyphClass: 2
Flags: W
LayerCount: 2
Fore
SplineSet
1000 800 m 1,0,-1
 195 800 l 1,1,-1
 195 600 l 1,2,-1
 597 600 l 1,3,-1
 597 400 l 1,4,-1
 195 400 l 1,5,-1
 195 200 l 1,6,-1
 1000 200 l 1,7,-1
 1000 0 l 1,8,-1
 0 0 l 1,9,-1
 0 1000 l 1,10,-1
 1000 1000 l 1,11,-1
 1000 800 l 1,0,-1
EndSplineSet
Validated: 1
EndChar

StartChar: afii10072
Encoding: 1078 1078 405
Width: 1198
GlyphClass: 2
Flags: W
LayerCount: 2
Fore
SplineSet
0 1000 m 1,0,-1
 200 1000 l 1,1,-1
 200 600 l 1,2,-1
 400 600 l 1,3,-1
 400 1000 l 1,4,-1
 600 1000 l 1,5,-1
 600 600 l 1,6,-1
 800 600 l 1,7,-1
 800 1000 l 1,8,-1
 1000 1000 l 1,9,-1
 1000 0 l 1,10,-1
 800 0 l 1,11,-1
 800 400 l 1,12,-1
 600 400 l 1,13,-1
 600 0 l 1,14,-1
 400 0 l 1,15,-1
 400 400 l 1,16,-1
 200 400 l 1,17,-1
 200 0 l 1,18,-1
 0 0 l 1,19,-1
 0 1000 l 1,0,-1
EndSplineSet
Validated: 1
EndChar

StartChar: afii10073
Encoding: 1079 1079 406
Width: 1198
GlyphClass: 2
Flags: W
LayerCount: 2
Fore
SplineSet
0 805 m 1,0,-1
 0 1000 l 1,1,-1
 1000 1000 l 1,2,-1
 1000 0 l 1,3,-1
 0 0 l 1,4,-1
 0 201 l 1,5,-1
 800 201 l 1,6,-1
 800 403 l 1,7,-1
 400 403 l 1,8,-1
 400 604 l 1,9,-1
 800 604 l 1,10,-1
 800 805 l 1,11,-1
 0 805 l 1,0,-1
EndSplineSet
Validated: 1
EndChar

StartChar: afii10074
Encoding: 1080 1080 407
Width: 1198
GlyphClass: 2
Flags: W
LayerCount: 2
Fore
SplineSet
195 403 m 1,0,-1
 396 403 l 1,1,-1
 396 201 l 1,2,-1
 195 201 l 1,3,-1
 195 0 l 1,4,-1
 0 0 l 1,5,-1
 0 1000 l 1,6,-1
 195 1000 l 1,7,-1
 195 403 l 1,0,-1
799 1000 m 1,8,-1
 1000 1000 l 1,9,-1
 1000 0 l 1,10,-1
 799 0 l 1,11,-1
 799 604 l 1,12,-1
 597 604 l 1,13,-1
 597 805 l 1,14,-1
 799 805 l 1,15,-1
 799 1000 l 1,8,-1
396 604 m 1,16,-1
 597 604 l 1,17,-1
 597 403 l 1,18,-1
 396 403 l 1,19,-1
 396 604 l 1,16,-1
EndSplineSet
Validated: 5
EndChar

StartChar: afii10075
Encoding: 1081 1081 408
Width: 1200
GlyphClass: 2
Flags: W
LayerCount: 2
Fore
SplineSet
195 403 m 1,0,-1
 396 403 l 1,1,-1
 396 201 l 1,2,-1
 195 201 l 1,3,-1
 195 0 l 1,4,-1
 0 0 l 1,5,-1
 0 1000 l 1,6,-1
 195 1000 l 1,7,-1
 195 403 l 1,0,-1
799 1000 m 1,8,-1
 1000 1000 l 1,9,-1
 1000 0 l 1,10,-1
 799 0 l 1,11,-1
 799 604 l 1,12,-1
 597 604 l 1,13,-1
 597 805 l 1,14,-1
 799 805 l 1,15,-1
 799 1000 l 1,8,-1
396 604 m 1,16,-1
 597 604 l 1,17,-1
 597 403 l 1,18,-1
 396 403 l 1,19,-1
 396 604 l 1,16,-1
401 999 m 1,20,-1
 401 1197 l 1,21,-1
 603 1197 l 1,22,-1
 603 999 l 1,23,-1
 401 999 l 1,20,-1
EndSplineSet
Validated: 5
EndChar

StartChar: afii10076
Encoding: 1082 1082 409
Width: 1193
GlyphClass: 2
Flags: W
LayerCount: 2
Fore
SplineSet
200 600 m 1,0,-1
 600 600 l 1,1,-1
 600 400 l 1,2,-1
 200 400 l 1,3,-1
 200 0 l 1,4,-1
 0 0 l 1,5,-1
 0 1000 l 1,6,-1
 200 1000 l 1,7,-1
 200 600 l 1,0,-1
800 1000 m 1,8,-1
 1000 1000 l 1,9,-1
 1000 800 l 1,10,-1
 800 800 l 1,11,-1
 800 1000 l 1,8,-1
600 800 m 1,12,-1
 800 800 l 1,13,-1
 800 600 l 1,14,-1
 600 600 l 1,15,-1
 600 800 l 1,12,-1
600 400 m 1,16,-1
 800 400 l 1,17,-1
 800 200 l 1,18,-1
 600 200 l 1,19,-1
 600 400 l 1,16,-1
800 200 m 1,20,-1
 1000 200 l 1,21,-1
 1000 0 l 1,22,-1
 800 0 l 1,23,-1
 800 200 l 1,20,-1
EndSplineSet
Validated: 5
EndChar

StartChar: afii10077
Encoding: 1083 1083 410
Width: 1200
GlyphClass: 2
Flags: W
LayerCount: 2
Fore
SplineSet
400 1000 m 1,0,-1
 600 1000 l 1,1,-1
 600 800 l 1,2,-1
 400 800 l 1,3,-1
 400 1000 l 1,0,-1
200 800 m 1,4,-1
 400 800 l 1,5,-1
 400 600 l 1,6,-1
 200 600 l 1,7,-1
 200 800 l 1,4,-1
600 800 m 1,8,-1
 800 800 l 1,9,-1
 800 600 l 1,10,-1
 600 600 l 1,11,-1
 600 800 l 1,8,-1
200 600 m 1,12,-1
 200 0 l 1,13,-1
 0 0 l 1,14,-1
 0 600 l 1,15,-1
 200 600 l 1,12,-1
800 600 m 1,16,-1
 1000 600 l 1,17,-1
 1000 0 l 1,18,-1
 800 0 l 1,19,-1
 800 600 l 1,16,-1
EndSplineSet
Validated: 5
EndChar

StartChar: afii10078
Encoding: 1084 1084 411
Width: 1200
GlyphClass: 2
Flags: W
LayerCount: 2
Fore
SplineSet
200 800 m 1,0,-1
 400 800 l 1,1,-1
 400 600 l 1,2,-1
 200 600 l 1,3,-1
 200 0 l 1,4,-1
 0 0 l 1,5,-1
 0 1000 l 1,6,-1
 200 1000 l 1,7,-1
 200 800 l 1,0,-1
800 1000 m 1,8,-1
 1000 1000 l 1,9,-1
 1000 0 l 1,10,-1
 800 0 l 1,11,-1
 800 600 l 1,12,-1
 600 600 l 1,13,-1
 600 800 l 1,14,-1
 800 800 l 1,15,-1
 800 1000 l 1,8,-1
400 600 m 1,16,-1
 600 600 l 1,17,-1
 600 400 l 1,18,-1
 400 400 l 1,19,-1
 400 600 l 1,16,-1
EndSplineSet
Validated: 5
EndChar

StartChar: afii10079
Encoding: 1085 1085 412
Width: 1200
GlyphClass: 2
Flags: W
LayerCount: 2
Fore
SplineSet
200 600 m 1,0,-1
 800 600 l 1,1,-1
 800 1000 l 1,2,-1
 1000 1000 l 1,3,-1
 1000 0 l 1,4,-1
 800 0 l 1,5,-1
 800 400 l 1,6,-1
 200 400 l 1,7,-1
 200 0 l 1,8,-1
 0 0 l 1,9,-1
 0 1000 l 1,10,-1
 200 1000 l 1,11,-1
 200 600 l 1,0,-1
EndSplineSet
Validated: 1
EndChar

StartChar: afii10080
Encoding: 1086 1086 413
Width: 1203
GlyphClass: 2
Flags: W
LayerCount: 2
Fore
SplineSet
0 0 m 1,0,-1
 0 1000 l 1,1,-1
 200 1000 l 1,2,-1
 200 0 l 1,3,-1
 0 0 l 1,0,-1
800 0 m 1,4,-1
 800 1000 l 1,5,-1
 1000 1000 l 1,6,-1
 1000 0 l 1,7,-1
 800 0 l 1,4,-1
1000 0 m 1,8,-1
 0 0 l 1,9,-1
 0 200 l 1,10,-1
 1000 200 l 1,11,-1
 1000 0 l 1,8,-1
1000 800 m 1,12,-1
 0 800 l 1,13,-1
 0 1000 l 1,14,-1
 1000 1000 l 1,15,-1
 1000 800 l 1,12,-1
EndSplineSet
Validated: 5
EndChar

StartChar: afii10081
Encoding: 1087 1087 414
Width: 1200
GlyphClass: 2
Flags: W
LayerCount: 2
Fore
SplineSet
200 800 m 1,0,-1
 200 0 l 1,1,-1
 0 0 l 1,2,-1
 0 1000 l 1,3,-1
 1000 1000 l 1,4,-1
 1000 0 l 1,5,-1
 800 0 l 1,6,-1
 800 800 l 1,7,-1
 200 800 l 1,0,-1
EndSplineSet
Validated: 1
EndChar

StartChar: afii10082
Encoding: 1088 1088 415
Width: 1200
GlyphClass: 2
Flags: W
LayerCount: 2
Fore
SplineSet
200 800 m 5,0,-1
 200 600 l 5,1,-1
 800 600 l 5,2,-1
 800 800 l 5,3,-1
 200 800 l 5,0,-1
200 400 m 5,4,-1
 200 0 l 5,5,-1
 0 0 l 5,6,-1
 0 1000 l 5,7,-1
 1000 1000 l 5,8,-1
 1000 400 l 5,9,-1
 200 400 l 5,4,-1
EndSplineSet
Validated: 1
EndChar

StartChar: afii10083
Encoding: 1089 1089 416
Width: 1200
GlyphClass: 2
Flags: W
LayerCount: 2
Fore
SplineSet
200 800 m 1,0,-1
 200 200 l 1,1,-1
 1000 200 l 1,2,-1
 1000 0 l 1,3,-1
 0 0 l 1,4,-1
 0 1000 l 1,5,-1
 1000 1000 l 1,6,-1
 1000 800 l 1,7,-1
 200 800 l 1,0,-1
EndSplineSet
Validated: 1
EndChar

StartChar: afii10084
Encoding: 1090 1090 417
Width: 1200
GlyphClass: 2
Flags: W
LayerCount: 2
Fore
SplineSet
0 800 m 5,0,-1
 0 1000 l 5,1,-1
 1000 1000 l 5,2,-1
 1000 800 l 5,3,-1
 600 800 l 5,4,-1
 600 0 l 5,5,-1
 400 0 l 5,6,-1
 400 800 l 5,7,-1
 0 800 l 5,0,-1
EndSplineSet
Validated: 1
EndChar

StartChar: afii10085
Encoding: 1091 1091 418
Width: 1203
GlyphClass: 2
Flags: W
LayerCount: 2
Fore
SplineSet
200 600 m 1,0,-1
 800 600 l 1,1,-1
 800 1000 l 1,2,-1
 1000 1000 l 1,3,-1
 1000 0 l 1,4,-1
 0 0 l 1,5,-1
 0 200 l 1,6,-1
 800 200 l 1,7,-1
 800 400 l 1,8,-1
 0 400 l 1,9,-1
 0 1000 l 1,10,-1
 200 1000 l 1,11,-1
 200 600 l 1,0,-1
EndSplineSet
Validated: 1
EndChar

StartChar: afii10086
Encoding: 1092 1092 419
Width: 1601
GlyphClass: 2
Flags: W
LayerCount: 2
Fore
SplineSet
0 1000 m 5,0,-1
 1400 1000 l 5,1,-1
 1400 400 l 5,2,-1
 800 400 l 5,3,-1
 800 0 l 5,4,-1
 600 0 l 5,5,-1
 600 400 l 5,6,-1
 0 400 l 5,7,-1
 0 1000 l 5,0,-1
200 800 m 5,8,-1
 200 600 l 5,9,-1
 600 600 l 5,10,-1
 600 800 l 5,11,-1
 200 800 l 5,8,-1
800 800 m 5,12,-1
 800 600 l 5,13,-1
 1200 600 l 5,14,-1
 1200 800 l 5,15,-1
 800 800 l 5,12,-1
EndSplineSet
Validated: 1
EndChar

StartChar: afii10087
Encoding: 1093 1093 420
Width: 1200
GlyphClass: 2
Flags: W
LayerCount: 2
Fore
SplineSet
200 800 m 5,0,-1
 0 800 l 5,1,-1
 0 1000 l 5,2,-1
 200 1000 l 5,3,-1
 200 800 l 5,0,-1
800 1000 m 5,4,-1
 1000 1000 l 5,5,-1
 1000 800 l 5,6,-1
 800 800 l 5,7,-1
 800 1000 l 5,4,-1
200 800 m 5,8,-1
 400 800 l 5,9,-1
 400 600 l 5,10,-1
 200 600 l 5,11,-1
 200 800 l 5,8,-1
600 800 m 5,12,-1
 800 800 l 5,13,-1
 800 600 l 5,14,-1
 600 600 l 5,15,-1
 600 800 l 5,12,-1
400 600 m 5,16,-1
 600 600 l 5,17,-1
 600 400 l 5,18,-1
 400 400 l 5,19,-1
 400 600 l 5,16,-1
200 400 m 5,20,-1
 400 400 l 5,21,-1
 400 200 l 5,22,-1
 200 200 l 5,23,-1
 200 400 l 5,20,-1
600 400 m 5,24,-1
 800 400 l 5,25,-1
 800 200 l 5,26,-1
 600 200 l 5,27,-1
 600 400 l 5,24,-1
200 200 m 5,28,-1
 200 0 l 5,29,-1
 0 0 l 5,30,-1
 0 200 l 5,31,-1
 200 200 l 5,28,-1
800 200 m 5,32,-1
 1000 200 l 5,33,-1
 1000 0 l 5,34,-1
 800 0 l 5,35,-1
 800 200 l 5,32,-1
EndSplineSet
Validated: 5
EndChar

StartChar: afii10088
Encoding: 1094 1094 421
Width: 1200
GlyphClass: 2
Flags: W
LayerCount: 2
Fore
SplineSet
200 200 m 1,0,-1
 800 200 l 1,1,-1
 800 1000 l 1,2,-1
 1000 1000 l 1,3,-1
 1000 0 l 1,4,-1
 0 0 l 1,5,-1
 0 1000 l 1,6,-1
 200 1000 l 1,7,-1
 200 200 l 1,0,-1
800 -200 m 1,8,-1
 800 0 l 1,9,-1
 1000 0 l 1,10,-1
 1000 -200 l 1,11,-1
 800 -200 l 1,8,-1
EndSplineSet
Validated: 5
EndChar

StartChar: afii10089
Encoding: 1095 1095 422
Width: 1200
GlyphClass: 2
Flags: W
LayerCount: 2
Fore
SplineSet
200 600 m 1,0,-1
 800 600 l 1,1,-1
 800 1000 l 1,2,-1
 1000 1000 l 1,3,-1
 1000 0 l 1,4,-1
 800 0 l 1,5,-1
 800 400 l 1,6,-1
 0 400 l 1,7,-1
 0 1000 l 1,8,-1
 200 1000 l 1,9,-1
 200 600 l 1,0,-1
EndSplineSet
Validated: 1
EndChar

StartChar: afii10090
Encoding: 1096 1096 423
Width: 1201
GlyphClass: 2
Flags: W
LayerCount: 2
Fore
SplineSet
200 200 m 1,0,-1
 400 200 l 1,1,-1
 400 1000 l 1,2,-1
 600 1000 l 1,3,-1
 600 200 l 1,4,-1
 800 200 l 1,5,-1
 800 1000 l 1,6,-1
 1000 1000 l 1,7,-1
 1000 0 l 1,8,-1
 0 0 l 1,9,-1
 0 1000 l 1,10,-1
 200 1000 l 1,11,-1
 200 200 l 1,0,-1
EndSplineSet
Validated: 1
EndChar

StartChar: afii10091
Encoding: 1097 1097 424
Width: 1200
GlyphClass: 2
Flags: W
LayerCount: 2
Fore
SplineSet
200 200 m 1,0,-1
 400 200 l 1,1,-1
 400 1000 l 1,2,-1
 600 1000 l 1,3,-1
 600 200 l 1,4,-1
 800 200 l 1,5,-1
 800 1000 l 1,6,-1
 1000 1000 l 1,7,-1
 1000 0 l 1,8,-1
 0 0 l 1,9,-1
 0 1000 l 1,10,-1
 200 1000 l 1,11,-1
 200 200 l 1,0,-1
800 -200 m 1,12,-1
 800 0 l 1,13,-1
 1000 0 l 1,14,-1
 1000 -200 l 1,15,-1
 800 -200 l 1,12,-1
EndSplineSet
Validated: 5
EndChar

StartChar: afii10092
Encoding: 1098 1098 425
Width: 1421
GlyphClass: 2
Flags: W
LayerCount: 2
Fore
SplineSet
421 600 m 1,0,-1
 1221 600 l 1,1,-1
 1221 0 l 1,2,-1
 221 0 l 1,3,-1
 221 1000 l 1,4,-1
 421 1000 l 1,5,-1
 421 600 l 1,0,-1
421 400 m 1,6,-1
 421 200 l 1,7,-1
 1021 200 l 1,8,-1
 1021 400 l 1,9,-1
 421 400 l 1,6,-1
21 800 m 1,10,-1
 21 1000 l 1,11,-1
 221 1000 l 1,12,-1
 221 800 l 1,13,-1
 21 800 l 1,10,-1
EndSplineSet
Validated: 5
EndChar

StartChar: afii10093
Encoding: 1099 1099 426
Width: 1599
GlyphClass: 2
Flags: W
LayerCount: 2
Fore
SplineSet
200 600 m 1,0,-1
 1000 600 l 1,1,-1
 1000 0 l 1,2,-1
 0 0 l 1,3,-1
 0 1000 l 1,4,-1
 200 1000 l 1,5,-1
 200 600 l 1,0,-1
1200 1000 m 1,6,-1
 1400 1000 l 1,7,-1
 1400 0 l 1,8,-1
 1200 0 l 1,9,-1
 1200 1000 l 1,6,-1
200 400 m 1,10,-1
 200 200 l 1,11,-1
 800 200 l 1,12,-1
 800 400 l 1,13,-1
 200 400 l 1,10,-1
EndSplineSet
Validated: 1
EndChar

StartChar: afii10094
Encoding: 1100 1100 427
Width: 1200
GlyphClass: 2
Flags: W
LayerCount: 2
Fore
SplineSet
200 600 m 1,0,-1
 1000 600 l 1,1,-1
 1000 0 l 1,2,-1
 0 0 l 1,3,-1
 0 1000 l 1,4,-1
 200 1000 l 1,5,-1
 200 600 l 1,0,-1
200 400 m 1,6,-1
 200 200 l 1,7,-1
 800 200 l 1,8,-1
 800 400 l 1,9,-1
 200 400 l 1,6,-1
EndSplineSet
Validated: 1
EndChar

StartChar: afii10095
Encoding: 1101 1101 428
Width: 1200
GlyphClass: 2
Flags: W
LayerCount: 2
Fore
SplineSet
0 800 m 1,0,-1
 0 1000 l 1,1,-1
 1000 1000 l 1,2,-1
 1000 0 l 1,3,-1
 0 0 l 1,4,-1
 0 200 l 1,5,-1
 800 200 l 1,6,-1
 800 400 l 1,7,-1
 0 400 l 1,8,-1
 0 600 l 1,9,-1
 800 600 l 1,10,-1
 800 800 l 1,11,-1
 0 800 l 1,0,-1
EndSplineSet
Validated: 1
EndChar

StartChar: afii10096
Encoding: 1102 1102 429
Width: 1599
GlyphClass: 2
Flags: W
LayerCount: 2
Fore
SplineSet
200 600 m 1,0,-1
 400 600 l 1,1,-1
 400 1000 l 1,2,-1
 1400 1000 l 1,3,-1
 1400 0 l 1,4,-1
 400 0 l 1,5,-1
 400 400 l 1,6,-1
 200 400 l 1,7,-1
 200 0 l 1,8,-1
 0 0 l 1,9,-1
 0 1000 l 1,10,-1
 200 1000 l 1,11,-1
 200 600 l 1,0,-1
600 800 m 1,12,-1
 600 200 l 1,13,-1
 1200 200 l 1,14,-1
 1200 800 l 1,15,-1
 600 800 l 1,12,-1
EndSplineSet
Validated: 1
EndChar

StartChar: afii10097
Encoding: 1103 1103 430
Width: 1200
GlyphClass: 2
Flags: W
LayerCount: 2
Fore
SplineSet
200 1000 m 1,0,-1
 1000 1000 l 1,1,-1
 1000 0 l 1,2,-1
 800 0 l 1,3,-1
 800 400 l 1,4,-1
 400 400 l 1,5,-1
 400 200 l 1,6,-1
 200 200 l 1,7,-1
 200 400 l 1,8,-1
 0 400 l 1,9,-1
 0 800 l 1,10,-1
 200 800 l 1,11,-1
 200 600 l 1,12,-1
 800 600 l 1,13,-1
 800 800 l 1,14,-1
 200 800 l 1,15,-1
 200 1000 l 1,0,-1
200 196 m 5,16,-1
 200 0 l 5,17,-1
 0 0 l 1,18,-1
 0 196 l 1,19,-1
 200 196 l 5,16,-1
EndSplineSet
Validated: 5
EndChar

StartChar: afii10071
Encoding: 1105 1105 431
Width: 1200
GlyphClass: 2
Flags: W
LayerCount: 2
Fore
SplineSet
1000 800 m 1,0,-1
 195 800 l 1,1,-1
 195 600 l 1,2,-1
 597 600 l 1,3,-1
 597 400 l 1,4,-1
 195 400 l 1,5,-1
 195 200 l 1,6,-1
 1000 200 l 1,7,-1
 1000 0 l 1,8,-1
 0 0 l 1,9,-1
 0 1000 l 1,10,-1
 1000 1000 l 1,11,-1
 1000 800 l 1,0,-1
200 1100 m 5,12,-1
 200 1300 l 5,13,-1
 400 1300 l 5,14,-1
 400 1100 l 5,15,-1
 200 1100 l 5,12,-1
600 1100 m 5,16,-1
 600 1300 l 5,17,-1
 800 1300 l 5,18,-1
 800 1100 l 5,19,-1
 600 1100 l 5,16,-1
EndSplineSet
Validated: 1
EndChar

StartChar: afii10101
Encoding: 1108 1108 432
Width: 1200
GlyphClass: 2
Flags: W
LayerCount: 2
Fore
SplineSet
1000 800 m 1,0,-1
 195 800 l 1,1,-1
 195 600 l 1,2,-1
 1002 600 l 1,3,-1
 1002 400 l 1,4,-1
 195 400 l 1,5,-1
 195 200 l 1,6,-1
 1000 200 l 1,7,-1
 1000 0 l 1,8,-1
 0 0 l 1,9,-1
 0 1000 l 1,10,-1
 1000 1000 l 1,11,-1
 1000 800 l 1,0,-1
EndSplineSet
Validated: 1
EndChar

StartChar: afii10103
Encoding: 1110 1110 433
Width: 400
GlyphClass: 2
Flags: W
LayerCount: 2
Fore
SplineSet
0 1000 m 5,0,-1
 200 1000 l 5,1,-1
 200 0 l 5,2,-1
 0 0 l 5,3,-1
 0 1000 l 5,0,-1
1 1071 m 5,4,-1
 1 1271 l 5,5,-1
 201 1271 l 5,6,-1
 201 1071 l 5,7,-1
 1 1071 l 5,4,-1
EndSplineSet
Validated: 1
EndChar

StartChar: afii10104
Encoding: 1111 1111 434
Width: 682
GlyphClass: 2
Flags: W
LayerCount: 2
Fore
SplineSet
204 1000 m 1,0,-1
 404 1000 l 1,1,-1
 404 0 l 1,2,-1
 204 0 l 1,3,-1
 204 1000 l 1,0,-1
4 1071 m 1,4,-1
 4 1271 l 1,5,-1
 204 1271 l 1,6,-1
 204 1071 l 1,7,-1
 4 1071 l 1,4,-1
404 1071 m 1,8,-1
 404 1271 l 1,9,-1
 604 1271 l 1,10,-1
 604 1071 l 1,11,-1
 404 1071 l 1,8,-1
EndSplineSet
Validated: 1
EndChar

StartChar: uni0490
Encoding: 1168 1168 435
Width: 1195
GlyphClass: 2
Flags: W
LayerCount: 2
Fore
SplineSet
987 800 m 1,0,-1
 205 800 l 1,1,-1
 205 13 l 1,2,-1
 192 0 l 1,3,-1
 0 0 l 1,4,-1
 0 1000 l 1,5,-1
 783 1002 l 1,6,-1
 783 1178 l 1,7,-1
 1000 1178 l 1,8,-1
 1000 813 l 1,9,-1
 987 800 l 1,0,-1
EndSplineSet
Validated: 1
EndChar

StartChar: afii10098
Encoding: 1169 1169 436
Width: 1195
GlyphClass: 2
Flags: W
LayerCount: 2
Fore
SplineSet
987 800 m 1,0,-1
 205 800 l 1,1,-1
 205 13 l 1,2,-1
 192 0 l 1,3,-1
 0 0 l 1,4,-1
 0 1000 l 1,5,-1
 783 1002 l 1,6,-1
 783 1178 l 1,7,-1
 1000 1178 l 1,8,-1
 1000 813 l 1,9,-1
 987 800 l 1,0,-1
EndSplineSet
Validated: 1
EndChar

StartChar: quoteleft
Encoding: 8216 8216 446
Width: 400
GlyphClass: 2
Flags: W
LayerCount: 2
Fore
SplineSet
200 1000 m 1,0,-1
 0 1000 l 1,1,-1
 0 1400 l 1,2,-1
 200 1400 l 1,3,-1
 200 1000 l 1,0,-1
EndSplineSet
Validated: 1
EndChar

StartChar: quoteright
Encoding: 8217 8217 447
Width: 400
GlyphClass: 2
Flags: W
LayerCount: 2
Fore
SplineSet
200 1000 m 1,0,-1
 0 1000 l 1,1,-1
 0 1400 l 1,2,-1
 200 1400 l 1,3,-1
 200 1000 l 1,0,-1
EndSplineSet
Validated: 1
EndChar

StartChar: quotedblright
Encoding: 8221 8221 450
Width: 798
GlyphClass: 2
Flags: W
LayerCount: 2
Fore
SplineSet
200 1000 m 1,0,-1
 0 1000 l 1,1,-1
 0 1400 l 1,2,-1
 200 1400 l 1,3,-1
 200 1000 l 1,0,-1
400 1400 m 1,4,-1
 600 1400 l 1,5,-1
 600 1000 l 1,6,-1
 400 1000 l 1,7,-1
 400 1400 l 1,4,-1
EndSplineSet
Validated: 1
EndChar

StartChar: minute
Encoding: 8242 8242 451
Width: 400
GlyphClass: 2
Flags: W
LayerCount: 2
Fore
SplineSet
200 600 m 1,0,-1
 0 600 l 1,1,-1
 0 1000 l 1,2,-1
 200 1000 l 1,3,-1
 200 600 l 1,0,-1
EndSplineSet
Validated: 1
EndChar

StartChar: second
Encoding: 8243 8243 452
Width: 798
GlyphClass: 2
Flags: W
LayerCount: 2
Fore
SplineSet
200 600 m 1,0,-1
 0 600 l 1,1,-1
 0 1000 l 1,2,-1
 200 1000 l 1,3,-1
 200 600 l 1,0,-1
400 1000 m 1,4,-1
 600 1000 l 1,5,-1
 600 600 l 1,6,-1
 400 600 l 1,7,-1
 400 1000 l 1,4,-1
EndSplineSet
Validated: 1
EndChar

StartChar: afii61352
Encoding: 8470 8470 462
Width: 2001
GlyphClass: 2
Flags: W
LayerCount: 2
Fore
SplineSet
200 800 m 1,0,-1
 400 800 l 1,1,-1
 400 600 l 1,2,-1
 200 600 l 1,3,-1
 200 0 l 1,4,-1
 0 0 l 1,5,-1
 0 1000 l 1,6,-1
 200 1000 l 1,7,-1
 200 800 l 1,0,-1
800 1000 m 1,8,-1
 1000 1000 l 1,9,-1
 1000 0 l 1,10,-1
 800 0 l 1,11,-1
 800 200 l 1,12,-1
 600 200 l 1,13,-1
 600 400 l 1,14,-1
 800 400 l 1,15,-1
 800 1000 l 1,8,-1
400 600 m 1,16,-1
 600 600 l 1,17,-1
 600 400 l 1,18,-1
 400 400 l 1,19,-1
 400 600 l 1,16,-1
1200 0 m 1,20,-1
 1200 200 l 1,21,-1
 1800 200 l 1,22,-1
 1800 0 l 1,23,-1
 1200 0 l 1,20,-1
1208 1000 m 1,24,-1
 1792 1000 l 1,25,-1
 1800 992 l 1,26,-1
 1800 408 l 1,27,-1
 1792 400 l 1,28,-1
 1208 400 l 1,29,-1
 1200 408 l 1,30,-1
 1200 992 l 1,31,-1
 1208 1000 l 1,24,-1
1400 800 m 1,32,-1
 1400 600 l 1,33,-1
 1600 600 l 1,34,-1
 1600 800 l 1,35,-1
 1400 800 l 1,32,-1
EndSplineSet
Validated: 5
EndChar

StartChar: .notdef.001
Encoding: 65539 -1 576
Width: 1536
GlyphClass: 2
Flags: W
LayerCount: 2
Fore
SplineSet
256 0 m 1,0,-1
 256 1280 l 1,1,-1
 1280 1280 l 1,2,-1
 1280 0 l 1,3,-1
 256 0 l 1,0,-1
288 32 m 1,4,-1
 1248 32 l 1,5,-1
 1248 1248 l 1,6,-1
 288 1248 l 1,7,-1
 288 32 l 1,4,-1
EndSplineSet
Validated: 1
EndChar

StartChar: Ohungarumlaut
Encoding: 336 336 587
Width: 1206
Flags: W
LayerCount: 2
Fore
SplineSet
772 1081 m 1,0,-1
 588 1081 l 1,1,-1
 588 1286 l 1,2,-1
 772 1286 l 1,3,-1
 772 1081 l 1,0,-1
402 1081 m 1,4,-1
 217 1081 l 1,5,-1
 217 1286 l 1,6,-1
 402 1286 l 1,7,-1
 402 1081 l 1,4,-1
0 0 m 1,8,-1
 0 1000 l 1,9,-1
 200 1000 l 1,10,-1
 200 0 l 1,11,-1
 0 0 l 1,8,-1
800 0 m 1,12,-1
 800 1000 l 1,13,-1
 1000 1000 l 1,14,-1
 1000 0 l 1,15,-1
 800 0 l 1,12,-1
1000 0 m 1,16,-1
 0 0 l 1,17,-1
 0 200 l 1,18,-1
 1000 200 l 1,19,-1
 1000 0 l 1,16,-1
1000 800 m 1,20,-1
 0 800 l 1,21,-1
 0 1000 l 1,22,-1
 1000 1000 l 1,23,-1
 1000 800 l 1,20,-1
EndSplineSet
Validated: 5
EndChar

StartChar: uni040E
Encoding: 1038 1038 588
Width: 1201
Flags: W
LayerCount: 2
Fore
SplineSet
808 1348 m 5,0,-1
 604 1348 l 5,1,-1
 495 1178 l 5,2,-1
 380 1348 l 5,3,-1
 176 1348 l 5,4,-1
 393 1067 l 5,5,-1
 583 1067 l 5,6,-1
 808 1348 l 5,0,-1
200 600 m 1,7,-1
 800 600 l 1,8,-1
 800 1000 l 1,9,-1
 1000 1000 l 1,10,-1
 1000 400 l 1,11,-1
 600 400 l 1,12,-1
 600 0 l 1,13,-1
 400 0 l 1,14,-1
 400 400 l 1,15,-1
 0 400 l 1,16,-1
 0 1000 l 1,17,-1
 200 1000 l 1,18,-1
 200 600 l 1,7,-1
EndSplineSet
Validated: 9
EndChar

StartChar: upsilon
Encoding: 965 965 590
Width: 1196
Flags: W
LayerCount: 2
Fore
SplineSet
200 800 m 5,0,-1
 0 800 l 5,1,-1
 0 1000 l 5,2,-1
 200 1000 l 5,3,-1
 200 800 l 5,0,-1
800 1000 m 5,4,-1
 1000 1000 l 5,5,-1
 1000 800 l 5,6,-1
 800 800 l 5,7,-1
 800 1000 l 5,4,-1
200 800 m 5,8,-1
 400 800 l 5,9,-1
 400 600 l 5,10,-1
 200 600 l 5,11,-1
 200 800 l 5,8,-1
600 800 m 5,12,-1
 800 800 l 5,13,-1
 800 600 l 5,14,-1
 600 600 l 5,15,-1
 600 800 l 5,12,-1
400 600 m 5,16,-1
 600 600 l 5,17,-1
 600 0 l 5,18,-1
 400 0 l 5,19,-1
 400 600 l 5,16,-1
EndSplineSet
Validated: 5
EndChar

StartChar: chi
Encoding: 967 967 591
Width: 1200
Flags: W
LayerCount: 2
Fore
SplineSet
200 800 m 5,0,-1
 0 800 l 5,1,-1
 0 1000 l 5,2,-1
 200 1000 l 5,3,-1
 200 800 l 5,0,-1
800 1000 m 5,4,-1
 1000 1000 l 5,5,-1
 1000 800 l 5,6,-1
 800 800 l 5,7,-1
 800 1000 l 5,4,-1
200 800 m 5,8,-1
 400 800 l 5,9,-1
 400 600 l 5,10,-1
 200 600 l 5,11,-1
 200 800 l 5,8,-1
600 800 m 5,12,-1
 800 800 l 5,13,-1
 800 600 l 5,14,-1
 600 600 l 5,15,-1
 600 800 l 5,12,-1
400 600 m 5,16,-1
 600 600 l 5,17,-1
 600 400 l 5,18,-1
 400 400 l 5,19,-1
 400 600 l 5,16,-1
200 400 m 5,20,-1
 400 400 l 5,21,-1
 400 200 l 5,22,-1
 200 200 l 5,23,-1
 200 400 l 5,20,-1
600 400 m 5,24,-1
 800 400 l 5,25,-1
 800 200 l 5,26,-1
 600 200 l 5,27,-1
 600 400 l 5,24,-1
200 200 m 5,28,-1
 200 0 l 5,29,-1
 0 0 l 5,30,-1
 0 200 l 5,31,-1
 200 200 l 5,28,-1
800 200 m 5,32,-1
 1000 200 l 5,33,-1
 1000 0 l 5,34,-1
 800 0 l 5,35,-1
 800 200 l 5,32,-1
EndSplineSet
Validated: 5
EndChar

StartChar: Eth
Encoding: 208 208 592
Width: 1202
Flags: W
LayerCount: 2
Fore
SplineSet
-262 603 m 1,0,-1
 455 603 l 1,1,-1
 455 405 l 1,2,-1
 -262 405 l 1,3,-1
 -262 603 l 1,0,-1
800 800 m 1,4,-1
 200 800 l 1,5,-1
 200 200 l 1,6,-1
 800 200 l 1,7,-1
 800 0 l 1,8,-1
 0 0 l 1,9,-1
 0 1000 l 1,10,-1
 800 1000 l 1,11,-1
 800 800 l 1,4,-1
800 800 m 1,12,-1
 1000 800 l 1,13,-1
 1000 200 l 1,14,-1
 800 200 l 1,15,-1
 800 800 l 1,12,-1
EndSplineSet
Validated: 5
EndChar

StartChar: eth
Encoding: 240 240 593
Width: 1202
Flags: W
LayerCount: 2
Fore
SplineSet
-262 603 m 1,0,-1
 455 603 l 1,1,-1
 455 405 l 1,2,-1
 -262 405 l 1,3,-1
 -262 603 l 1,0,-1
800 800 m 1,4,-1
 200 800 l 1,5,-1
 200 200 l 1,6,-1
 800 200 l 1,7,-1
 800 0 l 1,8,-1
 0 0 l 1,9,-1
 0 1000 l 1,10,-1
 800 1000 l 1,11,-1
 800 800 l 1,4,-1
800 800 m 1,12,-1
 1000 800 l 1,13,-1
 1000 200 l 1,14,-1
 800 200 l 1,15,-1
 800 800 l 1,12,-1
EndSplineSet
Validated: 5
EndChar

StartChar: uni0402
Encoding: 1026 1026 594
Width: 1200
Flags: W
LayerCount: 2
Fore
SplineSet
1004 0 m 1,0,-1
 806 0 l 1,1,-1
 806 215 l 1,2,-1
 1004 215 l 1,3,-1
 1004 0 l 1,0,-1
998 512 m 1,4,-1
 1200 512 l 1,5,-1
 1200 0 l 1,6,-1
 998 0 l 1,7,-1
 998 512 l 1,4,-1
410 641 m 1,8,-1
 1197 641 l 1,9,-1
 1197 458 l 1,10,-1
 410 458 l 1,11,-1
 410 641 l 1,8,-1
0 800 m 1,12,-1
 0 1000 l 1,13,-1
 1000 1000 l 1,14,-1
 1000 800 l 1,15,-1
 600 800 l 1,16,-1
 600 0 l 1,17,-1
 400 0 l 1,18,-1
 400 800 l 1,19,-1
 0 800 l 1,12,-1
EndSplineSet
Validated: 5
EndChar

StartChar: uni0452
Encoding: 1106 1106 595
Width: 1200
Flags: W
LayerCount: 2
Fore
SplineSet
1004 0 m 1,0,-1
 806 0 l 1,1,-1
 806 215 l 1,2,-1
 1004 215 l 1,3,-1
 1004 0 l 1,0,-1
998 512 m 1,4,-1
 1200 512 l 1,5,-1
 1200 0 l 1,6,-1
 998 0 l 1,7,-1
 998 512 l 1,4,-1
410 641 m 1,8,-1
 1197 641 l 1,9,-1
 1197 458 l 1,10,-1
 410 458 l 1,11,-1
 410 641 l 1,8,-1
0 800 m 1,12,-1
 0 1000 l 1,13,-1
 1000 1000 l 1,14,-1
 1000 800 l 1,15,-1
 600 800 l 1,16,-1
 600 0 l 1,17,-1
 400 0 l 1,18,-1
 400 800 l 1,19,-1
 0 800 l 1,12,-1
EndSplineSet
Validated: 5
EndChar

StartChar: uni0409
Encoding: 1033 1033 596
Width: 1200
Flags: W
LayerCount: 2
Fore
SplineSet
797 605 m 1,0,-1
 997 605 l 1,1,-1
 997 405 l 1,2,-1
 797 405 l 1,3,-1
 797 605 l 1,0,-1
1001 401 m 1,4,-1
 1201 401 l 1,5,-1
 1198 6 l 1,6,-1
 998 6 l 1,7,-1
 1001 401 l 1,4,-1
800 203 m 1,8,-1
 1000 203 l 1,9,-1
 1000 3 l 1,10,-1
 800 3 l 1,11,-1
 800 203 l 1,8,-1
-196 200 m 1,12,-1
 4 200 l 1,13,-1
 4 0 l 1,14,-1
 -196 0 l 1,15,-1
 -196 200 l 1,12,-1
400 1000 m 1,16,-1
 600 1000 l 1,17,-1
 600 800 l 1,18,-1
 400 800 l 1,19,-1
 400 1000 l 1,16,-1
200 800 m 1,20,-1
 400 800 l 1,21,-1
 400 600 l 1,22,-1
 200 600 l 1,23,-1
 200 800 l 1,20,-1
600 1001 m 1,24,-1
 800 1001 l 1,25,-1
 800 4 l 1,26,-1
 600 4 l 1,27,-1
 600 1001 l 1,24,-1
200 600 m 1,28,-1
 200 0 l 1,29,-1
 0 0 l 1,30,-1
 0 600 l 1,31,-1
 200 600 l 1,28,-1
EndSplineSet
Validated: 5
EndChar

StartChar: uni0459
Encoding: 1113 1113 597
Width: 1200
Flags: W
LayerCount: 2
Fore
SplineSet
797 605 m 1,0,-1
 997 605 l 1,1,-1
 997 405 l 1,2,-1
 797 405 l 1,3,-1
 797 605 l 1,0,-1
1001 401 m 1,4,-1
 1201 401 l 1,5,-1
 1198 6 l 1,6,-1
 998 6 l 1,7,-1
 1001 401 l 1,4,-1
800 203 m 1,8,-1
 1000 203 l 1,9,-1
 1000 3 l 1,10,-1
 800 3 l 1,11,-1
 800 203 l 1,8,-1
-196 200 m 1,12,-1
 4 200 l 1,13,-1
 4 0 l 1,14,-1
 -196 0 l 1,15,-1
 -196 200 l 1,12,-1
400 1000 m 1,16,-1
 600 1000 l 1,17,-1
 600 800 l 1,18,-1
 400 800 l 1,19,-1
 400 1000 l 1,16,-1
200 800 m 1,20,-1
 400 800 l 1,21,-1
 400 600 l 1,22,-1
 200 600 l 1,23,-1
 200 800 l 1,20,-1
600 1001 m 1,24,-1
 800 1001 l 1,25,-1
 800 4 l 1,26,-1
 600 4 l 1,27,-1
 600 1001 l 1,24,-1
200 600 m 1,28,-1
 200 0 l 1,29,-1
 0 0 l 1,30,-1
 0 600 l 1,31,-1
 200 600 l 1,28,-1
EndSplineSet
Validated: 5
EndChar

StartChar: uni3131
Encoding: 12593 12593 598
Width: 892
VWidth: 1000
Flags: W
LayerCount: 2
Fore
SplineSet
645 61 m 1,0,-1
 645 464 l 1,1,-1
 146 464 l 1,2,-1
 146 540 l 1,3,-1
 731 540 l 1,4,-1
 731 61 l 1,5,-1
 645 61 l 1,0,-1
EndSplineSet
Validated: 1
EndChar

StartChar: uni3132
Encoding: 12594 12594 599
Width: 892
VWidth: 1000
Flags: W
LayerCount: 2
Fore
SplineSet
672 61 m 1,0,-1
 672 463 l 1,1,-1
 457 463 l 1,2,-1
 457 540 l 1,3,-1
 758 540 l 1,4,-1
 758 61 l 1,5,-1
 672 61 l 1,0,-1
328 61 m 1,6,-1
 328 463 l 1,7,-1
 112 463 l 1,8,-1
 112 540 l 1,9,-1
 414 540 l 1,10,-1
 414 61 l 1,11,-1
 328 61 l 1,6,-1
EndSplineSet
Validated: 1
EndChar

StartChar: uni3133
Encoding: 12595 12595 600
Width: 892
VWidth: 1000
Flags: W
LayerCount: 2
Fore
SplineSet
323 61 m 1,0,-1
 323 463 l 1,1,-1
 107 463 l 1,2,-1
 107 540 l 1,3,-1
 409 540 l 1,4,-1
 409 61 l 1,5,-1
 323 61 l 1,0,-1
481 45 m 1,6,-1
 412 100 l 1,7,8
 508 173 508 173 548.5 283 c 128,-1,9
 589 393 589 393 579 545 c 1,10,-1
 662 545 l 1,11,12
 663 504 663 504 661 467.5 c 128,-1,13
 659 431 659 431 655 399 c 1,14,15
 671 306 671 306 717 232 c 128,-1,16
 763 158 763 158 826 107 c 1,17,-1
 759 49 l 1,18,19
 712 94 712 94 678.5 145 c 128,-1,20
 645 196 645 196 624 260 c 1,21,22
 601 196 601 196 565.5 144.5 c 128,-1,23
 530 93 530 93 481 45 c 1,6,-1
EndSplineSet
Validated: 33
EndChar

StartChar: uni3134
Encoding: 12596 12596 601
Width: 892
VWidth: 1000
Flags: W
LayerCount: 2
Fore
SplineSet
746 75 m 1,0,-1
 161 75 l 1,1,-1
 161 549 l 1,2,-1
 248 549 l 1,3,-1
 248 150 l 1,4,-1
 746 150 l 1,5,-1
 746 75 l 1,0,-1
EndSplineSet
Validated: 1
EndChar

StartChar: uni3135
Encoding: 12597 12597 602
Width: 892
VWidth: 1000
Flags: W
LayerCount: 2
Fore
SplineSet
434 70 m 1,0,-1
 121 70 l 1,1,-1
 121 550 l 1,2,-1
 208 550 l 1,3,-1
 208 145 l 1,4,-1
 437 145 l 1,5,-1
 437 133 l 1,6,7
 495 170 495 170 537 214.5 c 128,-1,8
 579 259 579 259 607 304 c 128,-1,9
 635 349 635 349 649.5 391 c 128,-1,10
 664 433 664 433 667 467 c 1,11,12
 635 465 635 465 604.5 464.5 c 128,-1,13
 574 464 574 464 544 464 c 2,14,-1
 465 464 l 1,15,-1
 465 537 l 1,16,-1
 569 537 l 2,17,18
 616 537 616 537 661 537 c 128,-1,19
 706 537 706 537 757 539 c 1,20,21
 755 414 755 414 690 295 c 1,22,23
 716 241 716 241 759.5 194 c 128,-1,24
 803 147 803 147 861 108 c 1,25,-1
 797 49 l 1,26,27
 749 88 749 88 712 129.5 c 128,-1,28
 675 171 675 171 645 225 c 1,29,30
 610 176 610 176 564 130.5 c 128,-1,31
 518 85 518 85 461 44 c 1,32,-1
 434 70 l 1,0,-1
EndSplineSet
Validated: 1
EndChar

StartChar: uni3136
Encoding: 12598 12598 603
Width: 892
VWidth: 1000
Flags: W
LayerCount: 2
Fore
SplineSet
432 70 m 1,0,-1
 121 70 l 1,1,-1
 121 550 l 1,2,-1
 208 550 l 1,3,-1
 208 145 l 1,4,-1
 432 145 l 1,5,-1
 432 70 l 1,0,-1
401 364 m 1,6,-1
 401 431 l 1,7,-1
 815 431 l 1,8,-1
 815 364 l 1,9,-1
 401 364 l 1,6,-1
478 486 m 1,10,-1
 478 555 l 1,11,-1
 734 555 l 1,12,-1
 734 486 l 1,13,-1
 478 486 l 1,10,-1
613 333 m 0,14,15
 650 333 650 333 680 322.5 c 128,-1,16
 710 312 710 312 730 293 c 128,-1,17
 750 274 750 274 761 249 c 128,-1,18
 772 224 772 224 772 195 c 0,19,20
 772 130 772 130 728.5 92.5 c 128,-1,21
 685 55 685 55 613 55 c 0,22,23
 542 55 542 55 498.5 92.5 c 128,-1,24
 455 130 455 130 455 195 c 0,25,26
 455 224 455 224 465.5 249 c 128,-1,27
 476 274 476 274 496.5 293 c 128,-1,28
 517 312 517 312 546 322.5 c 128,-1,29
 575 333 575 333 613 333 c 0,14,15
612 267 m 0,30,31
 574 267 574 267 553 246 c 128,-1,32
 532 225 532 225 532 194 c 0,33,34
 532 162 532 162 554 141.5 c 128,-1,35
 576 121 576 121 612 121 c 0,36,37
 650 121 650 121 672.5 141.5 c 128,-1,38
 695 162 695 162 695 194 c 0,39,40
 695 225 695 225 674 246 c 128,-1,41
 653 267 653 267 612 267 c 0,30,31
EndSplineSet
Validated: 1
EndChar

StartChar: uni3137
Encoding: 12599 12599 604
Width: 892
VWidth: 1000
Flags: W
LayerCount: 2
Fore
SplineSet
162 539 m 1,0,-1
 739 539 l 1,1,-1
 739 464 l 1,2,-1
 250 464 l 1,3,-1
 250 144 l 1,4,-1
 745 144 l 1,5,-1
 745 72 l 1,6,-1
 162 72 l 1,7,-1
 162 539 l 1,0,-1
EndSplineSet
Validated: 1
EndChar

StartChar: uni3138
Encoding: 12600 12600 605
Width: 892
VWidth: 1000
Flags: W
LayerCount: 2
Fore
SplineSet
454 538 m 1,0,-1
 768 538 l 1,1,-1
 768 465 l 1,2,-1
 538 465 l 1,3,-1
 538 146 l 1,4,-1
 779 146 l 1,5,-1
 779 71 l 1,6,-1
 454 71 l 1,7,-1
 454 538 l 1,0,-1
423 71 m 1,8,-1
 109 71 l 1,9,-1
 109 538 l 1,10,-1
 405 538 l 1,11,-1
 405 465 l 1,12,-1
 194 465 l 1,13,-1
 194 146 l 1,14,-1
 423 146 l 1,15,-1
 423 71 l 1,8,-1
EndSplineSet
Validated: 1
EndChar

StartChar: uni3139
Encoding: 12601 12601 606
Width: 892
VWidth: 1000
Flags: W
LayerCount: 2
Fore
SplineSet
760 66 m 1,0,-1
 150 66 l 1,1,-1
 150 347 l 1,2,-1
 645 347 l 1,3,-1
 645 471 l 1,4,-1
 151 471 l 1,5,-1
 151 545 l 1,6,-1
 732 545 l 1,7,-1
 732 273 l 1,8,-1
 236 273 l 1,9,-1
 236 142 l 1,10,-1
 760 142 l 1,11,-1
 760 66 l 1,0,-1
EndSplineSet
Validated: 1
EndChar

StartChar: uni313A
Encoding: 12602 12602 607
Width: 892
VWidth: 1000
Flags: W
LayerCount: 2
Fore
SplineSet
462 66 m 1,0,-1
 118 66 l 1,1,-1
 118 347 l 1,2,-1
 347 347 l 1,3,-1
 347 471 l 1,4,-1
 119 471 l 1,5,-1
 119 545 l 1,6,-1
 434 545 l 1,7,-1
 434 273 l 1,8,-1
 204 273 l 1,9,-1
 204 142 l 1,10,-1
 462 142 l 1,11,-1
 462 66 l 1,0,-1
677 56 m 1,12,-1
 677 472 l 1,13,-1
 480 472 l 1,14,-1
 480 545 l 1,15,-1
 763 545 l 1,16,-1
 763 56 l 1,17,-1
 677 56 l 1,12,-1
EndSplineSet
Validated: 1
EndChar

StartChar: uni313B
Encoding: 12603 12603 608
Width: 892
VWidth: 1000
Flags: W
LayerCount: 2
Fore
SplineSet
434 66 m 1,0,-1
 115 66 l 1,1,-1
 115 347 l 1,2,-1
 332 347 l 1,3,-1
 332 471 l 1,4,-1
 116 471 l 1,5,-1
 116 545 l 1,6,-1
 419 545 l 1,7,-1
 419 273 l 1,8,-1
 201 273 l 1,9,-1
 201 142 l 1,10,-1
 434 142 l 1,11,-1
 434 66 l 1,0,-1
471 545 m 1,12,-1
 775 545 l 1,13,-1
 775 66 l 1,14,-1
 471 66 l 1,15,-1
 471 545 l 1,12,-1
551 474 m 1,16,-1
 551 138 l 1,17,-1
 693 138 l 1,18,-1
 693 474 l 1,19,-1
 551 474 l 1,16,-1
EndSplineSet
Validated: 1
EndChar

StartChar: uni313C
Encoding: 12604 12604 609
Width: 892
VWidth: 1000
Flags: W
LayerCount: 2
Fore
SplineSet
431 66 m 1,0,-1
 115 66 l 1,1,-1
 115 347 l 1,2,-1
 329 347 l 1,3,-1
 329 471 l 1,4,-1
 116 471 l 1,5,-1
 116 545 l 1,6,-1
 416 545 l 1,7,-1
 416 273 l 1,8,-1
 201 273 l 1,9,-1
 201 142 l 1,10,-1
 431 142 l 1,11,-1
 431 66 l 1,0,-1
468 551 m 1,12,-1
 547 551 l 1,13,-1
 547 381 l 1,14,-1
 694 381 l 1,15,-1
 694 556 l 1,16,-1
 775 556 l 1,17,-1
 775 66 l 1,18,-1
 468 66 l 1,19,-1
 468 551 l 1,12,-1
547 314 m 1,20,-1
 547 134 l 1,21,-1
 694 134 l 1,22,-1
 694 314 l 1,23,-1
 547 314 l 1,20,-1
EndSplineSet
Validated: 1
EndChar

StartChar: uni313D
Encoding: 12605 12605 610
Width: 892
VWidth: 1000
Flags: W
LayerCount: 2
Fore
SplineSet
433 66 m 1,0,-1
 120 66 l 1,1,-1
 120 347 l 1,2,-1
 331 347 l 1,3,-1
 331 471 l 1,4,-1
 121 471 l 1,5,-1
 121 545 l 1,6,-1
 418 545 l 1,7,-1
 418 273 l 1,8,-1
 206 273 l 1,9,-1
 206 142 l 1,10,-1
 433 142 l 1,11,-1
 433 119 l 1,12,13
 523 198 523 198 559.5 309.5 c 128,-1,14
 596 421 596 421 583 562 c 1,15,-1
 666 562 l 1,16,17
 667 519 667 519 665 480.5 c 128,-1,18
 663 442 663 442 658 407 c 1,19,20
 673 312 673 312 717.5 236 c 128,-1,21
 762 160 762 160 826 109 c 1,22,-1
 760 49 l 1,23,24
 713 94 713 94 680 147 c 128,-1,25
 647 200 647 200 626 266 c 1,26,27
 603 200 603 200 567 146.5 c 128,-1,28
 531 93 531 93 480 45 c 1,29,-1
 433 84 l 1,30,-1
 433 66 l 1,0,-1
EndSplineSet
Validated: 33
EndChar

StartChar: uni313E
Encoding: 12606 12606 611
Width: 892
VWidth: 1000
Flags: W
LayerCount: 2
Fore
SplineSet
434 66 m 1,0,-1
 115 66 l 1,1,-1
 115 347 l 1,2,-1
 332 347 l 1,3,-1
 332 471 l 1,4,-1
 116 471 l 1,5,-1
 116 545 l 1,6,-1
 419 545 l 1,7,-1
 419 273 l 1,8,-1
 201 273 l 1,9,-1
 201 142 l 1,10,-1
 434 142 l 1,11,-1
 434 66 l 1,0,-1
477 545 m 1,12,-1
 776 545 l 1,13,-1
 776 475 l 1,14,-1
 557 475 l 1,15,-1
 557 346 l 1,16,-1
 774 346 l 1,17,-1
 774 275 l 1,18,-1
 557 275 l 1,19,-1
 557 136 l 1,20,-1
 788 136 l 1,21,-1
 788 66 l 1,22,-1
 477 66 l 1,23,-1
 477 545 l 1,12,-1
EndSplineSet
Validated: 1
EndChar

StartChar: uni313F
Encoding: 12607 12607 612
Width: 892
VWidth: 1000
Flags: W
LayerCount: 2
Fore
SplineSet
430 66 m 1,0,-1
 115 66 l 1,1,-1
 115 347 l 1,2,-1
 328 347 l 1,3,-1
 328 471 l 1,4,-1
 116 471 l 1,5,-1
 116 545 l 1,6,-1
 415 545 l 1,7,-1
 415 273 l 1,8,-1
 201 273 l 1,9,-1
 201 142 l 1,10,-1
 430 142 l 1,11,-1
 430 66 l 1,0,-1
791 545 m 1,12,-1
 791 470 l 1,13,-1
 742 470 l 1,14,-1
 738 143 l 1,15,-1
 801 143 l 1,16,-1
 801 66 l 1,17,-1
 460 66 l 1,18,-1
 460 141 l 1,19,-1
 509 141 l 1,20,-1
 507 472 l 1,21,-1
 455 472 l 1,22,-1
 455 545 l 1,23,-1
 791 545 l 1,12,-1
664 473 m 1,24,-1
 585 473 l 1,25,-1
 587 140 l 1,26,-1
 660 140 l 1,27,-1
 664 473 l 1,24,-1
EndSplineSet
Validated: 1
EndChar

StartChar: uni3140
Encoding: 12608 12608 613
Width: 892
VWidth: 1000
Flags: W
LayerCount: 2
Fore
SplineSet
444 66 m 1,0,-1
 115 66 l 1,1,-1
 115 347 l 1,2,-1
 328 347 l 1,3,-1
 328 471 l 1,4,-1
 116 471 l 1,5,-1
 116 545 l 1,6,-1
 415 545 l 1,7,-1
 415 273 l 1,8,-1
 201 273 l 1,9,-1
 201 142 l 1,10,-1
 444 142 l 1,11,-1
 444 66 l 1,0,-1
443 360 m 1,12,-1
 443 427 l 1,13,-1
 821 427 l 1,14,-1
 821 360 l 1,15,-1
 443 360 l 1,12,-1
512 482 m 1,16,-1
 512 551 l 1,17,-1
 738 551 l 1,18,-1
 738 482 l 1,19,-1
 512 482 l 1,16,-1
627 329 m 0,20,21
 664 329 664 329 694 318.5 c 128,-1,22
 724 308 724 308 744 289 c 128,-1,23
 764 270 764 270 775 245 c 128,-1,24
 786 220 786 220 786 191 c 0,25,26
 786 126 786 126 742.5 88.5 c 128,-1,27
 699 51 699 51 627 51 c 0,28,29
 556 51 556 51 512.5 88.5 c 128,-1,30
 469 126 469 126 469 191 c 0,31,32
 469 220 469 220 479.5 245 c 128,-1,33
 490 270 490 270 510.5 289 c 128,-1,34
 531 308 531 308 560 318.5 c 128,-1,35
 589 329 589 329 627 329 c 0,20,21
626 263 m 0,36,37
 588 263 588 263 567 242 c 128,-1,38
 546 221 546 221 546 190 c 0,39,40
 546 158 546 158 568 137.5 c 128,-1,41
 590 117 590 117 626 117 c 0,42,43
 664 117 664 117 686.5 137.5 c 128,-1,44
 709 158 709 158 709 190 c 0,45,46
 709 221 709 221 688 242 c 128,-1,47
 667 263 667 263 626 263 c 0,36,37
EndSplineSet
Validated: 1
EndChar

StartChar: uni3141
Encoding: 12609 12609 614
Width: 892
VWidth: 1000
Flags: W
LayerCount: 2
Fore
SplineSet
650 145 m 1,0,-1
 650 464 l 1,1,-1
 242 464 l 1,2,-1
 242 145 l 1,3,-1
 650 145 l 1,0,-1
154 70 m 1,4,-1
 154 540 l 1,5,-1
 738 540 l 1,6,-1
 738 70 l 1,7,-1
 154 70 l 1,4,-1
EndSplineSet
Validated: 1
EndChar

StartChar: uni3142
Encoding: 12610 12610 615
Width: 892
VWidth: 1000
Flags: W
LayerCount: 2
Fore
SplineSet
650 309 m 1,0,-1
 242 309 l 1,1,-1
 242 139 l 1,2,-1
 650 139 l 1,3,-1
 650 309 l 1,0,-1
153 65 m 1,4,-1
 153 556 l 1,5,-1
 244 556 l 1,6,-1
 244 385 l 1,7,-1
 650 385 l 1,8,-1
 650 556 l 1,9,-1
 739 556 l 1,10,-1
 739 65 l 1,11,-1
 153 65 l 1,4,-1
EndSplineSet
Validated: 1
EndChar

StartChar: uni3143
Encoding: 12611 12611 616
Width: 892
VWidth: 1000
Flags: W
LayerCount: 2
Fore
SplineSet
475 554 m 1,0,-1
 555 554 l 1,1,-1
 555 383 l 1,2,-1
 690 383 l 1,3,-1
 690 554 l 1,4,-1
 770 554 l 1,5,-1
 770 69 l 1,6,-1
 475 69 l 1,7,-1
 475 554 l 1,0,-1
554 315 m 1,8,-1
 554 141 l 1,9,-1
 690 141 l 1,10,-1
 690 315 l 1,11,-1
 554 315 l 1,8,-1
123 554 m 1,12,-1
 206 554 l 1,13,-1
 206 383 l 1,14,-1
 342 383 l 1,15,-1
 342 554 l 1,16,-1
 422 554 l 1,17,-1
 422 69 l 1,18,-1
 123 69 l 1,19,-1
 123 554 l 1,12,-1
206 315 m 1,20,-1
 206 141 l 1,21,-1
 343 141 l 1,22,-1
 343 315 l 1,23,-1
 206 315 l 1,20,-1
EndSplineSet
Validated: 1
EndChar

StartChar: uni3144
Encoding: 12612 12612 617
Width: 892
VWidth: 1000
Flags: W
LayerCount: 2
Fore
SplineSet
114 554 m 1,0,-1
 197 554 l 1,1,-1
 197 383 l 1,2,-1
 339 383 l 1,3,-1
 339 554 l 1,4,-1
 419 554 l 1,5,-1
 419 109 l 1,6,7
 515 188 515 188 555 302 c 128,-1,8
 595 416 595 416 581 562 c 1,9,-1
 664 562 l 1,10,11
 665 519 665 519 663 480.5 c 128,-1,12
 661 442 661 442 656 407 c 1,13,14
 671 312 671 312 715.5 236 c 128,-1,15
 760 160 760 160 824 109 c 1,16,-1
 758 49 l 1,17,18
 711 94 711 94 678 147 c 128,-1,19
 645 200 645 200 624 266 c 1,20,21
 601 200 601 200 565 146.5 c 128,-1,22
 529 93 529 93 478 45 c 1,23,-1
 419 94 l 1,24,-1
 419 69 l 1,25,-1
 114 69 l 1,26,-1
 114 554 l 1,0,-1
197 315 m 1,27,-1
 197 141 l 1,28,-1
 340 141 l 1,29,-1
 340 315 l 1,30,-1
 197 315 l 1,27,-1
EndSplineSet
Validated: 33
EndChar

StartChar: uni3145
Encoding: 12613 12613 618
Width: 892
VWidth: 1000
Flags: W
LayerCount: 2
Fore
SplineSet
479 412 m 1,0,1
 527 302 527 302 617 227 c 128,-1,2
 707 152 707 152 820 116 c 1,3,-1
 764 49 l 1,4,5
 667 83 667 83 582.5 152 c 128,-1,6
 498 221 498 221 444 321 c 1,7,8
 420 273 420 273 387 230.5 c 128,-1,9
 354 188 354 188 314 152.5 c 128,-1,10
 274 117 274 117 228.5 89.5 c 128,-1,11
 183 62 183 62 135 44 c 1,12,-1
 78 112 l 1,13,14
 154 138 154 138 215.5 180.5 c 128,-1,15
 277 223 277 223 320 280 c 128,-1,16
 363 337 363 337 386 407.5 c 128,-1,17
 409 478 409 478 407 561 c 1,18,-1
 496 561 l 1,19,20
 498 523 498 523 493.5 485.5 c 128,-1,21
 489 448 489 448 479 412 c 1,0,1
EndSplineSet
Validated: 33
EndChar

StartChar: uni3146
Encoding: 12614 12614 619
Width: 892
VWidth: 1000
Flags: W
LayerCount: 2
Fore
SplineSet
632 428 m 1,0,1
 653 329 653 329 708 265 c 128,-1,2
 763 201 763 201 847 156 c 1,3,-1
 795 94 l 1,4,5
 731 130 731 130 681 183.5 c 128,-1,6
 631 237 631 237 599 311 c 1,7,8
 567 222 567 222 513.5 153 c 128,-1,9
 460 84 460 84 388 42 c 1,10,-1
 336 101 l 1,11,12
 454 167 454 167 509.5 283.5 c 128,-1,13
 565 400 565 400 559 550 c 1,14,-1
 642 550 l 1,15,16
 640 486 640 486 630 428 c 1,17,-1
 632 428 l 1,0,1
328 550 m 1,18,19
 330 515 330 515 327 481 c 128,-1,20
 324 447 324 447 318 415 c 1,21,22
 325 382 325 382 337 356.5 c 128,-1,23
 349 331 349 331 365.5 309.5 c 128,-1,24
 382 288 382 288 404 269.5 c 128,-1,25
 426 251 426 251 454 233 c 1,26,27
 441 216 441 216 426.5 201 c 128,-1,28
 412 186 412 186 395 172 c 1,29,30
 361 201 361 201 332.5 234 c 128,-1,31
 304 267 304 267 283 308 c 1,32,33
 254 241 254 241 205 186 c 128,-1,34
 156 131 156 131 87 93 c 1,35,-1
 35 155 l 1,36,37
 94 186 94 186 135.5 226 c 128,-1,38
 177 266 177 266 202 315.5 c 128,-1,39
 227 365 227 365 237.5 423.5 c 128,-1,40
 248 482 248 482 245 550 c 1,41,-1
 328 550 l 1,18,19
EndSplineSet
Validated: 33
EndChar

StartChar: uni3147
Encoding: 12615 12615 620
Width: 892
VWidth: 1000
Flags: W
LayerCount: 2
Fore
SplineSet
671 305 m 256,0,1
 671 341 671 341 657.5 374 c 128,-1,2
 644 407 644 407 616.5 431.5 c 128,-1,3
 589 456 589 456 546.5 470.5 c 128,-1,4
 504 485 504 485 446 485 c 0,5,6
 387 485 387 485 344.5 470.5 c 128,-1,7
 302 456 302 456 274.5 431.5 c 128,-1,8
 247 407 247 407 234 374 c 128,-1,9
 221 341 221 341 221 305 c 256,10,11
 221 269 221 269 234 236 c 128,-1,12
 247 203 247 203 274.5 178.5 c 128,-1,13
 302 154 302 154 344.5 139.5 c 128,-1,14
 387 125 387 125 446 125 c 0,15,16
 504 125 504 125 546.5 139.5 c 128,-1,17
 589 154 589 154 616.5 178.5 c 128,-1,18
 644 203 644 203 657.5 236 c 128,-1,19
 671 269 671 269 671 305 c 256,0,1
758 305 m 256,20,21
 758 250 758 250 738 204 c 128,-1,22
 718 158 718 158 678.5 124.5 c 128,-1,23
 639 91 639 91 580.5 72 c 128,-1,24
 522 53 522 53 446 53 c 0,25,26
 369 53 369 53 311 72 c 128,-1,27
 253 91 253 91 213.5 124.5 c 128,-1,28
 174 158 174 158 154 204 c 128,-1,29
 134 250 134 250 134 305 c 256,30,31
 134 360 134 360 154 406 c 128,-1,32
 174 452 174 452 213.5 485.5 c 128,-1,33
 253 519 253 519 311 538 c 128,-1,34
 369 557 369 557 446 557 c 0,35,36
 522 557 522 557 580.5 538 c 128,-1,37
 639 519 639 519 678.5 485.5 c 128,-1,38
 718 452 718 452 738 406 c 128,-1,39
 758 360 758 360 758 305 c 256,20,21
EndSplineSet
Validated: 1
EndChar

StartChar: uni3148
Encoding: 12616 12616 621
Width: 892
VWidth: 1000
Flags: W
LayerCount: 2
Fore
SplineSet
526 286 m 1,0,1
 591 245 591 245 660.5 210 c 128,-1,2
 730 175 730 175 819 143 c 1,3,-1
 763 75 l 1,4,5
 683 106 683 106 609 148 c 128,-1,6
 535 190 535 190 469 240 c 1,7,8
 394 186 394 186 309 142 c 128,-1,9
 224 98 224 98 135 64 c 1,10,-1
 82 132 l 1,11,12
 167 159 167 159 247 199 c 128,-1,13
 327 239 327 239 393 284.5 c 128,-1,14
 459 330 459 330 507 378 c 128,-1,15
 555 426 555 426 578 470 c 1,16,17
 521 467 521 467 466 466.5 c 128,-1,18
 411 466 411 466 355 466 c 2,19,-1
 164 466 l 1,20,-1
 164 541 l 1,21,-1
 438 541 l 2,22,23
 503 541 503 541 569 541 c 128,-1,24
 635 541 635 541 705 543 c 1,25,26
 686 471 686 471 639 407 c 128,-1,27
 592 343 592 343 526 286 c 1,0,1
EndSplineSet
Validated: 1
EndChar

StartChar: uni3149
Encoding: 12617 12617 622
Width: 892
VWidth: 1000
Flags: W
LayerCount: 2
Fore
SplineSet
657 295 m 1,0,1
 697 257 697 257 742.5 225 c 128,-1,2
 788 193 788 193 845 161 c 1,3,-1
 788 95 l 1,4,5
 738 127 738 127 696.5 161 c 128,-1,6
 655 195 655 195 617 234 c 1,7,8
 575 176 575 176 518.5 120.5 c 128,-1,9
 462 65 462 65 391 13 c 1,10,-1
 331 68 l 1,11,12
 404 116 404 116 459 168.5 c 128,-1,13
 514 221 514 221 552.5 274 c 128,-1,14
 591 327 591 327 614.5 377.5 c 128,-1,15
 638 428 638 428 647 471 c 1,16,17
 620 469 620 469 592 469 c 128,-1,18
 564 469 564 469 536 469 c 2,19,-1
 458 469 l 1,20,-1
 458 542 l 1,21,-1
 566 542 l 2,22,23
 608 542 608 542 651.5 542 c 128,-1,24
 695 542 695 542 737 544 c 1,25,26
 731 422 731 422 657 295 c 1,0,1
344 329 m 1,27,28
 368 302 368 302 401.5 275.5 c 128,-1,29
 435 249 435 249 473 227 c 1,30,31
 456 211 456 211 441 198 c 128,-1,32
 426 185 426 185 407 171 c 1,33,34
 378 193 378 193 352.5 218 c 128,-1,35
 327 243 327 243 304 271 c 1,36,37
 269 226 269 226 220.5 182 c 128,-1,38
 172 138 172 138 108 92 c 1,39,-1
 49 148 l 1,40,41
 116 190 116 190 163.5 231 c 128,-1,42
 211 272 211 272 242.5 312 c 128,-1,43
 274 352 274 352 292 392 c 128,-1,44
 310 432 310 432 320 471 c 1,45,46
 292 469 292 469 267 469 c 128,-1,47
 242 469 242 469 214 469 c 2,48,-1
 121 469 l 1,49,-1
 121 542 l 1,50,-1
 249 542 l 2,51,52
 291 542 291 542 331 542 c 128,-1,53
 371 542 371 542 414 544 c 1,54,55
 409 486 409 486 392 433 c 128,-1,56
 375 380 375 380 344 329 c 1,27,28
EndSplineSet
Validated: 1
EndChar

StartChar: uni314A
Encoding: 12618 12618 623
Width: 892
VWidth: 1000
Flags: W
LayerCount: 2
Fore
SplineSet
616 602 m 1,0,-1
 616 529 l 1,1,-1
 264 529 l 1,2,-1
 264 602 l 1,3,-1
 616 602 l 1,0,-1
440 453 m 2,4,5
 503 453 503 453 567.5 453 c 128,-1,6
 632 453 632 453 701 455 c 0,7,8
 712 455 712 455 715.5 448 c 128,-1,9
 719 441 719 441 717 432 c 0,10,11
 701 377 701 377 655 324.5 c 128,-1,12
 609 272 609 272 540 224 c 1,13,14
 599 192 599 192 664 165.5 c 128,-1,15
 729 139 729 139 807 113 c 1,16,-1
 766 45 l 1,17,18
 688 73 688 73 612.5 106.5 c 128,-1,19
 537 140 537 140 473 181 c 1,20,21
 400 138 400 138 316.5 102 c 128,-1,22
 233 66 233 66 145 39 c 1,23,-1
 101 108 l 1,24,25
 198 137 198 137 281.5 171.5 c 128,-1,26
 365 206 365 206 429.5 242.5 c 128,-1,27
 494 279 494 279 538 315.5 c 128,-1,28
 582 352 582 352 601 385 c 1,29,30
 546 382 546 382 491 381.5 c 128,-1,31
 436 381 436 381 380 381 c 2,32,-1
 167 381 l 1,33,-1
 167 453 l 1,34,-1
 440 453 l 2,4,5
EndSplineSet
Validated: 1
EndChar

StartChar: uni314B
Encoding: 12619 12619 624
Width: 892
VWidth: 1000
Flags: W
LayerCount: 2
Fore
SplineSet
642 61 m 1,0,-1
 642 246 l 1,1,2
 583 235 583 235 515 231.5 c 128,-1,3
 447 228 447 228 371 228 c 2,4,-1
 120 228 l 1,5,-1
 120 301 l 1,6,-1
 389 301 l 2,7,8
 532 301 532 301 642 313 c 1,9,-1
 642 464 l 1,10,-1
 130 464 l 1,11,-1
 130 540 l 1,12,-1
 728 540 l 1,13,-1
 728 61 l 1,14,-1
 642 61 l 1,0,-1
EndSplineSet
Validated: 1
EndChar

StartChar: uni314C
Encoding: 12620 12620 625
Width: 892
VWidth: 1000
Flags: W
LayerCount: 2
Fore
SplineSet
146 66 m 1,0,-1
 146 545 l 1,1,-1
 753 545 l 1,2,-1
 753 470 l 1,3,-1
 232 470 l 1,4,-1
 232 348 l 1,5,-1
 737 348 l 1,6,-1
 737 275 l 1,7,-1
 232 275 l 1,8,-1
 232 139 l 1,9,-1
 767 139 l 1,10,-1
 767 66 l 1,11,-1
 146 66 l 1,0,-1
EndSplineSet
Validated: 1
EndChar

StartChar: uni314D
Encoding: 12621 12621 626
Width: 892
VWidth: 1000
Flags: W
LayerCount: 2
Fore
SplineSet
125 466 m 1,0,-1
 125 540 l 1,1,-1
 771 540 l 1,2,-1
 771 466 l 1,3,-1
 125 466 l 1,0,-1
114 66 m 1,4,-1
 114 142 l 1,5,-1
 250 142 l 1,6,-1
 244 426 l 1,7,-1
 330 426 l 1,8,-1
 332 142 l 1,9,-1
 561 142 l 1,10,-1
 566 426 l 1,11,-1
 652 426 l 1,12,-1
 645 142 l 1,13,-1
 781 142 l 1,14,-1
 781 66 l 1,15,-1
 114 66 l 1,4,-1
EndSplineSet
Validated: 1
EndChar

StartChar: uni314E
Encoding: 12622 12622 627
Width: 892
VWidth: 1000
Flags: W
LayerCount: 2
Fore
SplineSet
628 608 m 1,0,-1
 628 533 l 1,1,-1
 264 533 l 1,2,-1
 264 608 l 1,3,-1
 628 608 l 1,0,-1
791 467 m 1,4,-1
 791 395 l 1,5,-1
 100 395 l 1,6,-1
 100 467 l 1,7,-1
 791 467 l 1,4,-1
721 193 m 256,8,9
 721 160 721 160 704.5 130.5 c 128,-1,10
 688 101 688 101 654 78.5 c 128,-1,11
 620 56 620 56 568 42.5 c 128,-1,12
 516 29 516 29 446 29 c 256,13,14
 376 29 376 29 324 42.5 c 128,-1,15
 272 56 272 56 238 78.5 c 128,-1,16
 204 101 204 101 187.5 130.5 c 128,-1,17
 171 160 171 160 171 193 c 256,18,19
 171 226 171 226 187.5 255 c 128,-1,20
 204 284 204 284 238 306.5 c 128,-1,21
 272 329 272 329 323.5 342 c 128,-1,22
 375 355 375 355 446 355 c 0,23,24
 516 355 516 355 568 342 c 128,-1,25
 620 329 620 329 654 306.5 c 128,-1,26
 688 284 688 284 704.5 255 c 128,-1,27
 721 226 721 226 721 193 c 256,8,9
635 191 m 0,28,29
 635 208 635 208 625 225 c 128,-1,30
 615 242 615 242 592.5 255 c 128,-1,31
 570 268 570 268 534 276 c 128,-1,32
 498 284 498 284 445 284 c 256,33,34
 392 284 392 284 356.5 276 c 128,-1,35
 321 268 321 268 298.5 255 c 128,-1,36
 276 242 276 242 266.5 225 c 128,-1,37
 257 208 257 208 257 191 c 0,38,39
 257 175 257 175 266.5 158.5 c 128,-1,40
 276 142 276 142 298.5 129 c 128,-1,41
 321 116 321 116 356.5 108 c 128,-1,42
 392 100 392 100 445 100 c 256,43,44
 498 100 498 100 534 108 c 128,-1,45
 570 116 570 116 592.5 129 c 128,-1,46
 615 142 615 142 625 158.5 c 128,-1,47
 635 175 635 175 635 191 c 0,28,29
EndSplineSet
Validated: 1
EndChar

StartChar: uni314F
Encoding: 12623 12623 628
Width: 892
VWidth: 1000
Flags: W
LayerCount: 2
Fore
SplineSet
698 314 m 1,0,-1
 461 314 l 1,1,-1
 461 -153 l 1,2,-1
 375 -153 l 1,3,-1
 375 760 l 1,4,-1
 461 760 l 1,5,-1
 461 390 l 1,6,-1
 698 390 l 1,7,-1
 698 314 l 1,0,-1
EndSplineSet
Validated: 1
EndChar

StartChar: uni3150
Encoding: 12624 12624 629
Width: 892
VWidth: 1000
Flags: W
LayerCount: 2
Fore
SplineSet
613 -153 m 1,0,-1
 527 -153 l 1,1,-1
 527 304 l 1,2,-1
 364 304 l 1,3,-1
 364 -130 l 1,4,-1
 280 -130 l 1,5,-1
 280 750 l 1,6,-1
 364 750 l 1,7,-1
 364 378 l 1,8,-1
 527 378 l 1,9,-1
 527 760 l 1,10,-1
 613 760 l 1,11,-1
 613 -153 l 1,0,-1
EndSplineSet
Validated: 1
EndChar

StartChar: uni3151
Encoding: 12625 12625 630
Width: 892
VWidth: 1000
Flags: W
LayerCount: 2
Fore
SplineSet
465 179 m 1,0,-1
 465 -153 l 1,1,-1
 379 -153 l 1,2,-1
 379 760 l 1,3,-1
 465 760 l 1,4,-1
 465 530 l 1,5,-1
 693 530 l 1,6,-1
 693 455 l 1,7,-1
 465 455 l 1,8,-1
 465 254 l 1,9,-1
 693 254 l 1,10,-1
 693 179 l 1,11,-1
 465 179 l 1,0,-1
EndSplineSet
Validated: 1
EndChar

StartChar: uni3152
Encoding: 12626 12626 631
Width: 892
VWidth: 1000
Flags: W
LayerCount: 2
Fore
SplineSet
362 163 m 1,0,-1
 362 -130 l 1,1,-1
 279 -130 l 1,2,-1
 279 750 l 1,3,-1
 362 750 l 1,4,-1
 362 514 l 1,5,-1
 529 514 l 1,6,-1
 529 760 l 1,7,-1
 614 760 l 1,8,-1
 614 -153 l 1,9,-1
 529 -153 l 1,10,-1
 529 163 l 1,11,-1
 362 163 l 1,0,-1
530 442 m 1,12,-1
 361 442 l 1,13,-1
 361 235 l 1,14,-1
 530 235 l 1,15,-1
 530 442 l 1,12,-1
EndSplineSet
Validated: 1
EndChar

StartChar: uni3153
Encoding: 12627 12627 632
Width: 892
VWidth: 1000
Flags: W
LayerCount: 2
Fore
SplineSet
276 314 m 1,0,-1
 276 390 l 1,1,-1
 513 390 l 1,2,-1
 513 760 l 1,3,-1
 599 760 l 1,4,-1
 599 -153 l 1,5,-1
 513 -153 l 1,6,-1
 513 314 l 1,7,-1
 276 314 l 1,0,-1
EndSplineSet
Validated: 1
EndChar

StartChar: uni3154
Encoding: 12628 12628 633
Width: 892
VWidth: 1000
Flags: W
LayerCount: 2
Fore
SplineSet
624 -153 m 1,0,-1
 538 -153 l 1,1,-1
 538 760 l 1,2,-1
 624 760 l 1,3,-1
 624 -153 l 1,0,-1
360 750 m 1,4,-1
 446 750 l 1,5,-1
 446 -130 l 1,6,-1
 360 -130 l 1,7,-1
 360 304 l 1,8,-1
 179 304 l 1,9,-1
 179 379 l 1,10,-1
 360 379 l 1,11,-1
 360 750 l 1,4,-1
EndSplineSet
Validated: 1
EndChar

StartChar: uni3155
Encoding: 12629 12629 634
Width: 892
VWidth: 1000
Flags: W
LayerCount: 2
Fore
SplineSet
507 179 m 1,0,-1
 279 179 l 1,1,-1
 279 254 l 1,2,-1
 507 254 l 1,3,-1
 507 455 l 1,4,-1
 279 455 l 1,5,-1
 279 530 l 1,6,-1
 507 530 l 1,7,-1
 507 760 l 1,8,-1
 593 760 l 1,9,-1
 593 -153 l 1,10,-1
 507 -153 l 1,11,-1
 507 179 l 1,0,-1
EndSplineSet
Validated: 1
EndChar

StartChar: uni3156
Encoding: 12630 12630 635
Width: 892
VWidth: 1000
Flags: W
LayerCount: 2
Fore
SplineSet
624 -153 m 1,0,-1
 538 -153 l 1,1,-1
 538 760 l 1,2,-1
 624 760 l 1,3,-1
 624 -153 l 1,0,-1
361 181 m 1,4,-1
 189 181 l 1,5,-1
 189 254 l 1,6,-1
 362 254 l 1,7,-1
 362 459 l 1,8,-1
 189 459 l 1,9,-1
 189 532 l 1,10,-1
 361 532 l 1,11,-1
 361 750 l 1,12,-1
 447 750 l 1,13,-1
 447 -130 l 1,14,-1
 361 -130 l 1,15,-1
 361 181 l 1,4,-1
EndSplineSet
Validated: 1
EndChar

StartChar: uni3157
Encoding: 12631 12631 636
Width: 892
VWidth: 1000
Flags: W
LayerCount: 2
Fore
SplineSet
488 545 m 1,0,-1
 488 158 l 1,1,-1
 871 158 l 1,2,-1
 871 85 l 1,3,-1
 21 85 l 1,4,-1
 21 158 l 1,5,-1
 398 158 l 1,6,-1
 398 545 l 1,7,-1
 488 545 l 1,0,-1
EndSplineSet
Validated: 1
EndChar

StartChar: uni3158
Encoding: 12632 12632 637
Width: 892
VWidth: 1000
Flags: W
LayerCount: 2
Fore
SplineSet
890 316 m 1,0,-1
 745 316 l 1,1,-1
 745 -153 l 1,2,-1
 662 -153 l 1,3,-1
 662 760 l 1,4,-1
 745 760 l 1,5,-1
 745 390 l 1,6,-1
 890 390 l 1,7,-1
 890 316 l 1,0,-1
350 466 m 1,8,-1
 350 152 l 1,9,10
 422 155 422 155 492 160 c 128,-1,11
 562 165 562 165 619 173 c 1,12,-1
 619 102 l 1,13,14
 571 95 571 95 513.5 90 c 128,-1,15
 456 85 456 85 395.5 81.5 c 128,-1,16
 335 78 335 78 275 76 c 128,-1,17
 215 74 215 74 162 74 c 2,18,-1
 11 74 l 1,19,-1
 11 148 l 1,20,-1
 161 148 l 2,21,22
 184 148 184 148 210 148 c 128,-1,23
 236 148 236 148 263 149 c 1,24,-1
 263 466 l 1,25,-1
 350 466 l 1,8,-1
EndSplineSet
Validated: 1
EndChar

